<?xml version="1.0" standalone="no"?><!DOCTYPE svg PUBLIC "-//W3C//DTD SVG 1.1//EN" "http://www.w3.org/Graphics/SVG/1.1/DTD/svg11.dtd"><svg class="icon" width="64px" height="64.00px" viewBox="0 0 1024 1024" version="1.1" xmlns="http://www.w3.org/2000/svg"><path d="M96.255251 928.440597 96.255251 96.952122l831.488475 0 0 831.488475L96.255251 928.440597zM890.951775 133.744074l-757.905596 0L133.046179 891.648646l757.905596 0L890.951775 133.744074z" fill="#2c2c2c" /><path d="M354.965477 212.95002c8.321526-2.77316 18.939351-4.15974 31.897478-4.15974-23.121604 41.60456-48.539506 74.887594-76.275197 99.850126-1.862417 1.863441-2.318812 3.25002-1.385557 4.15974 0 0.932232 1.385557 0.932232 4.15974 0 31.419594-22.189372 56.383148-42.514279 74.887594-61.019749l-1.385557 62.406329c0.909719 5.547343 4.15974 6.024204 9.707083 1.38658 12.004405-10.162454 18.028609-20.801768 18.028609-31.896454l-1.38658-30.509874 1.38658-44.37772 61.019749-2.77316c2.77316-0.910743 3.683902-2.297322 2.77316-4.160763l-19.415189-18.028609-15.254425 16.642029-29.123294 0 0-19.415189 4.15974-11.094686c1.841951 0 1.841951-0.909719 0-2.77316l-29.123294-13.867846c-1.863441-1.841951-2.77316-1.38658-2.77316 1.38658s0 7.866155 0 15.254425c0.909719 12.958126 1.385557 23.575952 1.385557 31.896454l-42.99114 1.38658L354.965477 212.95002z" fill="#2c2c2c" /><path d="M489.48624 440.388009c-8.320503-4.615111-10.183943-16.642029-5.547343-36.057217 0-3.683902-1.862417-4.160763-5.547343-1.38658-6.478552 16.642029-13.412474 26.350135-20.801768 29.123294-24.962531 6.479575-46.24116 9.252735-63.793932 8.320503-9.251711-0.909719-12.480242-5.547343-9.707083-13.867846l15.254425-77.661777 6.933923-11.094686c1.841951-1.841951 1.841951-3.228531 0-4.160763l-29.123294-16.642029-12.480242 19.415189-52.699246 1.38658-33.283034-18.028609 1.38658 40.21798c0 5.547343-0.476861 10.183943-1.38658 13.867846-8.321526-1.841951-16.186657-3.228531-23.575952-4.160763-0.931209 0.932232-0.931209 1.863441 0 2.77316 3.683902 1.863441 8.321526 4.637624 13.868869 8.320503 3.683902 1.863441 6.457062 3.25002 8.320503 4.160763-5.547343 43.468001-40.21798 78.571497-104.010889 105.397469-1.863441 0.910743-2.318812 1.841951-1.38658 2.77316 0 1.841951 0.910743 2.297322 2.774183 1.38658 73.955362-26.825972 116.015294-57.769728 126.199237-92.916203 7.389294 5.547343 14.323217 12.481266 20.801768 20.801768 7.389294 6.479575 12.481266 6.479575 15.255449 0 5.547343-13.867846 5.547343-23.575952 0-29.122271-9.252735-5.547343-19.416212-9.231245-30.509874-11.094686 1.841951-11.094686 3.228531-22.64372 4.15974-34.670637l54.085826-2.77316-4.160763 72.114434c-0.931209 31.442106 10.163477 48.993854 33.283034 52.699246 30.509874 2.77316 59.633169 1.841951 87.369883-2.77316C499.649717 459.326337 502.423901 450.550463 489.48624 440.388009z" fill="#2c2c2c" /><path d="M173.293835 321.121672c34.193777-20.324908 66.090231-44.37772 95.690386-72.114434l-1.38658 67.953671c0 2.77316 0.910743 4.637624 2.77316 5.547343 1.842974 0 3.684926-0.909719 5.547343-2.77316 12.004405-12.936637 18.48398-24.485671 19.416212-34.670637l-1.38658-37.443797 0-38.830377 42.992163-1.38658c2.77316 0 3.227508-1.38658 1.385557-4.15974l-18.027585-15.255449-13.868869 13.867846-12.481266 0 0-23.575952 4.160763-9.707083c1.841951-1.841951 1.841951-3.228531 0-4.160763l-27.736715-12.481266c-0.931209 0-1.385557 0.476861-1.385557 1.38658 0 10.184967 0 26.350135 0 48.538483l-61.019749 1.38658 9.707083 9.707083c9.231245-2.77316 22.189372-4.15974 38.830377-4.15974l11.094686 0c-31.442106 46.24116-63.793932 82.753749-97.076966 109.557208C169.588443 321.121672 170.519652 322.05288 173.293835 321.121672z" fill="#2c2c2c" /><path d="M324.456626 261.488503c7.389294-4.615111 10.617825-10.617825 9.707083-18.028609-0.931209-6.457062-12.958126-13.390985-36.056194-20.801768l0 2.77316c7.389294 7.410783 12.480242 18.504446 15.254425 33.283034C315.203892 263.351943 318.909284 264.262686 324.456626 261.488503z" fill="#2c2c2c" /><path d="M424.306752 214.337623l-4.15974 1.38658c11.094686 43.468001 27.735691 76.275197 49.925063 98.463546 12.936637-12.936637 26.349111-18.938328 40.21798-18.028609 0.909719 0 1.841951-0.454348 2.77316-1.38658-0.931209-0.910743-1.863441-1.841951-2.77316-2.77316C464.047872 271.672446 435.401438 245.778706 424.306752 214.337623z" fill="#2c2c2c" /><path d="M826.482461 323.894831l-34.670637-18.028609-12.481266 18.028609L605.979418 326.669014l-33.283034-16.642029 1.38658 51.312666-2.774183 123.426077c0 3.683902 1.38658 5.547343 4.15974 5.547343 1.841951 0 4.616134-1.863441 8.321526-5.547343 10.163477-10.183943 16.165168-22.189372 18.028609-36.057217L601.818655 334.989517l177.511903-2.77316 2.774183 116.492154c1.841951 9.231245-6.025227 12.936637-23.575952 11.094686-0.932232 0-1.38658 0.909719-1.38658 2.77316 0 0.909719 0.454348 1.38658 1.38658 1.38658 8.320503 3.683902 12.481266 11.549034 12.481266 23.575952 0 2.77316 1.841951 3.683902 5.547343 2.77316 28.64541-16.642029 42.99114-38.375006 42.99114-65.180512l-2.774183-81.821517 11.094686-13.867846C828.779783 326.669014 828.324412 324.827063 826.482461 323.894831z" fill="#2c2c2c" /><path d="M637.875872 448.708512c0 0.909719 0.455371 1.38658 1.38658 1.38658 1.841951 0.909719 3.683902 0.454348 5.547343-1.38658 9.231245-6.457062 15.254425-14.777565 18.028609-24.962531 22.189372-0.910743 44.37772-0.910743 66.567092 0 7.389294 0 12.936637 0 16.642029 0 1.841951-0.910743 2.296299-1.841951 1.38658-2.77316l-1.38658-4.160763-1.38658-41.60456 8.321526-9.707083c1.841951-1.841951 1.841951-3.228531 0-4.160763l-29.123294-16.642029-12.481266 16.642029-48.538483 1.38658-22.189372-12.481266c-1.863441-0.909719-2.774183-0.455371-2.774183 1.38658 0 1.863441 0 5.547343 0 11.094686 0.910743 9.252735 1.38658 16.186657 1.38658 20.801768l0 24.962531L637.875872 448.708512zM664.226007 369.660154l48.538483-1.38658 0 45.7643-48.538483 2.77316L664.226007 369.660154z" fill="#2c2c2c" /><path d="M840.350306 199.082174l-23.575952-23.575952-20.801768 20.802792-88.75544 1.38658 1.38658-15.254425 4.15974-11.094686c1.841951-2.77316 1.38658-4.615111-1.38658-5.547343l-40.21798-13.867846 0 47.151903-126.199237 1.38658 11.094686 9.708106c12.004405-1.841951 25.417903-2.77316 40.21798-2.77316l242.691391-4.15974c1.842974 0 2.774183-0.455371 2.774183-1.38658C841.73791 200.945615 841.261049 200.014406 840.350306 199.082174z" fill="#2c2c2c" /><path d="M777.943978 233.752812l-2.77316-1.38658-33.283034-18.028609-15.255449 18.028609-83.208097 2.77316L621.233843 219.884966l-4.15974-1.38658c-0.931209 0.932232-1.38658 2.318812-1.38658 4.160763l-1.38658 91.529623c1.842974 2.77316 4.616134 3.25002 8.321526 1.38658 10.163477-8.320503 16.642029-15.254425 19.416212-20.801768 49.925063-0.910743 91.984994-1.38658 126.199237-1.38658 1.841951 0 2.296299-0.909719 1.38658-2.77316l-1.38658-6.933923-1.38658-34.670637 8.321526-12.481266C777.012769 235.616252 777.943978 234.68402 777.943978 233.752812zM728.018915 285.064454l-84.5957 2.77316 0-45.7643 84.5957-1.38658L728.018915 285.064454z" fill="#2c2c2c" /><path d="M495.033583 802.426579c-75.819826-32.351825-118.809943-68.864414-128.97342-109.558232l122.040521-1.38658c1.841951 0 2.77316-0.454348 2.77316-1.385557 0-0.910743-0.476861-1.841951-1.38658-2.774183l-26.349111-23.575952-19.415189 20.802792-65.180512 0c14.777565-13.868869 31.419594-30.965246 49.925063-51.312666l6.933923-6.933923c1.841951-0.910743 2.774183-1.841951 2.774183-2.77316l-2.774183-1.38658-31.896454-12.481266c-1.863441-1.841951-2.774183-1.38658-2.774183 1.38658-6.478552 23.12058-16.642029 47.62774-30.508851 73.501014l-19.416212 0 0-83.208097 110.944811-1.38658c2.774183-1.841951 3.228531-3.228531 1.38658-4.15974l-24.962531-24.963555-22.189372 20.801768-65.180512 1.38658 0-33.283034c1.841951-6.458085 4.15974-11.094686 6.933923-13.868869 1.841951-2.77316 1.38658-4.15974-1.38658-4.15974l-38.830377-11.094686 1.38658 61.019749 0 1.38658-108.171652 1.38658 11.094686 11.094686c3.683902-1.841951 12.004405-2.774183 24.963555-2.774183 5.547343-0.909719 9.707083-1.385557 12.480242-1.385557l59.633169 0 0 83.208097-133.134183 1.385557 12.480242 11.094686c8.321526-1.841951 20.325931-2.77316 36.057217-2.77316l73.501014-1.38658c-42.535769 62.883189-88.301092 112.808252-137.294946 149.776212-0.931209 1.841951-1.385557 3.227508-1.385557 4.15974 0.909719 0.910743 2.296299 0.910743 4.15974 0 59.156308-34.193777 107.693768-72.114434 145.615449-113.718995l1.38658 49.925063-2.774183 83.208097c0 3.684926 1.841951 6.002714 5.547343 6.933923 15.71082-12.025894 25.417903-26.349111 29.123294-42.99114L352.190271 781.622764l-1.38658-88.75544 12.481266 0c6.458085 57.335846 34.670637 103.555517 84.5957 138.681526 21.256116-17.551748 36.966936-25.417903 47.15088-23.575952C497.807766 805.198715 497.807766 803.357787 495.033583 802.426579z" fill="#2c2c2c" /><path d="M274.531564 673.452135c9.231245-4.616134 14.777565-12.004405 16.642029-22.189372 1.841951-8.321526-11.571546-20.325931-40.21798-36.057217-3.705392-0.910743-4.6366 0-2.774183 2.774183 7.390317 12.025894 11.550057 27.735691 12.481266 47.15088C261.572414 671.611208 266.210038 674.384367 274.531564 673.452135z" fill="#2c2c2c" /><path d="M784.877901 544.478715l-19.415189 18.027585-209.40938 8.321526 13.867846 12.481266c9.231245-2.774183 23.575952-5.070482 42.992163-6.933923l148.388609-5.547343-63.792908 63.793932-22.189372-8.321526c-1.863441-0.910743-2.319835 0-1.38658 2.774183 0 13.867846 0.454348 36.533055 1.38658 67.952648l1.385557 117.878734c1.841951 10.184967-10.183943 13.868869-36.056194 11.094686-1.863441 0-2.774183 0.477884-2.774183 1.38658-0.931209 0.932232-0.476861 1.38658 1.38658 1.38658 12.004405 9.231245 17.551748 21.25714 16.642029 36.057217 0.910743 4.615111 3.228531 6.001691 6.933923 4.15974 34.193777-16.642029 50.835805-37.921681 49.925063-63.793932l0-49.925063-1.38658-97.076966c0.910743-2.77316 2.774183-6.932899 5.547343-12.480242 1.841951-0.910743 1.841951-2.297322 0-4.160763l-13.867846-4.15974c54.540174-33.283034 92.439342-50.835805 113.717971-52.698223 2.774183 0 4.616134-0.455371 5.547343-1.38658 0.910743-1.841951 0.455371-3.683902-1.385557-5.547343L784.877901 544.478715z" fill="#2c2c2c" /></svg>