<?xml version="1.0" standalone="no"?>
<!DOCTYPE svg PUBLIC "-//W3C//DTD SVG 1.1//EN" "http://www.w3.org/Graphics/SVG/1.1/DTD/svg11.dtd" >
<svg xmlns="http://www.w3.org/2000/svg">
<metadata>
Created by FontForge 20120731 at Thu Mar 31 16:37:21 2016
 By admin
</metadata>
<defs>
<font id="iconfont" horiz-adv-x="1024" >
  <font-face 
    font-family="iconfont"
    font-weight="500"
    font-stretch="normal"
    units-per-em="1024"
    panose-1="2 0 6 3 0 0 0 0 0 0"
    ascent="896"
    descent="-128"
    x-height="792"
    bbox="-0.262295 -212 1026 896"
    underline-thickness="50"
    underline-position="-100"
    unicode-range="U+0078-E68D"
  />
<missing-glyph horiz-adv-x="374" 
d="M34 0v682h272v-682h-272zM68 34h204v614h-204v-614z" />
    <glyph glyph-name=".notdef" horiz-adv-x="374" 
d="M34 0v682h272v-682h-272zM68 34h204v614h-204v-614z" />
    <glyph glyph-name=".null" horiz-adv-x="0" 
 />
    <glyph glyph-name="nonmarkingreturn" horiz-adv-x="341" 
 />
    <glyph glyph-name="x" unicode="x" horiz-adv-x="1001" 
d="M281 543q-27 -1 -53 -1h-83q-18 0 -36.5 -6t-32.5 -18.5t-23 -32t-9 -45.5v-76h912v41q0 16 -0.5 30t-0.5 18q0 13 -5 29t-17 29.5t-31.5 22.5t-49.5 9h-133v-97h-438v97zM955 310v-52q0 -23 0.5 -52t0.5 -58t-10.5 -47.5t-26 -30t-33 -16t-31.5 -4.5q-14 -1 -29.5 -0.5
t-29.5 0.5h-32l-45 128h-439l-44 -128h-29h-34q-20 0 -45 1q-25 0 -41 9.5t-25.5 23t-13.5 29.5t-4 30v167h911zM163 247q-12 0 -21 -8.5t-9 -21.5t9 -21.5t21 -8.5q13 0 22 8.5t9 21.5t-9 21.5t-22 8.5zM316 123q-8 -26 -14 -48q-5 -19 -10.5 -37t-7.5 -25t-3 -15t1 -14.5
t9.5 -10.5t21.5 -4h37h67h81h80h64h36q23 0 34 12t2 38q-5 13 -9.5 30.5t-9.5 34.5q-5 19 -11 39h-368zM336 498v228q0 11 2.5 23t10 21.5t20.5 15.5t34 6h188q31 0 51.5 -14.5t20.5 -52.5v-227h-327z" />
    <glyph glyph-name="uniE600" unicode="&#xe600;" 
d="M746 756h-591q-3 0 -8 -0.5t-18.5 -5t-24.5 -12.5t-21 -25.5t-13 -40.5v-780q0 -3 0.5 -9.5t6 -22t15 -27t30 -21.5t48.5 -10h689q3 1 8.5 1.5t19.5 5.5t25.5 13.5t21 25.5t11.5 40v631l-71 -62l1 -593l-750 -2l-3 836h560zM821 715l93 -72l19 26q15 19 0 43
q-14 22 -36 34q-4 2 -9.5 4.5t-19.5 2t-23 -9.5zM884 606l-158 -208q-14 -26 -39 -38l-69 -33q-1 0 -2.5 -0.5t-5 -0.5t-6 1t-5.5 5t-4 12l12 76q-1 14 18 38l167 220zM299 215h414q1 0 4 0.5t6.5 -4.5t2.5 -15l1 -31q-1 -1 -1.5 -2.5t-5.5 -4t-12 -1.5h-404q-14 -1 -16 13
v36q0 1 1 3t3.5 4t6.5 2zM300 57h414q0 -1 3 -0.5t6.5 -4.5t3.5 -15l-1 -32q0 -1 -1 -2.5t-6 -4t-12 -1.5h-404q-14 -1 -15 12v38q0 6 8 9q1 1 4 1z" />
    <glyph glyph-name="uniE601" unicode="&#xe601;" 
d="M765 110l7 -1l100 86l-3 22l-300 355l-104 -109zM415 511l108 116l-109 129l-44 3l-65 -73l7 -50zM911 1l41 -23l-14 58l-44 124l-95 -81zM909 -97h-755q-21 0 -31.5 -5.5t-10.5 -24.5q0 -20 12.5 -34.5t29.5 -14.5h756q17 0 29 14.5t12 34.5q0 19 -10.5 24.5t-31.5 5.5z
M154 27h419q18 0 30 14.5t12 35.5q0 19 -10.5 25.5t-31.5 6.5h-419q-20 0 -31 -6.5t-11 -25.5q0 -21 12.5 -35.5t29.5 -14.5z" />
    <glyph glyph-name="uniE602" unicode="&#xe602;" 
d="M515 -190l-10 3q-95 33 -165 72.5t-108 75t-60.5 77.5t-28.5 72.5t-6 66.5v388l29 -1q64 -2 122 6.5t92.5 20t63.5 27t38 22.5t12 10l21 21l21 -21q4 -3 12 -9.5t35 -21t59.5 -26t85.5 -20.5t112 -9h25l29 1v-388q0 -36 -6 -67t-28.5 -72.5t-61 -77t-108 -75
t-164.5 -72.5zM194 513v-336q0 -18 0.5 -29.5t7 -36.5t17.5 -45t35 -48t57 -52t85.5 -51t118.5 -51q67 24 119.5 51t85.5 51t57 52t35 48t17.5 45t7 36.5t0.5 29.5v336q-117 0 -196.5 27t-125.5 59q-27 -19 -61.5 -35.5t-106.5 -33.5t-153 -17zM260 219l59 42l117 -77
q6 6 18 16.5t48.5 40t72.5 55.5t85.5 56.5t93.5 49.5l22 -22q-7 -6 -21 -16.5t-53 -46t-74.5 -72.5t-77 -91.5t-69.5 -108.5z" />
    <glyph glyph-name="uniE603" unicode="&#xe603;" 
d="M890 416q-3 7 -10.5 26t-13.5 28q-32 61 -84 110q-9 6 -25.5 19t-25.5 19q-7 5 -50 29q-56 22 -77 27l-14 4q-10 2 -16 2l-43 5q-20 3 -69 -1q-60 -4 -142 -41q-60 -30 -109.5 -80t-78.5 -110q-46 -97 -43 -198q0 -3 1 -14t1 -15q2 -8 3.5 -23t3.5 -23q19 -86 71 -160
t130 -118q8 -6 17 -10.5t25.5 -10.5t19.5 -7q55 -22 120.5 -25.5t124.5 12.5q84 20 155.5 77.5t109.5 137.5q2 2 2 3q38 78 43 166t-26 171zM413 498q25 21 49 16q21 -6 33 -27q6 -11 6.5 -24.5t-6.5 -23.5q-15 -27 -42 -28q-37 2 -48 30q-15 27 8 57zM862 101
q-24 -58 -72 -109.5t-104 -78.5q-45 -24 -74 -29q-6 0 -16.5 -1.5t-16.5 -1.5l-30 3l-7 3q-8 3 -12 2q-48 8 -92 49q-35 37 -48 88t1 100q15 50 53 85q76 54 91 67q26 18 38 28t29 29t25 38q4 6 7 12.5t5.5 15.5t3.5 13t3 16t2 14q6 57 -19.5 109t-74.5 81q-8 5 -22.5 11
t-19.5 9q-5 1 -20.5 5t-23.5 4q-1 1 -0.5 1.5t-0.5 0.5q52 9 121 -6q77 -17 144.5 -65.5t107.5 -117.5l16 -28q40 -77 42 -173t-36 -174zM614 85q11 -35 -14 -58q-29 -21 -51 -13q-25 9 -36 28q-9 22 2 47q10 18 48 32q16 0 30 -10.5t21 -25.5z" />
    <glyph glyph-name="uniE604" unicode="&#xe604;" 
d="M859 -190h-668q-27 0 -47 25t-20 61v712q0 36 20 61t47 25h334h200h67q19 0 32 -17t13 -40v-399v-94v-163q0 -12 -6.5 -20t-16 -8t-16 8t-6.5 20v171v86v342q0 23 -13 40t-31 17h-267h-67h-200q-19 0 -32 -17t-13 -40v-656q0 -23 13 -40t32 -17h556h44h23q18 0 31 17
t13 40v656q0 12 6.5 20t16 8t16 -8t6.5 -20v-656v-28q0 -36 -19.5 -61t-47.5 -25zM659 225h-356q-10 0 -16.5 8.5t-6.5 20.5t6.5 20t16.5 8h356q9 0 15.5 -8t6.5 -20t-6.5 -20.5t-15.5 -8.5zM659 46h-356q-10 0 -16.5 8.5t-6.5 20.5t6.5 20t16.5 8h356q9 0 15.5 -8t6.5 -20
t-6.5 -20.5t-15.5 -8.5zM392 401q-10 0 -16.5 8t-6.5 20t6.5 20.5t16.5 8.5h178q9 0 15.5 -8.5t6.5 -20.5t-6.5 -20t-15.5 -8h-178z" />
    <glyph glyph-name="uniE605" unicode="&#xe605;" 
d="M772 309l-91 77l-14 11q-4 4 -2.5 10t8.5 11l24 19q189 148 192 150q20 16 26 35t-3 24l-60 50q-10 8 -27 -6q-305 -255 -322 -269q-16 -13 -23.5 -31.5t1.5 -27.5l102 -86q4 -3 2 -11t-9 -15q-184 -208 -196 -220q-10 -12 -3 -16q3 -2 8 1q189 125 364 238
q19 12 25.5 31t-2.5 25zM665 706h-464q-3 0 -8 -0.5t-18 -5t-23.5 -12t-20.5 -24.5t-12 -40v-717q0 -3 0.5 -9t5.5 -21t14 -26.5t29 -21t48 -9.5h629q3 0 8.5 1t19 6t24 13t20.5 24.5t11 39.5v572l-68 -60l1 -536l-689 -2l-3 772h434z" />
    <glyph glyph-name="uniE606" unicode="&#xe606;" 
d="M620 -171h-174q-54 0 -80 0.5t-68 2.5t-62 7.5t-43 14.5t-32 24.5t-9 35.5v17q0 120 86 205t208 85h174q121 0 207.5 -85t86.5 -205v-17q0 -15 -5.5 -27.5t-19 -21.5t-26.5 -15t-38 -10t-42.5 -6.5t-51 -3.5t-53.5 -1h-58zM445 186q-102 0 -178.5 -77.5t-76.5 -178.5v-17
q0 -24 80.5 -36t174.5 -12h176q86 0 171.5 11.5t85.5 34.5v18q0 101 -77.5 179t-179.5 78h-176zM524.5 239q-96.5 0 -165.5 67.5t-69 162.5t69 162.5t165.5 67.5t165 -67.5t68.5 -162.5t-68.5 -162.5t-165 -67.5zM327 472q0 -75 61 -134.5t137.5 -59.5t135.5 58t59 133
t-59.5 133t-136.5 58t-137 -56.5t-60 -131.5z" />
    <glyph glyph-name="uniE607" unicode="&#xe607;" 
d="M537 269l377 370q6 5 6 12t-5.5 12.5t-13 5.5t-12.5 -6l-377 -369l-377 369q-5 6 -12.5 6t-12.5 -5.5t-5.5 -12.5t5.5 -12l377 -370l-377 -370q-6 -5 -6 -12t5.5 -12t13 -5t12.5 5l377 370l377 -370q5 -5 12.5 -5t12.5 5t5.5 12t-5.5 12z" />
    <glyph glyph-name="uniE608" unicode="&#xe608;" 
d="M519 463q78 0 133.5 -56t55.5 -134q0 -53 -26 -97q-25 -43 -69 -68l-31 -19v-36v-140h-126v140v36l-31 19q-44 26 -69.5 70t-25.5 95q0 78 55.5 134t133.5 56zM545 736h-68v-126h68v126zM815 630l-76 -76l51 -47l76 76zM214 623l-50 -52l76 -76l50 52zM519 526
q-104 0 -178 -74.5t-74 -178.5q0 -69 34 -127.5t92 -92.5v-204h252v204q58 34 92 92t34 128q0 104 -74 178.5t-178 74.5zM959 315h-126v-68h126v68zM204 315h-126v-71h126v71z" />
    <glyph glyph-name="uniE609" unicode="&#xe609;" 
d="M789 659h-540q-29 0 -50 -19.5t-21 -47.5v-678q0 -28 21 -48.5t50 -20.5h540q29 0 50 20.5t21 48.5v678q0 28 -21 47.5t-50 19.5zM512 -127q-18 0 -30.5 12t-12.5 29t12.5 29t30.5 12t30 -12t12 -29t-12 -29t-30 -12zM809 -9h-580v620h580v-620v0z" />
    <glyph glyph-name="uniE60A" unicode="&#xe60a;" 
d="M821 595h-594q-22 0 -37 -16.5t-15 -40.5v-469q0 -23 15 -39.5t37 -16.5h245v-103h-80q-8 0 -13.5 -6t-5.5 -15t5.5 -15t13.5 -6h264q8 0 13.5 6t5.5 15t-5.5 15t-13.5 6h-80v103h245q21 0 36.5 16.5t15.5 39.5v469q0 24 -15.5 40.5t-36.5 16.5zM227 554h594q6 0 10 -4.5
t4 -11.5v-376h-622v376q0 7 4 11.5t10 4.5zM538 -90h-28v103h28v-103zM821 54h-594q-6 0 -10 4.5t-4 10.5v52h622v-52q0 -6 -4 -10.5t-10 -4.5z" />
    <glyph glyph-name="uniE60B" unicode="&#xe60b;" 
d="M504 432q18 0 28.5 11.5t10.5 29.5t-10.5 29.5t-28.5 11.5q-19 0 -33.5 -11.5t-14.5 -29.5t14.5 -29.5t33.5 -11.5zM283 514q-19 0 -33.5 -11.5t-14.5 -29.5t14.5 -29.5t33.5 -11.5q18 0 28.5 11.5t10.5 29.5t-10.5 29.5t-28.5 11.5zM976 170q0 97 -75.5 170t-182.5 81
q1 3 0 5q-21 104 -116.5 173t-216.5 69q-89 0 -165 -39.5t-120.5 -107t-44.5 -146.5q0 -133 124 -227l-28 -88q-3 -9 4 -16q4 -3 9 -3q4 0 7 1l106 55l13 -3q61 -12 95 -12q16 0 31 1q11 2 11 3q17 -65 96.5 -116.5t170.5 -51.5q33 0 93 15l81 -46q4 -2 7 -2q5 0 9 4
q8 6 5 15l-20 68q52 43 79.5 94.5t27.5 103.5zM414 116q-4 -1 -13.5 -3t-15.5 -2q-32 0 -89 13l-18 4q-5 1 -10 -2l-79 -41l21 64q3 11 -6 17q-114 82 -114 209q0 109 85.5 182t210.5 73q111 0 194.5 -56.5t103.5 -148.5q-115 -1 -194 -76t-79 -179q0 -26 7 -55l-1 1h-3z
M843 -6q-8 -7 -5 -16l13 -47l-56 31q-3 2 -6 2h-4q-47 -13 -91 -13q-106 0 -180.5 64t-74.5 155q0 92 75 157.5t180 65.5q103 0 176 -66t73 -157q0 -98 -100 -176zM607 277q-12 0 -22 -10.5t-10 -23t10 -22.5t22 -10q17 0 28 10t11 23t-11 23t-28 10zM780 277
q-11 0 -21 -10.5t-10 -23t10 -22.5t21 -10q17 0 28.5 10t11.5 23t-11.5 23t-28.5 10z" />
    <glyph glyph-name="uniE60C" unicode="&#xe60c;" 
d="M341 668l-35 -40l349 -376l-345 -385l35 -38l378 421z" />
    <glyph glyph-name="uniE60D" unicode="&#xe60d;" 
d="M932 372l-39 35l-380 -344l-380 349l-39 -35l417 -382z" />
    <glyph glyph-name="uniE60E" unicode="&#xe60e;" 
d="M510.5 8q-16.5 0 -28.5 -12t-12 -29t12 -29t28.5 -12t28.5 12t12 29t-12 29t-28.5 12zM710 655h-399q-25 0 -43 -18t-18 -44v-682q0 -26 18 -44t43 -18h399q25 0 43 18t18 44v682q0 26 -18 44t-43 18zM311 614h399q9 0 14.5 -6t5.5 -15v-511h-439v511q0 9 5.5 15t14.5 6z
M710 -110h-399q-9 0 -14.5 6t-5.5 15v126h439v-126q0 -9 -5.5 -15t-14.5 -6z" />
    <glyph glyph-name="uniE60F" unicode="&#xe60f;" 
d="M937 475q-36 86 -102 153q-66 66 -152 102q-86 35 -180 35q-93 0 -178.5 -35.5t-152.5 -101.5q-66 -66 -101 -152q-36 -87 -36 -179q0 -82 24 -151q25 -70 73 -123q10 -12 20 -18t18 -6q2 0 8 1q2 1 13 4q-62 78 -88 146q-27 69 -27 147q0 84 32 163q33 78 93 139
q61 60 139 93q79 32 164 32t163 -32q77 -32 138 -93q61 -60 93.5 -138.5t32.5 -163.5q0 -84 -32.5 -163t-93.5 -139q-60 -60 -139 -93t-162 -33q-104 0 -165 33q-62 33 -62 87q0 11 4 22t14 24q9 -9 17 -13q7 -5 13 -5q9 0 29 17q20 16 39 41q15 21 27 49q11 27 11 34
q0 4 -13 21q-14 15 -14 32q0 21 13 56q13 37 35 85q28 55 45 77t35 29q4 1 13 2q31 3 47 27q14 24 24.5 61t10.5 62q0 21 -6.5 28.5t-27.5 7.5q-33 0 -56.5 -4.5t-35.5 -13.5q-14 -11 -47 -52q-32 -41 -65 -93q-62 -97 -101 -205q-40 -108 -40 -163q0 -10 5 -22t17 -31
q-16 -21 -24 -41t-8 -40q0 -68 73 -111t192 -43q92 0 179 36t153 102t102 152.5t36 179.5t-36 178zM631 442q15 -3 22 -3q22 0 42 40t20 81q0 24 -12.5 37.5t-52.5 28.5q0 -51 -14 -95.5t-40 -77.5q23 -8 35 -11zM451 150q-11 -45 -37 -82t-65 -66q18 -12 32 -18
q15 -6 23 -6q29 0 62 43t33 76q0 12 -10 23q-9 11 -38 30z" />
    <glyph glyph-name="uniE610" unicode="&#xe610;" 
d="M696 425q0 13 -8.5 22t-21.5 9t-21.5 -9t-8.5 -22t8.5 -22t21.5 -9t21.5 9t8.5 22zM916 679q-111 120 -406 120q-67 0 -112.5 -3t-102 -12.5t-101 -32.5t-77.5 -59q-55 -61 -80.5 -170t-25.5 -222q0 -285 106 -393q106 -106 393 -106q65 0 111.5 3t102.5 13t101 32.5
t77 57.5q57 61 82 169t25 224q0 57 -3.5 103.5t-12.5 100t-28.5 98.5t-48.5 77zM830 84q0 -25 -17.5 -42.5t-41.5 -17.5h-515q-24 0 -41.5 17.5t-17.5 41.5v77v2v0v1l1 2v2t1 4v0l2 4l1 1l1 1l130 130q25 27 62 27t63 -27l54 -54l27 33l1 2q21 20 49.5 20t49.5 -20l106 -107
q6 -6 6 -14.5t-6 -14t-14 -5.5t-14 5l-106 107q-9 9 -21 9t-21 -8l-29 -36l63 -63q6 -6 6 -14.5t-5.5 -14t-14 -5.5t-14.5 6l-145 146q-15 15 -35 15t-35 -15l-123 -124v-72q0 -8 5.5 -13.5t13.5 -5.5h515q8 0 14 5.5t6 14.5v417q0 9 -6 14.5t-14 5.5h-515q-8 0 -13.5 -5.5
t-5.5 -14.5v-183q0 -9 -6 -14.5t-14 -5.5t-14 5.5t-6 14.5v183q0 25 17.5 42.5t41.5 17.5h515q25 0 42 -17.5t17 -41.5v-418zM593 412q0 29 20 49.5t49 20.5t49 -20.5t20 -49.5t-20 -49.5t-49 -20.5t-49 20.5t-20 49.5z" />
    <glyph glyph-name="uniE611" unicode="&#xe611;" 
d="M518 546zM518 37l-209 209v59l188 -188v429h42v-429l188 188v-59zM517.5 -169q-93.5 0 -178.5 36.5t-146.5 98.5t-98 147t-36.5 178.5t36.5 178.5t98 147t146.5 98.5t178.5 36.5t179 -36.5t147 -98.5t98 -147t36.5 -178.5t-36.5 -178.5t-98 -147t-147 -98.5t-179 -36.5z
M518 725q-88 0 -168.5 -34t-138.5 -92.5t-92.5 -138.5t-34.5 -168.5t34.5 -168.5t92.5 -138.5t138.5 -92.5t168.5 -34t168.5 34t138.5 92.5t92.5 138.5t34.5 168.5t-34.5 168.5t-92.5 138.5t-138.5 92.5t-168.5 34z" />
    <glyph glyph-name="uniE612" unicode="&#xe612;" 
d="M717 511l-169 235q-10 14 -26 14h-1h-1h-1q-16 0 -26 -14l-170 -236q-8 -11 -6 -25.5t13.5 -23t25 -6t22.5 13.5l143 199l142 -197q8 -12 21.5 -14.5t25 6t13.5 23t-6 25.5zM818 -155h1v1q13 10 13 26l-1 291q0 14 -10 24.5t-24.5 10.5t-24 -10t-9.5 -24l1 -244l-231 76
q-13 4 -25.5 -2t-17 -19.5t2.5 -26.5t20 -17l275 -91q16 -5 29 4h1v1zM1002 409v1v1v1q-6 15 -22 20l-277 89q-13 4 -26 -2.5t-17.5 -19.5t2 -25.5t19.5 -16.5l233 -75l-144 -196q-8 -11 -6 -25t13.5 -22t25.5 -6t23 14l171 233q10 14 5 29zM549.5 -25.5q-4.5 13.5 -17 19.5
t-25.5 1l-231 -75l1 244q0 14 -9.5 24t-24 10t-24.5 -10.5t-10 -24.5l-1 -291q0 -16 13 -26v-1h1v-1h1q13 -9 29 -4l275 91q13 4 20 17t2.5 26.5zM380 499q-4 13 -17 19.5t-26 2.5l-277 -89q-16 -5 -22 -20v-1v-1v0v-1q-5 -15 5 -29l171 -233q9 -12 23 -14t25.5 6t13.5 22
t-6 25l-144 196l233 75q13 4 19.5 16.5t1.5 25.5z" />
    <glyph glyph-name="uniE613" unicode="&#xe613;" 
d="M879 541h-133v-55h133q23 0 39.5 -16.5t16.5 -39.5v-430q0 -23 -16.5 -39t-39.5 -16h-722q-23 0 -39 16t-16 39v430q0 23 16 39.5t39 16.5h134v55h-134q-46 0 -78.5 -32.5t-32.5 -78.5v-430q0 -46 32.5 -78.5t78.5 -32.5h722q46 0 78.5 32.5t32.5 78.5v430
q0 46 -32.5 78.5t-78.5 32.5zM297 336l200 -200q8 -8 19 -8q12 0 20 8l200 200q9 8 9 19.5t-8.5 20t-20 8.5t-19.5 -8l-155 -155v472q0 11 -8 19.5t-19.5 8.5t-19.5 -8.5t-8 -19.5v-469l-151 152q-8 8 -19.5 8t-20 -8.5t-8.5 -20t9 -19.5z" />
    <glyph glyph-name="uniE614" unicode="&#xe614;" 
d="M964 682v2v1q-1 12 -10.5 20.5t-21.5 8.5h-294q-13 0 -22.5 -9.5t-9.5 -23t9.5 -23t22.5 -9.5h220l-473 -509q-9 -10 -8.5 -23.5t10.5 -23.5q9 -8 22 -8q14 0 24 10l466 503v-242q0 -14 9.5 -23.5t23 -9.5t23 9.5t9.5 23.5v326v0zM932 193q-14 0 -23.5 -9.5t-9.5 -23.5
v-2v-115q0 -19 -13.5 -32.5t-32.5 -13.5h-691q-19 0 -32.5 13.5t-13.5 32.5v560q0 19 13.5 32.5t32.5 13.5h282q13 1 22 10.5t9 22.5t-9 22.5t-22 9.5h-282q-46 0 -78.5 -32.5t-32.5 -78.5v-560q0 -46 32.5 -78.5t78.5 -32.5h691q46 0 78.5 32.5t32.5 78.5v40v75v2
q0 14 -9.5 23.5t-22.5 9.5z" />
    <glyph glyph-name="uniE615" unicode="&#xe615;" 
d="M530 613q-142 0 -273.5 -86t-203.5 -228q72 -141 203.5 -227.5t273.5 -86.5q140 0 259.5 85t193.5 229q-74 145 -193.5 229.5t-259.5 84.5zM530 35q-119 0 -230.5 73t-171.5 191q60 119 171.5 191.5t230.5 72.5q117 0 216.5 -71t160.5 -193q-61 -121 -160.5 -192.5
t-216.5 -71.5zM518 488q-78 0 -133.5 -55.5t-55.5 -133.5t55.5 -133t133.5 -55t133 55t55 133t-55 133.5t-133 55.5zM518 161q-58 0 -98.5 40.5t-40.5 98t40.5 98t98 40.5t98 -40.5t40.5 -98t-40.5 -98t-97.5 -40.5z" />
    <glyph glyph-name="uniE616" unicode="&#xe616;" 
d="M530 -15zM518 -107q-33 0 -59 19q-215 154 -303 256.5t-96 211.5v1v51v1q5 60 26.5 109.5t53.5 81t68.5 50t74.5 22.5q21 2 41 2q66 0 111 -22t83 -63q38 41 83 63t111 22q20 0 41 -2q38 -4 74.5 -22.5t68.5 -50t53.5 -81t26.5 -108.5v-2v-51v-1q-8 -109 -96 -211.5
t-303 -256.5q-27 -19 -59 -19zM133 384q8 -89 89 -179.5t280 -232.5q7 -5 16 -5t16 5q199 142 280 232.5t89 179.5v45q-8 87 -54 137.5t-103 56.5q-18 1 -34 1q-58 0 -92 -21t-74 -69l-28 -34l-28 34q-40 48 -74 69t-92 21q-17 0 -34 -1q-57 -6 -103.5 -56.5t-53.5 -137.5
v-45z" />
    <glyph glyph-name="uniE617" unicode="&#xe617;" 
d="M557 200l89 -89q9 -8 9 -19.5t-8.5 -20t-20 -8.5t-19.5 9l-205 205q-21 20 -49.5 20t-48.5 -20l-174 -174v-100q0 -12 8 -20t20 -8h724q12 0 20 8t8 20v585q0 12 -8 20t-20 8h-724q-12 0 -20 -8.5t-8 -19.5v-257q0 -12 -8 -20t-20 -8t-20 8t-8 20v257q0 35 24.5 59.5
t59.5 24.5h725q34 0 58.5 -24.5t24.5 -59.5v-585q0 -35 -24.5 -59.5t-58.5 -24.5h-725q-35 0 -59.5 24.5t-24.5 59.5v107v2q0 7 2 13q8 17 26 17q12 0 20 -8t8 -19.5t-8 -19.5t-20 -8t-20 8t-8 19q0 6 2 11t6 9l183 182q36 37 87.5 37t88.5 -37l77 -76l37 46l2 3
q29 29 70 29t69 -29l150 -150q8 -8 8 -19.5t-8 -20t-19.5 -8.5t-19.5 8l-150 150q-13 13 -30.5 13t-29.5 -13l2 2zM729 365q40 0 69 28.5t29 69t-29 69t-69 28.5t-69 -28.5t-29 -69t29 -69t69 -28.5zM729 421q-17 0 -29.5 12t-12.5 29.5t12.5 29.5t29.5 12t29.5 -12
t12.5 -29.5t-12.5 -29.5t-29.5 -12z" />
    <glyph glyph-name="uniE618" unicode="&#xe618;" 
d="M637 580l-480 -480v0v0l-77 -237l237 77v0v0l480 480zM267 74l-26 26l396 397l27 -26zM796 739l-105 -105l160 -160l105 105z" />
    <glyph glyph-name="uniE619" unicode="&#xe619;" 
d="M821 748h-104q-5 0 -8.5 -3.5t-3.5 -8.5v-11q-20 -20 -36 -20q-11 0 -26.5 17.5t-26.5 19.5q-34 6 -76 6q-101 0 -205 -43q-47 -20 -82 -54t-49 -62.5t-15 -47.5q-1 -30 10 -30q5 0 10 7q19 26 53 56.5t63 33.5q82 9 129 -34q26 -24 34.5 -53.5t8.5 -94.5l-14 -4
q-14 -4 -14 -18v-142q0 -85 -5.5 -186t-11.5 -159l-5 -59q0 -5 3.5 -8.5t8.5 -3.5h169q5 0 8.5 3.5t3.5 8.5q-21 214 -21 404l-1 142q0 14 -14 18l-16 4q0 50 0.5 66t3 35.5t9.5 31.5q9 17 28 31.5t31 18.5q9 3 22.5 -1t22.5 -12v-29q0 -5 3.5 -8.5t8.5 -3.5h104q5 0 9 3.5
t4 8.5v169q0 5 -4 8.5t-9 3.5z" />
    <glyph glyph-name="uniE61A" unicode="&#xe61a;" 
d="M956 275q0 -17 -12 -29.5t-30 -12.5q-16 0 -28 12l-375 375l-1 1l-375 -375q-12 -13 -29.5 -13t-29.5 12.5t-12 29.5q0 18 13 31l403 403q12 13 30 13h2h1h1h1q15 -2 26 -13l164 -165v39q0 17 12.5 29.5t29.5 12.5t29.5 -12.5t12.5 -29.5v-123l156 -156q11 -12 11 -29z
M872 206v-126v-56v-112q0 -17 -12 -29.5t-29 -12.5h-84v336h-167v-336h-391q-17 0 -29 12.5t-12 29.5v112v56v126l362 363zM440 206h-167v-168h167v168z" />
    <glyph glyph-name="uniE61B" unicode="&#xe61b;" 
d="M43 68l42 -38l408 370l409 -373l41 37l-448 409z" />
    <glyph glyph-name="uniE61C" unicode="&#xe61c;" 
d="M512.5 778q-97.5 0 -186.5 -38t-153 -102.5t-102 -153t-38 -186t38 -186.5t102 -153t153 -102t186.5 -38t186 38t152.5 102t102 153t38 186.5t-38 186t-102 153t-152.5 102.5t-186 38zM512 -126q-115 0 -213 57t-154.5 154.5t-56.5 213t56.5 213t154.5 154.5t213 57
t213 -57t154.5 -154.5t56.5 -213t-56.5 -213t-154.5 -154.5t-213 -57zM451 268h-153q-13 0 -22 -9t-9 -22v-153q0 -13 9 -22t22 -9h153q13 0 22 9t9 22v153q0 13 -9 22t-22 9zM451 84h-153v153h153v-153zM727 544h-153q-13 0 -22 -9t-9 -22v-153q0 -13 9 -22t22 -9h153
q13 0 22 9t9 22v153q0 13 -9 22t-22 9zM727 360h-153v153h153v-153zM727 268h-153q-13 0 -22 -9t-9 -22v-153q0 -13 9 -22t22 -9h153q13 0 22 9t9 22v153q0 13 -9 22t-22 9zM727 84h-153v153h153v-153zM451 544h-153q-13 0 -22 -9t-9 -22v-153q0 -13 9 -22t22 -9h153
q13 0 22 9t9 22v153q0 13 -9 22t-22 9zM451 360h-153v153h153v-153z" />
    <glyph glyph-name="uniE61D" unicode="&#xe61d;" 
d="M597 -169q-11 0 -20 6l-185 142q-12 9 -12 24v300q0 2 -2 3l-293 282l-4 4q-25 26 -25 60q0 36 26 61t63 25h729q37 0 63 -25t26 -61q0 -34 -24 -59l-3 -3l-305 -293q-1 -1 -1 -3v-432q0 -20 -19 -28q-6 -3 -14 -3zM445 18l120 -91v367q0 28 20 47l304 292q1 2 3 3
q6 7 6 16q0 10 -7 16.5t-17 6.5h-729q-10 0 -17 -6.5t-7 -16t7 -16.5q1 -1 4 -5l292 -281q21 -19 21 -47v-285z" />
    <glyph glyph-name="uniE61E" unicode="&#xe61e;" 
d="M877 756h-733q-37 0 -63.5 -25.5t-26.5 -61.5q0 -34 26 -60q1 -2 3 -4l296 -284q1 -1 1 -3v-302q0 -15 12 -24l187 -143q9 -6 20 -6q7 0 14 3q19 8 19 28v435q0 2 1 3l307 295l3 3q24 25 24 59q0 36 -26 61.5t-64 25.5z" />
    <glyph glyph-name="uniE61F" unicode="&#xe61f;" 
d="M971 403l-1 1v1v1q-6 15 -21 19l-258 83l-159 220q-9 13 -25 13h-1h-1q-16 0 -25 -13l-158 -219l-260 -84q-15 -4 -21 -19v-1v-1v-1q-5 -15 5 -28l160 -218l-1 -271q0 -16 12 -26h1v-1h1v-1q13 -8 28 -3l259 85l258 -85q15 -5 28 3v1h1l1 1q12 10 12 26l-1 271l160 218
q10 13 6 28z" />
    <glyph glyph-name="uniE620" unicode="&#xe620;" 
d="M683 -123l35 40l-349 376l345 385l-35 38l-378 -421z" />
    <glyph glyph-name="uniE621" unicode="&#xe621;" 
d="M40 591h944q16 0 28 12t12 28.5t-12 28.5t-28 12h-944q-16 0 -28 -12t-12 -28.5t12 -28.5t28 -12zM984 322h-944q-16 0 -28 -12t-12 -28.5t12 -28.5t28 -12h944q16 0 28 12t12 28.5t-12 28.5t-28 12zM984 -29h-944q-16 0 -28 -11.5t-12 -28.5t12 -28.5t28 -11.5h944
q16 0 28 11.5t12 28.5t-12 28.5t-28 11.5z" />
    <glyph glyph-name="uniE622" unicode="&#xe622;" 
d="M694 242l-188 -252q-11 -11 -26 -10q-15 -1 -25 10l-188 252q-10 10 -10 23.5t9.5 23.5t23.5 10t24 -10l133 -179v478q0 13 9.5 22.5t22.5 9.5t22.5 -9.5t9.5 -22.5v-481l136 182q9 10 23 10t24 -10t10 -23.5t-10 -23.5z" />
    <glyph glyph-name="uniE623" unicode="&#xe623;" 
d="M200 605h624q10 0 17 -7t7 -17t-7 -17t-17 -7h-624q-10 0 -17 7t-7 17t7 17t17 7zM200 317h624q10 0 17 -7t7 -17t-7 -17t-17 -7h-624q-10 0 -17 7t-7 17t7 17t17 7zM200 29h624q10 0 17 -7t7 -17t-7 -17t-17 -7h-624q-10 0 -17 7t-7 17t7 17t17 7z" />
    <glyph glyph-name="uniE624" unicode="&#xe624;" 
d="M473 310h21v21v179q0 83 -58.5 142t-142 59t-142 -58.5t-58.5 -141.5t58.5 -142t141.5 -59h180zM473 268h-179q-83 0 -142 -58.5t-59 -141.5t59 -142t142 -59t141.5 59t58.5 142v179v21h-21zM452 68q0 -66 -46.5 -112t-112 -46t-111.5 46t-46 111.5t46 112t112 46.5h158
v21l21 -21h-21v-158zM737 711q-83 0 -142 -58.5t-59 -141.5v-179v-21h21h179q84 -1 142.5 58t58.5 142t-58.5 141.5t-141.5 58.5zM736 353h-158v-21l-21 21h21v158q0 65 46.5 111.5t112 46.5t112 -46.5t46.5 -112t-46.5 -111.5t-112.5 -46zM937 68q0 83 -58.5 141.5
t-141.5 58.5h-179h-21v-21v-179q0 -83 58.5 -141.5t141.5 -58.5q47 0 89 20q7 4 10 12.5t-1 16t-12 10.5t-16 -1q-33 -16 -70 -16q-65 0 -111.5 46t-46.5 112v179l-21 -21h179q66 0 112 -46.5t46 -111.5q0 -23 -6 -45q-3 -8 1.5 -16t12.5 -10.5t16 1.5t10 13q8 30 8 57z" />
    <glyph glyph-name="uniE625" unicode="&#xe625;" 
d="M869 -4h1v-2q0 -27 11 -66.5t22 -57.5q1 -3 1 -7q0 -8 -5.5 -14t-13.5 -6q-1 0 -3 0.5t-3 0.5q-45 7 -96.5 45t-72.5 62q-18 -3 -39 -3q-2 0 -8 0.5t-10 0.5q-93 0 -168 31.5t-123 88.5l91 1h-1q79 -61 201 -61q35 0 48 2l33 5q2 -4 7.5 -11t26.5 -28t48 -41q-2 9 -4 34
t-3 43.5t-1 20.5l31 15q104 52 104 150q0 42 -15 71t-53 55q13 38 15 66q116 -66 116 -192q0 -135 -137 -203zM421 133h-12h-10q-24 0 -45 3q-19 -23 -90.5 -68t-123.5 -53h-1h-3h-3q-9 0 -16 6.5t-7 15.5q0 5 2 9q53 89 53 131v1v1q-77 38 -118 111t-41 155q0 81 54.5 149
t148.5 107.5t205 39.5t204 -39.5t146.5 -107.5t53.5 -149q1 -92 -51 -163.5t-143 -110t-203 -38.5zM414 680q-94 0 -173.5 -31.5t-126 -85.5t-46.5 -118t32 -122.5t94 -89.5l34 -17l-3 -37q1 -19 -21 -77q25 14 51 34.5t34 29.5l40 32l35 -2q13 -2 27.5 -2.5t22.5 -0.5h9
q143 0 237.5 71.5t95.5 180.5q0 64 -45.5 118t-124 85.5t-172.5 31.5z" />
    <glyph glyph-name="uniE626" unicode="&#xe626;" 
d="M509.5 797q-102.5 0 -195.5 -39.5t-160.5 -107t-107 -160.5t-39.5 -195.5t39.5 -195.5t107 -160.5t160.5 -107.5t195.5 -40t195.5 40t160.5 107.5t107.5 160.5t40 195.5t-40 195.5t-107.5 160.5t-160.5 107t-195.5 39.5zM509.5 -155q-91.5 0 -174.5 35.5t-143 96
t-95.5 143.5t-35.5 174.5t35.5 174.5t95.5 143t143 95.5t174.5 35.5t174.5 -35.5t143 -95.5t96 -143t36 -174.5t-36 -174.5t-96 -143.5t-143 -96t-174.5 -35.5zM560 294l127 127q10 10 10 25t-10.5 25.5t-25 10.5t-25.5 -11l-126 -126l-127 126q-10 11 -25 11t-25.5 -10.5
t-10.5 -25.5t11 -25l126 -127l-126 -126q-11 -11 -11 -25.5t10.5 -25t25.5 -10.5t25 10l127 127l126 -127q11 -10 25.5 -10t25 10.5t10.5 25t-10 25.5z" />
    <glyph glyph-name="uniE627" unicode="&#xe627;" 
d="M691 453q14 0 34 -2q-23 107 -124.5 177.5t-231.5 70.5q-95 0 -176 -39.5t-128.5 -109t-47.5 -152.5q0 -139 141 -238l-35 -107l123 62q90 -17 123 -17q16 0 33 1q-11 37 -11 74q0 116 87.5 198t212.5 82zM501 549q20 0 32 -12.5t12 -32t-12 -32t-32 -12.5t-36 12.5
t-16 32t16 32t36 12.5zM255 460q-21 0 -37 12.5t-16 32t16 32t37 12.5q20 0 32 -12t12 -32t-12 -32.5t-32 -12.5zM1012 177q0 69 -41.5 128.5t-110.5 94t-147 34.5q-125 0 -212 -75t-87 -182q0 -106 87 -181t212 -75q36 0 106 17l96 -53l-26 89q123 93 123 203zM616 222
q-13 0 -24 11t-11 24t11 24t24 11q19 0 31.5 -10.5t12.5 -24.5t-12.5 -24.5t-31.5 -10.5zM809 222q-13 0 -24 11t-11 24t11 24t24 11q20 0 32.5 -10.5t12.5 -24.5t-12.5 -24.5t-32.5 -10.5z" />
    <glyph glyph-name="uniE628" unicode="&#xe628;" 
d="M327 288q0 36 13.5 69.5t39 59t59 39t69.5 13.5t69.5 -13.5t59 -39t39.5 -59t14 -69.5t-14 -69t-39.5 -58.5t-59 -39.5t-69.5 -14t-69.5 14t-59 39.5t-39 58.5t-13.5 69zM909 325q-12 146 -117 249t-251 113v103h-69v-104q-143 -13 -243.5 -115.5t-113.5 -245.5h-102v-69
h102q13 -143 113.5 -245t243.5 -116v-105h69v103q146 10 251 113.5t117 249.5h103v69h-103zM512 -35q-88 0 -163 43.5t-118.5 118.5t-43.5 162.5t43.5 162.5t118.5 118.5t163 43.5q89 0 164 -43.5t118 -118.5t43 -162.5t-43 -162.5t-118 -118.5t-164 -43.5z" />
    <glyph glyph-name="uniE629" unicode="&#xe629;" 
d="M513.5 794q-100.5 0 -192 -39t-158 -105t-105.5 -157.5t-39 -192.5t39 -192.5t105.5 -157.5t158 -105t192 -39t192 39t157.5 105t105 157.5t39 192.5t-39 192.5t-105 157.5t-157.5 105t-192 39zM513.5 -161q-93.5 0 -179 36.5t-147.5 98.5t-98.5 147t-36.5 179t36.5 179
t98.5 147t147.5 98.5t179 36.5t179 -36.5t147 -98.5t98 -147t36.5 -179t-36.5 -179t-98 -147t-147 -98.5t-179 -36.5zM703 512l-190 -189l-189 189l-23 -23l190 -189l-190 -189l23 -23l189 189l190 -189l22 23l-189 189l189 189z" />
    <glyph glyph-name="uniE62A" unicode="&#xe62a;" 
d="M209 292q-8 8 -8 19.5t8 19.5t19.5 8.5t19.5 -7.5l187 -182l352 347q8 8 19.5 8t20 -8t8 -20t-8.5 -20l-371 -366q-8 -8 -19.5 -8t-19.5 8zM518 791q101 0 191.5 -38.5t159 -107.5t107 -159.5t38.5 -191.5t-38.5 -191.5t-107 -159t-159 -107t-191.5 -38.5t-191.5 38.5
t-159.5 107t-107.5 159t-38.5 191.5t38.5 192t107 159.5t159.5 107t192 38.5zM834 610q-62 62 -143.5 96.5t-172.5 34.5t-172.5 -34.5t-143.5 -96.5t-96.5 -143.5t-34.5 -172.5t34.5 -172.5t96.5 -143.5t143.5 -96.5t172.5 -34.5t172.5 34.5t143.5 96.5t96.5 143.5
t34.5 172.5t-34.5 172.5t-96.5 143.5z" />
    <glyph glyph-name="uniE62B" unicode="&#xe62b;" 
d="M614 95v77q61 35 94.5 90.5t33.5 114.5v25q26 26 26 77t-26 77v26q0 32 -14.5 71t-42 75t-73.5 60t-100 24q-44 0 -82.5 -16t-65 -41.5t-45.5 -56.5t-28 -61t-9 -55v-26q-26 -26 -26 -77t26 -77v-25q0 -60 33.5 -115t94.5 -90v-77q-74 0 -140.5 -20t-114.5 -52.5t-84 -73
t-53.5 -82t-17.5 -79.5h1024q0 38 -15 79.5t-48.5 82t-80 73t-116 52.5t-150.5 20zM76 -138q25 46 69 85q24 20 51 37q29 17 61 30q71 27 153 27q22 0 38 16t16 38v77q0 32 -27 47q-25 14 -44 33q-19 18 -32 39q-25 41 -25 86v25q0 22 -15 38q-10 14 -10 39q0 20 4 30
q1 5 5 8q16 16 16 39v26q0 22 11 51q13 33 35 60q24 30 55 46q16 9 34 13q20 5 41 5t41 -5q18 -4 34 -13q31 -16 55 -45q23 -28 35 -61q11 -28 11 -51v-26q0 -23 16 -39q4 -4 6 -8q3 -9 3 -29.5t-3 -30.5q-2 -4 -6 -8q-16 -16 -16 -39v-25q0 -21 -6 -42q-7 -22 -19 -43
q-27 -45 -76 -73q-27 -15 -27 -47v-77q0 -22 16 -38t38 -16q91 0 164 -28q64 -23 110 -65q21 -19 37 -41q15 -20 25 -42q5 -11 9 -22h-892q4 9 9 19z" />
    <glyph glyph-name="uniE62C" unicode="&#xe62c;" 
d="M842 277q-9 92 -73.5 163t-160.5 96q28 31 28 70q0 37 -26 66t-67 38v4v44h184q13 0 22.5 8t9.5 19t-9.5 19t-22.5 8h-315q-78 0 -133.5 -48t-55.5 -115v-41q0 -11 9.5 -19t22.5 -8t22 8t9 19v41q0 45 37 77t89 32h68v-44v-4q-42 -8 -70 -38t-28 -68q0 -40 30 -70
q-94 -27 -157 -97.5t-73 -160.5q-1 -6 -1 -17v-341q0 -54 33 -92t80 -38h433q47 0 80 38t33 92v343q5 7 2 16zM511.5 660q25.5 0 44 -16t18.5 -38.5t-18.5 -38.5t-44 -16t-44 16t-18.5 38.5t18.5 38.5t44 16zM781 -80q0 -32 -16 -54t-35 -22h-433q-18 0 -34 22t-16 54v341v8
v1v1q11 96 86.5 159.5t179.5 63.5t180.5 -63.5t85.5 -159.5v-1v-1v-8v-341h2zM387 224h158q13 0 22 8t9 19t-9 19t-22 8h-158q-13 0 -22 -8t-9 -19t9 -19t22 -8zM639 142h-252q-13 0 -22 -7.5t-9 -19t9 -19.5t22 -8h252q13 0 22 8t9 19.5t-9 19t-22 7.5zM639 7h-252
q-13 0 -22 -8t-9 -19.5t9 -19.5t22 -8h252q13 0 22 8t9 19.5t-9 19.5t-22 8z" />
    <glyph glyph-name="uniE62D" unicode="&#xe62d;" 
d="M367 136h42v1h122q52 0 88.5 37t36.5 89v119h-42v-124q0 -33 -23 -56t-56 -23h-125h-44h-245q-32 0 -55 23t-23 56v433q0 33 23 56t55 23h414q33 0 56 -23t23 -56v-186h42v181q0 52 -36.5 89t-88.5 37h-405q-52 0 -89 -37t-37 -89v-423q0 -53 37 -89.5t89 -36.5h241v-1z
M897 463h-405q-52 0 -88.5 -36.5t-36.5 -89.5v-117h42v122q0 33 23 56t56 23h414q33 0 56 -23t23 -56v-433q0 -33 -23.5 -56t-55.5 -23h-414q-33 0 -56 23t-23 56v185h-42v-180q0 -52 36.5 -89t88.5 -37h405q53 0 89.5 37t36.5 89v423q0 53 -36.5 89.5t-89.5 36.5z" />
    <glyph glyph-name="uniE62E" unicode="&#xe62e;" 
d="M1023 341q0 38 -23.5 66t-59.5 35l-204 235q1 6 1 12q0 43 -30 73t-73 30q-51 0 -81 -41l-190 -18q-10 34 -38 55.5t-64 23.5h-10q-45 -2 -76.5 -34.5t-31.5 -77.5v-103q-64 -39 -103.5 -110.5t-39.5 -147.5q0 -8 5 -14q4 -4 10.5 -9.5t26.5 -16t46 -19t70.5 -14.5
t97.5 -6t98 6t70.5 14.5t45.5 19.5t26.5 16.5t10.5 9.5q5 5 5 13q0 76 -40 147.5t-104 110.5v14l185 16q31 -40 81 -40q9 0 17 1l177 -205q-9 -20 -9 -42q0 -27 13 -51l-221 -337h-143q-41 0 -70.5 -30t-29.5 -73v-41q0 -8 6 -14t15 -6h552q9 0 15 6t6 14v41q0 43 -29 73
t-71 30h-105l189 289q34 9 55.5 36.5t21.5 62.5zM184 700q0 28 20 48.5t49 22.5h2h4q26 -1 45 -18.5t23 -43.5v-1v-8v-71v-39q-71 -7 -143 0v110zM471 348q-13 -10 -32 -18.5t-69.5 -19t-114 -10.5t-113.5 10.5t-69.5 19t-31.5 18.5q2 59 32.5 115t77.5 90q48 -7 105 -7
t105 7q47 -34 77 -90t33 -115zM368 652v41l166 15q-2 -9 -2 -19q0 -11 3 -22zM634 628q-35 0 -53 30v2q-8 13 -8 29q0 17 9 31v1q18 30 52 30q26 0 44 -18t18 -44q0 -6 -1 -12q-1 -1 -1 -2q-5 -21 -21.5 -34t-38.5 -13zM691 604q18 12 29 29l169 -195q-21 -6 -37 -21z
M862 -88q25 0 42 -18t17 -44v-20h-512v20q0 26 17.5 44t41.5 18h154h97h1h142zM708 -47h-48l201 306q16 -12 36 -17zM930 281q-4 -1 -9 -1q-25 0 -43 18t-18 43.5t18 43.5t43 18h5q1 -1 2 -1q23 -2 38.5 -19.5t15.5 -41.5q0 -22 -14.5 -39.5t-37.5 -20.5v0z" />
    <glyph glyph-name="uniE62F" unicode="&#xe62f;" 
d="M960 -28h-518q-15 0 -28.5 -13.5t-13.5 -28.5q0 -14 12.5 -21t29.5 -7h518q17 0 30 7t13 21q0 15 -13.5 28.5t-29.5 13.5zM960 322h-518q-15 0 -28.5 -13.5t-13.5 -28.5q0 -14 12.5 -21t29.5 -7h518q17 0 30 7t13 21q0 15 -13.5 28.5t-29.5 13.5zM442 602h518q17 0 30 7
t13 21q0 15 -13.5 28.5t-29.5 13.5h-518q-15 0 -28.5 -13.5t-13.5 -28.5q0 -14 12.5 -21t29.5 -7zM274 420h-210q-17 0 -29.5 -7t-12.5 -21v-210q0 -14 12.5 -21t29.5 -7h210q17 0 29.5 7t12.5 21v210q0 14 -12.5 21t-29.5 7zM260 210h-182v154h182v-154zM274 70h-210
q-17 0 -29.5 -7t-12.5 -21v-211q0 -15 13.5 -28.5t28.5 -13.5h218q15 0 24.5 13t9.5 29v211q0 14 -12.5 21t-29.5 7zM246 -155h-168v169h182v-169h-14zM360 806q-12 8 -23.5 5.5t-20.5 -13.5l-168 -210l-64 64q-9 10 -24 11t-26 -7q-11 -9 -12 -24q-2 -14 8 -25l85 -94
q10 -12 27 -12t28 13l188 242q1 2 5 6t6 7t4 6.5t1 7.5q-2 14 -14 23z" />
    <glyph glyph-name="uniE630" unicode="&#xe630;" 
d="M880 -212h-711q-25 0 -45.5 14.5t-20.5 50.5v130l-44 -2q-16 0 -27 7.5t-11 19.5q0 13 12 19.5t29 6.5h41v143h-41q-16 0 -27.5 7t-11.5 20q0 12 11.5 18.5t27.5 6.5h41v142h-41q-16 0 -27 6.5t-11 18.5t11 19.5t27 7.5h41v143h-41q-17 0 -29 6.5t-12 19.5q0 12 10 19.5
t25 7.5l47 -2v130q0 28 16 46.5t52 18.5h737q49 0 72 -13.5t23 -51.5v-863q0 -40 -31.5 -68t-77.5 -28h-14zM171 760l-7 -6l-7 -7v-130l47 2q15 0 25 -7.5t10 -19.5q0 -13 -12.5 -19.5t-28.5 -6.5h-41v-143h55q31 0 31 -27q0 -25 -31 -25h-55v-142h55q30 0 30 -25
q0 -27 -30 -27h-55v-143h55q27 0 27 -26q0 -12 -9 -19.5t-24 -7.5l-49 2v-143h14h587v920h-587zM949 747q-14 10 -19 12t-22 1h-96v-920h82q16 0 35.5 13t19.5 26v855v13z" />
    <glyph glyph-name="uniE631" unicode="&#xe631;" 
d="M781 -104h-538q-11 0 -19 8t-8 19t8 19t19 8h538q11 0 19 -8t8 -19t-8 -19t-19 -8zM888 704q-11 0 -19 -8t-8 -19v-808q0 -11 -7.5 -19t-19.5 -8h-591q-33 0 -56.5 23.5t-23.5 57t23.5 57.5t56.5 24h484q33 0 57 23.5t24 56.5v647q0 34 -24 57.5t-57 23.5h-537
q-34 0 -57.5 -23.5t-23.5 -57.5v-808q0 -56 39.5 -95.5t94.5 -39.5h591q34 0 57.5 23.5t23.5 57.5v808q0 11 -8 19t-19 8zM190 758h537q11 0 19 -8t8 -19v-647q0 -11 -8 -18.5t-19 -7.5h-484q-44 0 -80 -28v701q0 11 7.5 19t19.5 8z" />
    <glyph glyph-name="uniE632" unicode="&#xe632;" horiz-adv-x="1027" 
d="M993 482q-4 8 -13 31t-17 35q-39 74 -104 134q-11 7 -31.5 23.5t-31.5 23.5q-9 5 -62 34q-70 28 -95 34q-6 0 -18 3.5t-19 3.5l-54 7q-25 2 -86 -2q-74 -5 -176 -50q-74 -37 -135.5 -97.5t-97.5 -134.5q-57 -119 -53 -242q0 -4 1.5 -17t0.5 -19q3 -9 5 -27.5t4 -27.5
q23 -106 88 -196t161 -143q10 -8 21.5 -13.5t31.5 -13t24 -9.5q69 -26 150 -30t154 15q104 24 193 94.5t136 168.5q3 2 2 3q47 95 53 202.5t-32 209.5zM402 582q31 26 60 19q27 -6 42 -33q7 -13 7.5 -29t-7.5 -30t-22.5 -23.5t-29.5 -9.5q-47 2 -60 37q-18 32 10 69zM959 97
q-31 -71 -90.5 -134t-128.5 -96q-55 -29 -91 -35q-7 0 -20.5 -1.5t-20.5 -1.5l-37 3q-3 1 -7.5 3t-9 3t-7.5 0q-60 10 -114 60q-44 46 -60 108t1 121q19 61 67 104q94 67 112 82q32 23 47 34.5t36.5 35t30.5 47.5q5 7 9 14.5t7 18.5t4 16t3.5 20t2.5 17q7 69 -24.5 132.5
t-92.5 98.5q-9 7 -27 14.5t-25 11.5q-6 1 -25 6t-29 5q-1 1 -0.5 1.5t-0.5 0.5q64 10 149 -8q96 -20 180 -79.5t134 -143.5l19 -34q50 -94 52 -211.5t-44 -212.5zM651 77q6 -18 1.5 -37.5t-18.5 -33.5q-36 -26 -64 -16q-31 11 -44 36q-12 26 3 56q5 11 16.5 19t19 11.5
t23.5 9.5q20 0 37 -13t26 -32z" />
    <glyph glyph-name="uniE633" unicode="&#xe633;" 
d="M1024 137q0 -50 -7.5 -91t-18.5 -66.5t-24 -43t-24 -25t-19 -7.5q0 -34 -22 -63t-71 -30q-20 0 -37 7t-27 17t-17 21t-9.5 17.5t-2.5 7.5h-256q-15 0 -20.5 12t0.5 23.5t20 11.5q20 -1 302 0v-8q0 -5 2.5 -17t6.5 -21t14 -16.5t24 -7.5q17 0 27.5 10.5t13.5 23t4 24
t1 12.5q28 0 50 37.5t32.5 84.5t10.5 87q0 17 -2 43.5t-8 68t-21.5 70t-37.5 28.5q-19 0 -34 -14.5t-25 -37.5t-16.5 -43.5t-11.5 -42.5t-6 -25q-9 3 -31.5 11t-31 10.5t-29 8t-37 7.5t-43 4.5t-58.5 3.5t-73 1q-85 0 -161.5 -13t-108.5 -23.5t-33 -9.5q0 7 -5 28.5
t-15.5 54t-30 56.5t-42.5 24q-18 0 -32 -19t-21 -43.5t-11 -58t-4.5 -52.5t-0.5 -37q0 -50 5.5 -87.5t13.5 -58t22 -34.5t24.5 -19.5t27.5 -9.5v-20q0 -5 2 -18t6.5 -17.5t14 -9.5t23.5 -5q12 0 20.5 3t13 6t7.5 9.5t4 9.5t1 10l1 8q0 16 11.5 20.5t22.5 -2t11 -18t-4 -25
t-13 -30t-28.5 -27.5t-46.5 -11t-47 10t-29 26t-13 30t-4 27q-14 0 -29 11.5t-30 35.5t-24.5 72.5t-9.5 113.5q0 42 4 79.5t13.5 75t29 63.5t46.5 34q0 57 2.5 98.5t10 82.5t21 69.5t35.5 54.5t53 42.5t73.5 29t98 18t125.5 5.5q92 0 156.5 -8.5t112 -29t76 -48.5t45 -76
t22.5 -102.5t6 -134.5q94 -28 94 -253zM512 742q-62 0 -111 -5t-86.5 -16.5t-65 -26.5t-46.5 -38.5t-31.5 -48.5t-19 -61t-9 -71.5t-2.5 -84.5q18 -4 32.5 -16.5t23.5 -27t16.5 -34t10.5 -33t6 -27.5l3 -14q11 8 37.5 16t91 15.5t150.5 7.5q98 0 158 -6.5t78 -13t43 -19.5
q-1 4 3 24.5t13.5 47t29 50.5t44.5 30q0 49 -2 85t-8.5 72t-18.5 61t-31 48.5t-46.5 38.5t-65 26t-86.5 16t-111 5z" />
    <glyph glyph-name="uniE634" unicode="&#xe634;" 
d="M769 739l-1 1q-12 7 -24.5 3.5t-19.5 -14.5l-17 -30q-7 -11 -3.5 -24t15.5 -19l2 -2q11 -6 23.5 -2.5t19.5 14.5l17 30q7 11 3.5 24t-15.5 19zM284 693l-18 31q-6 11 -18.5 14.5t-23.5 -3.5l-3 -1q-11 -7 -14.5 -19.5t3.5 -23.5l18 -31q6 -11 18.5 -14t23.5 3l3 2
q11 6 14.5 18.5t-3.5 23.5zM622 -147h-218q-12 0 -21.5 -7t-11.5 -19q-3 -15 6.5 -26t24.5 -11h219q24 0 31 21q5 16 -4.5 29t-25.5 13zM514 812h-4q-13 0 -22 -9t-9 -22v-35q0 -13 9 -22t22 -9h4q13 0 22 9t9 22v35q0 13 -9 22t-22 9zM52 483l31 -17q11 -7 23.5 -3.5
t19.5 14.5l1 2q7 11 3.5 24t-14.5 19l-31 18q-12 6 -24.5 2.5t-18.5 -14.5l-1 -2q-7 -11 -3.5 -23.5t14.5 -19.5zM489 654q-136 -9 -233 -106.5t-105 -232.5q-6 -108 46 -199t142 -140v-13v-16q0 -19 14 -33t33 -14h16h220h16q19 0 33 14t14 33v16v13q86 46 137.5 131
t51.5 186q0 102 -52 187.5t-141 133t-192 40.5zM649 19l-24 -11v-54h-226v53l-23 12q-86 43 -133.5 128.5t-34.5 185.5q13 104 89 179t180 87q91 10 170 -29t125.5 -113t46.5 -163t-46.5 -163t-123.5 -112zM939 540l-30 -18q-12 -6 -15.5 -19t3.5 -24l1 -2q7 -11 19.5 -14.5
t23.5 3.5l31 17q11 7 14.5 19.5t-3.5 24.5l-1 1q-6 11 -18.5 14.5t-24.5 -2.5zM693 382q-1 -3 1 -7v-1q1 -4 4 -8q2 -5 6 -12t5 -6q6 -8 16 -8q9 0 16 7t7 17q0 1 -5 18q-1 3 -4.5 8t-7 8.5t-3.5 2.5q-6 5 -11 5q-9 0 -16 -7t-8 -17zM703 437q1 12 -6 20q-59 69 -156 88v-1
l-5 1q-10 0 -17 -7t-7 -17q0 -14 14 -20q82 -15 133 -75l3 -3q3 -3 8 -6.5t9 -3.5q9 0 16 7t8 17z" />
    <glyph glyph-name="uniE635" unicode="&#xe635;" 
d="M164 801v-189h-164v-313v-311q0 -78 54 -133.5t130 -55.5h655q76 0 130 55.5t54 133.5v52v259v313v189h-859zM60 255v297h104v-487q0 -116 -60 -143q-44 51 -44 118v215zM223 738h739v-483v-215q0 -74 -51 -126t-123 -52h-554q-27 0 -54 9q43 39 43 169v59v639zM306 612
h555v-78h-555v78zM306 441h206v-53h-206v53zM573 441h288v-367h-288v367zM306 336h206v-53h-206v53zM306 232h206v-52h-206v52zM306 126h206v-52h-206v52z" />
    <glyph glyph-name="uniE636" unicode="&#xe636;" 
d="M834 812h-644q-52 0 -89.5 -37.5t-37.5 -89.5v-768q0 -53 37.5 -90t89.5 -37h644q52 0 89.5 37t37.5 90v768q0 52 -37.5 89.5t-89.5 37.5zM897 -82q0 -27 -18.5 -46t-45.5 -19h-642q-27 0 -45.5 19t-18.5 46v766q0 26 18.5 45t45.5 19h387v-319l96 64l95 -64v319h64
q27 0 45.5 -19t18.5 -45v-766z" />
    <glyph glyph-name="uniE637" unicode="&#xe637;" horiz-adv-x="1026" 
d="M989 495l-587 -587l-18 18l18 -18l-402 -110l16 50l101 336l22 -13l-22 13l591 592q37 36 88 36t88 -36l105 -105q36 -37 36 -88t-36 -88zM73 -136l298 84l31 31l-210 210l-31 -31zM227 224l210 -210l412 411l-211 210zM944 646l-85 84q-36 37 -63 37t-63 -37l-60 -60
l211 -210l60 60q36 36 36 62.5t-36 63.5zM368 724q-36 37 -63 37t-63 -37l-200 -200l-35 35l210 211q37 36 88 36t88 -36l116 -116l-36 -35zM130 507l70 70l35 -35l-70 -70l-4 4l39 -39l105 105l35 -35l-105 -105l11 -11l-36 -35l-168 168l35 35zM621 16l105 -105l52 -53
l165 165q37 37 37 63.5t-37 62.5l-110 111l35 35l121 -121q36 -37 36 -88t-36 -88l-176 -175l-35 -35l-35 35l-173 174l35 35zM761 86l-105 -105l-35 35l105 105zM778 33l35 -35l-87 -87l-35 35z" />
    <glyph glyph-name="uniE638" unicode="&#xe638;" 
d="M963 812h-905q-24 0 -41 -17t-17 -41v-940q0 -10 7 -16.5t17 -6.5q9 0 16.5 7t7.5 17v65q3 -1 11 -1h905q7 0 12 1v-65q0 -10 7 -17t17 -7q9 0 16 7t7 17v122v817q-1 24 -18.5 41t-41.5 17zM975 -63q0 -4 -3.5 -7.5t-8.5 -3.5h-905q-5 0 -8 3t-3 8v233h928v-233zM975 216
h-712v112q0 4 -3.5 7.5t-7.5 3.5q-5 0 -8 -3.5t-3 -7.5v-112h-71v50q0 5 -3.5 8.5t-7.5 3.5q-5 0 -8.5 -3.5t-3.5 -8.5v-50h-100v260h928v-260zM975 523h-74v111q0 5 -3.5 8t-7.5 3q-5 0 -8.5 -3.5t-3.5 -7.5v-111h-81v64q0 5 -3.5 8.5t-8.5 3.5t-8 -3.5t-3 -8.5v-64h-726
v231q0 5 3 8t8 3h905q5 0 8.5 -3t3.5 -8v-231h-1zM548 669h-75q-9 0 -16.5 -7t-7.5 -17q0 -9 7 -16.5t17 -7.5h75q10 0 17 7t7 17t-7 17t-17 7zM473 322h75q10 0 17 7t7 17t-7 16.5t-17 6.5h-75q-9 0 -16.5 -6.5t-7.5 -16.5t7.5 -17t16.5 -7zM473 29h75q10 0 17 7t7 17
t-7 17t-17 7h-75q-9 0 -16.5 -7t-7.5 -17t7.5 -17t16.5 -7z" />
    <glyph glyph-name="uniE639" unicode="&#xe639;" horiz-adv-x="1025" 
d="M512 812l-473 -282l-39 -23l33 -20l479 -285l512 305zM75 511l437 256l437 -260l-437 -263zM882 383l-370 -222l-377 228l-135 -89l512 -305l512 305zM78 303l58 43l376 -230l371 225l63 -39l-434 -262zM882 176l-370 -222l-377 228l-135 -89l512 -305l512 305zM78 97
l58 42l376 -230l371 225l63 -39l-434 -262z" />
    <glyph glyph-name="uniE63A" unicode="&#xe63a;" 
d="M883 812h-740q-59 0 -101 -42t-42 -101v-583q0 -58 42 -99.5t101 -41.5h198l147 -146q11 -11 25 -11q15 0 25.5 10.5t10.5 25t-11 25.5l-157 157q-11 11 -25 11h-213q-30 0 -50.5 20t-20.5 49v583q0 30 21 51.5t50 21.5h740q29 0 49 -21.5t20 -51.5v-583q0 -29 -20 -49
t-49 -20h-292q-14 0 -24.5 -10.5t-10.5 -25.5t10.5 -25.5t24.5 -10.5h292q59 0 100 41.5t41 99.5v583q0 59 -41 101t-100 42zM251 247q78 -105 262 -105q183 0 262 105q65 86 49 223q18 18 18 44t-18.5 45t-45 19t-45.5 -19t-19 -45q0 -20 11 -36.5t29 -23.5
q10 -103 -36 -164q-58 -77 -205 -77q-148 0 -205 76q-45 61 -32 166q18 7 28.5 23t10.5 36q0 26 -18.5 45t-45 19t-45.5 -19t-19 -45.5t19 -44.5q-19 -136 45 -222z" />
    <glyph glyph-name="uniE63B" unicode="&#xe63b;" 
d="M933 785h-842q-38 0 -64.5 -27t-26.5 -65v-589q0 -38 26.5 -65t64.5 -27h391v-136h-225q-13 0 -21.5 -9t-8.5 -21.5t8.5 -21.5t21.5 -9h510q13 0 21.5 9t8.5 21.5t-8.5 21.5t-21.5 9h-225v136h391q38 0 64.5 27t26.5 65v589q0 38 -26.5 65t-64.5 27zM963 104
q0 -13 -8.5 -22.5t-21.5 -9.5h-842q-13 0 -21.5 9.5t-8.5 22.5v589q0 13 8.5 22t21.5 9h842q13 0 21.5 -9t8.5 -22v-589z" />
    <glyph glyph-name="uniE63C" unicode="&#xe63c;" 
d="M995 346q-2 35 -9 98q-5 49 -6 69q-8 114 20 211q4 12 0 24.5t-13 17.5q-10 6 -19 -1q-14 -9 -34 -17q-54 -21 -131 -21q-41 0 -91.5 21.5t-103 42.5t-96.5 21q-43 0 -90.5 -16.5t-96.5 -37.5t-87 -27q-75 -11 -148 17q-20 8 -34 17q-8 6 -17.5 2t-13.5 -16
q-5 -13 -1 -27q28 -97 20 -211q-1 -22 -6 -69q-7 -66 -9 -98q-12 -5 -20.5 -19.5t-8.5 -33.5v-345q0 -22 11.5 -38t27.5 -16h55v-73q0 -14 7 -23.5t17 -9.5h88q10 0 17 9.5t7 23.5v73h564v-73q0 -14 7 -23.5t17 -9.5h88q10 0 17 9.5t7 23.5v73h55q16 0 27.5 16t11.5 38v345
q0 19 -8 33.5t-21 19.5zM182 -146h-41v40h41v-40zM883 -146h-41v40h41v-40zM981 -47h-929v332h929v-332zM456 419v-62q0 -2 -1 -4l-1 -1q-1 -1 -2 -1h-288q-2 0 -3 2v0q-1 2 -1 4v62q0 3 1 5l1 1q1 1 2 1h288q2 0 2 -2h1h-1q2 -2 2 -5zM869 426v-68q0 -2 -1 -5v-1l-2 -1
h-293q-2 0 -2 2q-1 2 -1 5v68q0 3 1 5v1q1 2 2 2h293q1 0 2 -3t1 -5zM902 348v7v40q0 30 -15 51.5t-36 21.5h-266q-20 0 -34 -20l-2 -2q-15 -21 -15 -51v-40v-7h-43l1 7v40q0 30 -15.5 51.5t-36.5 21.5h-266q-19 0 -34 -20l-2 -2q-15 -21 -15 -51v-40l1 -7h-55q2 28 8 91
q5 47 6 74q7 101 -8 183q83 -30 164 -18q38 6 87 27.5t96.5 39t90.5 17.5q36 0 77.5 -14t73 -30.5t72 -30t74.5 -13.5q79 0 140 22q-15 -82 -8 -183q1 -17 7 -74q5 -53 8 -91h-55z" />
    <glyph glyph-name="uniE63D" unicode="&#xe63d;" 
d="M24 -145q-10 0 -17 8.5t-7 20.5v787q0 20 16 27q17 8 42.5 16.5t85 19.5t119.5 11q129 0 250 -47q16 -7 16 -27v-781q0 -12 -7 -20.5t-16 -8.5q-3 0 -6 1q-125 34 -253 34q-127 0 -215 -39q-4 -2 -8 -2zM36 661v-757q89 35 211 35q121 0 246 -31v752q-111 42 -230 42
q-124 0 -227 -41zM518 -145q-9 0 -16 8.5t-7 20.5v787q0 20 15 27q18 8 43 16.5t85 19.5t120 11q129 0 250 -47q16 -7 16 -27v-781q0 -12 -7 -20.5t-17 -8.5q-2 0 -5 1q-126 34 -253 34t-215 -39q-4 -2 -9 -2zM531 661v-757q89 35 211 35q121 0 246 -31v752q-112 42 -230 42
q-125 0 -227 -41zM114 491q-2 9 2 17t11 10q41 10 86 15q108 13 188 -14q8 -3 11.5 -11t1.5 -17q-3 -8 -9 -12t-13 -2q-108 36 -257 -1q-7 -2 -13.5 2.5t-7.5 12.5zM114 316q-2 9 2 17t11 10q42 10 86 15q108 12 188 -14q8 -3 11.5 -11t1.5 -17q-3 -8 -9 -12t-13 -2
q-108 36 -257 -2q-7 -1 -13.5 3.5t-7.5 12.5zM114 154q-2 9 2 17t11 10q42 10 86 15q108 12 188 -14q8 -3 11.5 -11t1.5 -17q-3 -8 -9 -12t-13 -2q-108 36 -257 -1q-7 -2 -13.5 2.5t-7.5 12.5zM609 491q-2 9 2 17t12 10q41 10 85 15q109 13 189 -14q7 -3 11 -11t1 -17
q-2 -8 -8.5 -12t-13.5 -2q-107 36 -257 -1q-7 -2 -13 2.5t-8 12.5zM609 316q-2 9 2 17t12 10q41 10 85 15q109 12 189 -14q7 -3 11 -11t1 -17q-2 -8 -8.5 -12t-13.5 -2q-107 36 -257 -2q-7 -1 -13 3.5t-8 12.5zM609 154q-2 9 2 17t12 10q41 10 85 15q109 12 189 -14
q7 -3 11 -11t1 -17q-2 -8 -8.5 -12t-13.5 -2q-107 36 -257 -1q-7 -2 -13 2.5t-8 12.5z" />
    <glyph glyph-name="uniE63E" unicode="&#xe63e;" 
d="M206 -205q-12 0 -26 2q-44 5 -82 29q-17 10 -17 29q1 19 20 30l89 42l8 66l-48 38l-105 -51q-20 -10 -34 5q-11 12 -9 36q8 78 74 129.5t155 46.5q7 0 14 -1q14 -1 18 -1q17 0 34 16q67 61 209 203q56 55 90 89q16 34 17 81q1 40 23 77t59 61q73 47 148 38q40 -6 80 -26
q22 -11 22 -32t-24 -32l-91 -42l-3 -62l50 -31l95 43q23 11 40 -7q12 -13 10 -35q-5 -74 -64 -125t-140 -51q-12 0 -24 1l-3 1q-19 3 -34 3h-3q-11 0 -17 -4q-54 -49 -172 -170q-89 -91 -130 -130q-17 -16 -20.5 -26t-3.5 -32q0 -20 -1 -32q-5 -69 -58.5 -119t-129.5 -56
q-8 -1 -16 -1zM126 -146q28 -15 59 -18q17 -3 34 -1q61 4 104.5 44t47.5 95q1 10 1 29q1 29 7 46t29 40q40 39 129 129q121 123 176 174l3 2q15 9 37 10h4q17 0 39 -4h2q10 -1 20 -1q66 0 113.5 40.5t52.5 98.5v3l-110 -50l-87 55l6 107l106 50q-31 14 -61 18
q-61 8 -122 -32q-29 -18 -46 -46.5t-18 -58.5q-1 -58 -22 -101l-2 -3l-2 -2l-92 -92q-143 -142 -210 -204q-28 -26 -61 -26q-7 0 -21 1q-8 1 -13 1h-11q-69 0 -119.5 -39t-57.5 -98l99 48q11 6 22 1l6 -3l59 -47q12 -9 10 -25l-9 -79q-1 -16 -16 -22l-86 -40v0zM852 -130
q-14 0 -23 9l-280 284l14 14q18 18 51 52q21 20 43 43l14 14l282 -284q14 -19 4 -43.5t-35 -50.5q-39 -38 -70 -38zM852 -91v-20v20zM604 163l250 -254q17 3 41 27t27 41l-251 254q-3 -3 -29 -30q-27 -26 -38 -38zM186 307q-24 0 -79.5 52.5t-83.5 89.5q-24 32 -19 48
q6 22 145 161.5t161 145.5l7 1q24 0 79.5 -52.5t83.5 -88.5q24 -32 19 -48q-4 -15 -73 -88l90 -93l-36 -35q-47 -48 -74 -74l-14 -14l-89 92q-94 -91 -110 -96zM43 489q11 -22 65 -76.5t76 -65.5q24 19 105 98l14 13l90 -91l60 60l8 9l-90 91l14 14q60 63 75 83
q-11 22 -65 76t-76 65q-30 -22 -142.5 -134.5t-133.5 -141.5z" />
    <glyph glyph-name="uniE63F" unicode="&#xe63f;" 
d="M855 -212h-686q-37 0 -63.5 26.5t-26.5 63.5v844q0 37 26.5 63.5t63.5 26.5h686q37 0 63.5 -26.5t26.5 -63.5v-844q0 -37 -26.5 -63.5t-63.5 -26.5zM169 752q-12 0 -21 -9t-9 -21v-844q0 -12 9 -21t21 -9h686q12 0 21 9t9 21v844q0 12 -9 21t-21 9h-686zM762 419h-500
q-22 0 -38 16.5t-16 40.5v151q0 24 16 40.5t38 16.5h500q22 0 38 -16.5t16 -40.5v-151q0 -24 -16 -40.5t-38 -16.5zM268 479h488v145h-488v-145zM390 191q0 -10 -7 -17t-17 -7h-104q-10 0 -17 7t-7 17v103q0 10 7 17.5t17 7.5h104q10 0 17 -7.5t7 -17.5v-103zM592 191
q0 -10 -7.5 -17t-16.5 -7h-104q-10 0 -17 7t-7 17v103q0 10 7 17.5t17 7.5h104q9 0 16.5 -7.5t7.5 -17.5v-103zM786 191q0 -10 -7 -17t-17 -7h-104q-10 0 -17 7t-7 17v103q0 10 7 17.5t17 7.5h104q10 0 17 -7.5t7 -17.5v-103zM390 -37q0 -10 -7 -17.5t-17 -7.5h-104
q-10 0 -17 7.5t-7 17.5v103q0 10 7 17t17 7h104q10 0 17 -7t7 -17v-103zM592 -37q0 -10 -7 -17.5t-17 -7.5h-104q-10 0 -17 7.5t-7 17.5v103q0 10 7 17t17 7h104q9 0 16.5 -7t7.5 -17v-103zM786 -37q0 -10 -7 -17.5t-17 -7.5h-104q-10 0 -17 7.5t-7 17.5v103q0 10 7 17t17 7
h104q10 0 17 -7t7 -17v-103z" />
    <glyph glyph-name="uniE640" unicode="&#xe640;" 
d="M792 416q0 10 -6.5 17t-16.5 7h-186l115 341h-1q2 5 2 8q0 9 -7 16t-17 7h-233q-17 0 -22 -16l-187 -558v-1q-1 -4 -1 -7q0 -9 6.5 -16t16.5 -7h208l-44 -393v-2v-1q0 -9 6.5 -16t16.5 -7q15 0 21 14l327 605q2 4 2 9zM478 -72l34 300v1v1q0 10 -7 16.5t-16 6.5h-201
l171 512h184l-114 -341q-2 -5 -2 -8q0 -9 7 -16t17 -7h179z" />
    <glyph glyph-name="uniE641" unicode="&#xe641;" 
d="M963 781l-80 70l-17 -9q-48 -23 -97.5 -33t-85.5 -8t-71 11t-51 16t-28 14l-14 8l-14 -8q-13 -7 -29 -14t-50.5 -16t-70.5 -11t-85.5 8t-97.5 33l-17 9l-80 -70l10 -19q52 -105 52 -175q0 -15 -12 -72q-24 -122 -24 -189q0 -200 158 -254q189 -65 236 -134l24 -34l23 34
q47 69 236 134q158 54 158 254q0 68 -24 189v1q-11 56 -11 71q0 69 52 175zM250 469v44q78 50 99 180h69q-16 -77 -42 -127v-400h-69v330q-13 -11 -53 -25q2 0 0 -1q-1 0 -4 -1zM439 483v194h315v-114q2 -83 -80 -80h-44v-51h161v-49h-74q12 -88 72 -145v-44
q-122 55 -134 189h-25v-217h-72v217h-25q-11 -136 -133 -189v44q62 57 71 145h-74v49h161v51h-119zM508 531h145q17 -1 25 8t7 29v60h-177v-97z" />
    <glyph glyph-name="uniE642" unicode="&#xe642;" 
d="M874 39h-26q-18 0 -29.5 11t-11.5 29v25q0 4 -4 8t-8 4h-120q-4 0 -7.5 -4t-3.5 -8v-25q0 -18 -12 -29t-29 -11h-213q-18 0 -29.5 11t-11.5 29v25q0 4 -3.5 8t-8.5 4h-122q-5 0 -8.5 -4t-3.5 -8v-25q0 -18 -11.5 -29t-29.5 -11h-26q-45 0 -76.5 30.5t-31.5 74.5v467
q0 42 32 73.5t76 31.5h718q44 0 76 -31.5t32 -73.5v-467q0 -43 -32 -74t-76 -31zM862 93h12q22 0 37 15t15 36v467q0 21 -15 36t-37 15h-718q-22 0 -37.5 -15t-15.5 -36v-467q0 -21 15.5 -36t37.5 -15h11v11q0 28 19.5 47t48.5 19h119q29 0 48 -19t19 -47v-11h184v11
q0 28 19.5 47t47.5 19h120q29 0 48 -19t19 -47v-11h3zM480 337v-14q0 -42 -132 -42q-134 0 -134 42v14q0 29 91 60q2 0 5 3t5.5 9.5t-2.5 16.5q-35 34 -35 74q0 35 19 54.5t48.5 19.5t48.5 -19.5t19 -54.5q0 -38 -33 -74q-3 -11 -2 -17.5t5 -8.5l3 -3q94 -32 94 -60z
M824 497h-283q-9 0 -14.5 5.5t-5.5 14t5.5 14.5t14.5 6h283q9 0 15 -6t6 -14.5t-6 -14t-15 -5.5zM772 380h-231q-7 0 -13.5 6t-6.5 14q0 9 5.5 14.5t14.5 5.5h228q8 0 14 -5.5t6 -14.5q2 -8 -4 -14t-13 -6z" />
    <glyph glyph-name="uniE643" unicode="&#xe643;" 
d="M744 257l55 -316l-284 149l-284 -149l55 316l-230 223l317 46l142 288l142 -288l317 -46z" />
    <glyph glyph-name="uniE644" unicode="&#xe644;" 
d="M475 818l-391 -406q-10 -10 -10 -24.5t10 -24.5t23.5 -10t23.5 10l388 403l387 -403q10 -10 24 -10t23.5 10t9.5 24.5t-10 24.5l-390 406q-8 9 -22 19t-21 9q-16 7 -45 -28zM237 285q-15 0 -29.5 -10.5t-14.5 -24.5v-247q0 -38 26 -65t63 -27h474q37 0 63 27t26 65v247
q0 35 -22 35q-14 0 -26 -10.5t-12 -24.5v-199q0 -32 -22 -55t-53 -23h-383q-31 0 -53 23t-22 55v199v8v8q0 2 -0.5 6t-1.5 5.5t-2.5 4t-4.5 3t-6 0.5z" />
    <glyph glyph-name="uniE645" unicode="&#xe645;" 
d="M293 515q2 2 21 18l-24 34q-15 -13 -26 -24v-1l27 -30q1 0 1.5 1t0.5 2zM938 432q-16 38 -43 75q-12 16 -29 35q-15 17 -33 32q-77 68 -175 89q-104 23 -209 -8q-46 -14 -90 -39l18 -37q42 24 84 36q94 28 188 7q89 -20 156 -80q15 -14 29 -30q16 -18 25 -32
q20 -27 38 -66q28 -65 24 -129q-3 -52 -28 -95q-15 -27 -40 -51q-2 -3 -5 -5.5t-5.5 -4.5t-4 -3t-2.5 -2l-1 -1q-6 -5 -18 -13q-28 -19 -59 -33q-48 -21 -100 -27q-72 -8 -131 13q-17 7 -32 16q-6 4 -13 10l-14 14q-12 14 -23 32q-11 17 -13 20q-10 14 -23 20q-12 7 -28 8
q-15 2 -31 -3q-5 -2 -44 -22q-22 -10 -34 -8q-14 3 -30 19q-30 30 -38.5 78t3.5 94q11 55 38 105l-31 28q-32 -56 -46 -125q-12 -59 -3 -109q5 -28 17 -53q7 -13 15 -24q9 -13 17 -20q24 -26 51 -31q25 -5 58 12q34 17 39 19q8 2 15 2q8 -1 15 -4q6 -2 20 -26q13 -22 27 -38
q9 -10 16 -16q9 -8 19 -14q18 -12 39 -20q68 -25 150 -16q58 7 111 30q34 15 65 36l22 15l5 5q9 7 15 12q29 28 48 60q30 51 35 113q6 74 -26 150zM226 494l29 -29h1l170 -171q-1 -13 4 -24q7 -17 22 -26.5t33 -9.5q13 0 24 4q24 10 34 33q11 23 1 45q-8 20 -27.5 29.5
t-40.5 5.5l-117 216l-20 37l-44 81v3q0 27 -14 41t-30 16l-12 1l-3 -12q-6 -28 4 -44.5t23 -21.5l45 -86l19 -37l96 -187l-144 140l-29 28v-1l-105 102l-2 3q-13 42 -51 42l-7 -1l-13 -3l1 -12q3 -28 17 -41t29 -13l107 -108v0z" />
    <glyph glyph-name="uniE646" unicode="&#xe646;" 
d="M642 408q36 27 56.5 66.5t20.5 84.5q0 79 -58.5 135t-141.5 56t-141.5 -56t-58.5 -135q0 -45 20.5 -84.5t56.5 -66.5q-94 -36 -152 -116t-58 -180v-63q0 -13 9.5 -22.5t23.5 -9.5h600q14 0 23.5 9.5t9.5 22.5v63q0 100 -58 180t-152 116zM374 559q0 57 42.5 97.5
t102.5 40.5t102.5 -40.5t42.5 -97.5t-42.5 -98t-102.5 -41t-102.5 41t-42.5 98zM802 69h-566v34q0 112 83 191.5t200 79.5t200 -79.5t83 -191.5v-34zM261 379l6 1q24 8 24 30q0 21 -22 30q-27 11 -43 35t-16 52q0 30 23 55t55 35q11 31 32 57q3 6 7 11q-1 0 -3.5 0.5
t-4.5 0.5q-69 0 -118 -46.5t-49 -112.5q0 -62 44 -107q-66 -33 -105 -93.5t-39 -132.5v-50q0 -13 10 -22.5t24 -9.5h59q0 25 7 57h-42v25q0 66 42 117.5t109 67.5zM842 420q43 45 43 107q0 66 -49 112.5t-117 46.5q-2 0 -4.5 -0.5t-3.5 -0.5q4 -6 7 -11q21 -26 31 -57
q33 -10 58.5 -35t25.5 -55q0 -28 -16 -52t-43 -35q-22 -9 -22 -30q0 -22 24 -30l6 -1q67 -16 109 -67.5t42 -117.5v-25h-48q7 -32 7 -57h60q14 0 23.5 9.5t9.5 22.5v50q0 72 -39 132.5t-104 93.5z" />
    <glyph glyph-name="uniE647" unicode="&#xe647;" 
d="M919 59v-45q0 -13 -4.5 -28t-8 -19t-17 -8.5t-25.5 -4.5h-41h-614h-9q-23 0 -32.5 -0.5t-23.5 1.5t-18 3t-11 7.5t-7.5 10.5t-3 17.5t-2 22.5t0.5 31l-1 614q0 71 13 83t88 12h6h357v57h-360q-36 0 -58.5 -2t-42 -8t-30 -16t-18 -27.5t-9.5 -40.5t-2 -58v-612
q0 -39 1.5 -64t11 -42.5t17 -26t31 -13t41 -5.5t58.5 -1h620q35 0 57.5 2.5t40 10.5t27.5 18t16 30t7.5 42.5t1.5 59.5v332h-57v-333zM972 743l-82 82q-39 39 -77 0l-471 -470l-2 -2q-6 -6 -9 -14l-20 -131q-3 -11 2.5 -20.5t15.5 -12.5q5 -2 10 -1q3 -1 6 0l147 17
q10 2 16 10q2 1 3 2l461 463q38 39 0 77zM924 696l-460 -460l-88 -14q-10 -2 -14 2q-1 2 -1 5t1 5l1 2l23 82l460 457q10 10 20 0l58 -58q10 -11 0 -21z" />
    <glyph glyph-name="uniE648" unicode="&#xe648;" 
d="M954 444l-352 347q-19 20 -49.5 18.5t-51.5 -21.5l-78 -77v1t-1 1l-31 32q-7 6 -16.5 6t-15.5 -6l-115 -113q-6 -7 -6 -16t6 -16l220 -217l-10 -9l-11 10q-21 22 -53 22t-54 -22q-2 -2 -3 -4q-14 -21 -19 -38l-232 -194q-22 -22 -22 -53t22 -52l73 -73q22 -22 53.5 -22
t55.5 25l189 229q19 4 41 17q3 2 5 5q22 22 22 52.5t-22 52.5l-13 13l26 25q7 7 7 16t-7 16l-219 217l82 81l15 -16h1h1l-11 -12q-22 -21 -23 -50.5t19 -49.5l352 -348q19 -19 47 -19q32 0 55 23l119 118q21 21 23 49q2 31 -19 52zM458 268q-8 -4 -17 -8q-17 2 -27 -11
l-195 -236q-10 -11 -21 0l-73 72q-4 4 -4 10t2 9l239 199q11 10 10 22q2 6 9 19q10 7 19 -2l56 -55q4 -4 4 -11q0 -4 -2 -8zM907 386l-119 -119q-6 -5 -12 -5l-356 350q-6 5 4 15l120 118q4 4 10 4h5l352 -348q6 -6 -4 -15z" />
    <glyph glyph-name="uniE649" unicode="&#xe649;" 
d="M233 870h552q71 0 121.5 -50.5t50.5 -122.5v-637q0 -71 -50.5 -121.5t-121.5 -50.5h-552q-71 0 -121.5 50.5t-50.5 121.5v637q0 72 50.5 122.5t121.5 50.5zM785 829h-552q-54 0 -92.5 -38.5t-38.5 -93.5v-637q0 -54 38.5 -92.5t92.5 -38.5h552q54 0 92.5 38.5t38.5 92.5
v637q0 55 -38.5 93.5t-92.5 38.5zM266 710h222q25 0 42 -18q18 -18 18 -43v-152q0 -25 -18 -43q-17 -18 -42 -18h-222q-25 0 -43 18t-18 43v152q0 25 18 43t43 18zM488 669h-222q-9 0 -15 -6q-5 -6 -5 -14v-152q0 -8 5 -14q6 -6 15 -6h222q8 0 14 6t6 14v152q0 8 -6 14
t-14 6zM616 707h179q9 0 14.5 -6t5.5 -14.5t-5.5 -14.5t-14.5 -6h-179q-8 0 -14 6t-6 14.5t6 14.5t14 6zM616 596h179q9 0 14.5 -6t5.5 -14t-5.5 -14t-14.5 -6h-179q-8 0 -14 6t-6 14t6 14t14 6zM616 486h179q9 0 14.5 -6t5.5 -14.5t-5.5 -14.5t-14.5 -6h-179q-8 0 -14 6
t-6 14.5t6 14.5t14 6zM222 354h573q9 0 14.5 -6t5.5 -14.5t-5.5 -14.5t-14.5 -6h-573q-8 0 -14 6t-6 14.5t6 14.5t14 6zM222 223h573q9 0 14.5 -6t5.5 -14.5t-5.5 -14.5t-14.5 -6h-573q-8 0 -14 6t-6 14.5t6 14.5t14 6zM222 92h573q9 0 14.5 -6t5.5 -14.5t-5.5 -14.5
t-14.5 -6h-573q-8 0 -14 6t-6 14.5t6 14.5t14 6z" />
    <glyph glyph-name="uniE64A" unicode="&#xe64a;" 
d="M221 870q19 0 40 -14.5t38.5 -38.5t34 -52.5t27 -58.5t16 -55.5t3 -44t-13.5 -23.5q-8 -4 -28 -11t-32.5 -13.5t-27.5 -17.5t-22 -29.5t-6 -43.5q1 -28 76 -120.5t161 -173.5t112 -79q25 2 43 14.5t27.5 30.5t18 36.5t22.5 36t34 26.5q27 11 86 -16.5t106 -74t40 -82.5
q-12 -60 -72.5 -108.5t-159.5 -63.5q-39 -5 -95.5 9t-122 47.5t-133 80.5t-129.5 111.5t-110.5 136t-77.5 158.5t-29 175q2 75 16 127t38.5 79.5t53.5 39.5t66 12z" />
    <glyph glyph-name="uniE64B" unicode="&#xe64b;" 
d="M515 878q-108 0 -199.5 -49.5t-145 -135.5t-53.5 -187q0 -42 22.5 -100t55.5 -113.5t79 -118.5t83.5 -109.5t79 -93.5t56 -62.5t22.5 -24.5q8 9 22.5 24.5t55.5 62.5t78.5 93.5t83.5 109.5t79 118.5t55.5 113t22.5 100.5q0 101 -53 187t-144.5 135.5t-199.5 49.5z
M753 506q0 -93 -69.5 -158.5t-168.5 -65.5t-169 65.5t-70 158t70 158t169 65.5t168.5 -65.5t69.5 -157.5z" />
    <glyph glyph-name="uniE64C" unicode="&#xe64c;" 
d="M945 563q-36 85 -102 152t-152 102q-86 36 -180 36q-93 0 -178.5 -35.5t-151.5 -102.5q-66 -65 -102 -152q-36 -86 -36 -179q0 -81 25 -150q25 -70 73 -123q10 -12 19 -18q10 -6 19 -6q1 0 7 1q2 1 13 4q-61 78 -88 146q-27 69 -27 146q0 84 33 163q32 79 92 140
q61 60 139 92q79 33 164 33t163 -32q77 -32 138 -93q60 -61 93 -139.5t33 -162.5t-33 -163t-93 -139t-139 -93t-162 -33q-103 0 -165 33t-62 87q0 1 1 6q8 -3 18 -3h158v134q0 7 6 12.5t14 5.5h63q8 0 14 -5.5t6 -12.5v-134h158q20 0 33 13.5t13 32.5v290l31 -25q8 -7 19 -6
t18 9t6 19t-9 18l-303 251q-8 7 -18 6q-9 1 -17 -6l-303 -251q-8 -7 -9 -18t6 -19t17.5 -9t19.5 6l31 25v-290q0 -2 1 -7q-3 -5 -5 -10q-8 -20 -8 -40q0 -68 73 -111t192 -43q92 0 179 36t153 102t102 152q36 87 36 180t-36 178zM308 458l205 170l205 -170l1 -302
q0 -26 -29 -26h-75v109q0 18 -14 31.5t-30 13.5h-115q-16 0 -30.5 -13.5t-14.5 -31.5v-109h-74q-29 0 -29 26v302z" />
    <glyph glyph-name="uniE64D" unicode="&#xe64d;" 
d="M790 896h-211l-374 -512l374 -512h211l-361 512z" />
    <glyph glyph-name="uniE64E" unicode="&#xe64e;" 
d="M445 896h-211l361 -512l-361 -512h211l374 512z" />
    <glyph glyph-name="uniE64F" unicode="&#xe64f;" 
d="M154 538h-107q-19 0 -33 -13.5t-14 -33.5v-572q0 -19 14 -33t33 -14h107q20 0 33.5 14t13.5 33v572q0 20 -13.5 33.5t-33.5 13.5zM973 529l-2 1q-23 6 -71.5 7t-300.5 1q19 58 24 87t5 90q0 69 -40 127q-18 25 -38.5 39.5t-37.5 14.5q-21 0 -34 -14t-13 -33
q0 -24 -11.5 -54.5t-35.5 -68t-41 -61t-48 -65.5q-8 -10 -20.5 -26t-18.5 -24.5t-15 -20t-13 -18.5t-8.5 -15t-6.5 -14t-2 -11v-534l10 -3q22 -6 165 -39q102 -23 200 -23h196q54 0 74 36q31 44 61 129q63 173 72 399q0 4 1 9v14q0 22 -12.5 42.5t-38.5 27.5z" />
    <glyph glyph-name="uniE650" unicode="&#xe650;" horiz-adv-x="1027" 
d="M329 796q28 0 47.5 -19t19.5 -47v-264q0 -27 -19.5 -46.5t-47.5 -19.5h-264q-27 0 -46 19.5t-19 46.5v264q0 28 19 47t46 19h264zM329 268q28 0 47.5 -19t19.5 -47v-265q0 -27 -19.5 -46t-47.5 -19h-264q-27 0 -46 19t-19 46v265q0 28 19 47t46 19h264zM858 268
q28 0 47 -19t19 -47v-265q0 -27 -19 -46t-47 -19h-264q-27 0 -46.5 19t-19.5 46v265q0 28 19.5 47t46.5 19h264zM1005 680q21 -22 21 -50.5t-21 -48.5l-196 -196q-21 -21 -49 -21t-50 21l-196 196q-20 20 -20 48.5t20 50.5l196 196q22 20 50 20t49 -20z" />
    <glyph glyph-name="uniE651" unicode="&#xe651;" 
d="M394 707h511q23 0 38.5 13t15.5 31t-15.5 31t-38.5 13h-511q-23 0 -38.5 -13t-15.5 -31t15.5 -31t38.5 -13zM221 751q0 30 -21 52q-22 22 -52.5 22t-51.5 -22t-22 -52v0v-1q1 -30 22 -52q21 -21 51.5 -21t52.5 21q21 22 21 52h1v1h-1zM905 412h-511q-23 0 -38.5 -13
t-15.5 -31.5t15.5 -31.5t38.5 -13h511q23 0 38.5 13t15.5 31.5t-15.5 31.5t-38.5 13zM905 58h-511q-23 0 -38.5 -13t-15.5 -31.5t15.5 -31.5t38.5 -13h511q23 0 38.5 13t15.5 31.5t-15.5 31.5t-38.5 13zM221 368q0 30 -21 51q-22 22 -52.5 22t-51.5 -22q-21 -21 -22 -51v-1
v0q1 -31 22 -52q21 -22 51.5 -22t52.5 22q21 21 21 52h1v1h-1zM221 13q0 31 -21 52q-22 22 -52.5 22t-51.5 -22q-21 -21 -22 -52v0v0q1 -31 22 -52q21 -22 51.5 -22t52.5 22q21 21 21 52h1v0h-1z" />
    <glyph glyph-name="uniE652" unicode="&#xe652;" 
d="M961 676q14 3 13 18v2v48q0 7 -5 12t-12 5h-894q-7 0 -12 -5t-5 -12v-50q0 -2 1 -5v-1q1 0 1 -2q4 -9 13 -10q22 -5 37 -23t15 -41t-15 -40.5t-37 -22.5q-7 -1 -11 -7t-3 -13v-1v-1v-68v-1v-1q-1 -15 14 -18q22 -5 37 -22.5t15 -40.5t-15 -41t-37 -22q-13 -3 -14 -16v-1
v-1v-75v-2q1 -2 1 -5q4 -8 13 -10q22 -5 37 -23t15 -40.5t-15 -40.5t-37 -23q-14 -3 -14 -17v-4v-45h-1v-1q0 -7 5 -12t12 -5h894q7 0 12 5t5 12v52v1q0 2 -0.5 3.5t-1.5 2.5q-1 2 -2 3l-2 2q-1 1 -2.5 2t-3.5 1l-1 1q-23 5 -38 22.5t-15 40.5t15 41t38 22q12 3 13 16v1v1
v75v2q-1 13 -13 15q-23 5 -38 23t-15 40.5t15 40.5t38 23q7 1 10.5 7t2.5 13v0v2v66v2q1 7 -2.5 12.5t-10.5 7.5q-23 4 -38 22t-15 41t15 41t38 22zM913 504v-18q-30 -17 -48 -46t-18 -63.5t18 -63.5t48 -46v-18q-30 -16 -48 -45.5t-18 -63.5q0 -51 37 -88h-746q37 37 37 87
q0 34 -18 63.5t-48 45.5v19q30 16 48 45.5t18 63.5t-18 63t-48 46v18q30 17 48 46t18 63q0 52 -39 89h749q-38 -37 -38 -88q0 -34 18 -63.5t48 -45.5zM596 549l-59 -126q-8 -19 -11 -29h-1q-2 7 -5 13l-6 14l-59 128h-64l89 -168h-70v-42h84v-47h-84v-42h84v-72h59v72h82v42
h-82v47h82v42h-69l90 168h-60z" />
    <glyph glyph-name="uniE653" unicode="&#xe653;" 
d="M976 525v1v1q-1 3 -2 5l-79 194q-10 30 -37 47.5t-62 17.5h-555q-34 0 -60 -17t-36 -46l-85 -198q0 -1 -1 -4q-9 -28 -9 -58q0 -50 26.5 -93.5t71.5 -67.5v0q38 -20 88 -20q86 1 141 65q55 -64 141 -64q85 0 140 65q55 -65 142 -65q51 0 89 20q44 24 70 67.5t26 93.5
q0 29 -9 56zM856 358q-23 -12 -56 -12q-31 0 -57.5 14.5t-43.5 40.5q-4 9 -9 14q-12 14 -32 14q-21 0 -32 -14q-5 -5 -9 -14q-16 -26 -42.5 -40.5t-56.5 -14.5q-31 0 -57.5 14.5t-42.5 40.5q-4 9 -8 13q-11 14 -33 14t-32 -13q-5 -5 -9 -14q-17 -26 -43.5 -41t-57.5 -15
q-32 0 -55 12v0q-30 16 -50.5 48t-20.5 63q0 20 6 38q1 2 1 3l84 204q7 20 33 20h572q29 -2 35 -21l79 -201q0 -2 1 -4q6 -19 6 -38q0 -31 -20.5 -63t-49.5 -48zM885.5 260q-13.5 0 -21.5 -9.5t-8 -23.5v-186q0 -7 -5.5 -12.5t-12.5 -5.5l-652 -1q-8 0 -13.5 5.5t-5.5 13.5
v182q0 14 -8 23.5t-22 9.5q-13 0 -21 -9.5t-8 -23.5v-178q0 -35 25.5 -60t60.5 -25h635q36 0 61 25t25 61v181q0 14 -8 23.5t-21.5 9.5zM781 501h-539q-15 0 -24.5 8t-9.5 21.5t9.5 21t24.5 7.5h539q15 0 24.5 -7.5t9.5 -21t-9.5 -21.5t-24.5 -8z" />
    <glyph glyph-name="uniE654" unicode="&#xe654;" 
d="M236 332v-307q9 -20 29 -25h283v332h-312zM910 330v-305q-9 -20 -30 -25h-282v332h312v-2zM968 506q-1 9 -7.5 16t-12.5 9l-6 3h-97q21 14 37 38q16 25 16 57t-16 61q-32 61 -103 65q-33 3 -64 -16q-24 -14 -46 -41q-28 -34 -46 -78l-3 -6q-25 10 -51 9h-1q-25 1 -50 -8
q-3 8 -8 19.5t-18.5 33.5t-28.5 39t-38.5 30.5t-48.5 13.5q-34 0 -60 -10.5t-41 -27t-22 -29t-11 -25.5l36 -11q0 2 2 6.5t9 16.5t16 21t26.5 16.5t38.5 7.5q23 0 44.5 -14.5t36 -37t22.5 -38t13 -29.5q-15 -11 -15 -20t13 -19q-28 -6 -56.5 1.5t-51.5 21t-63.5 31.5
t-82.5 28q-120 17 -169 -35l-6 -8q1 -1 -0.5 -8t6 -13t22.5 -3q61 53 172 19q12 -4 62.5 -26t80.5 -32h-195q-2 -1 -6 -2.5t-11 -9t-9 -16.5v-112h371v140h1h1q6 -1 19 -1q11 0 22 1h8l-1 -3v-15v-122h370q-1 87 0 112zM648 600q3 7 4 9q6 13 14 28t24.5 38.5t39 37.5
t47.5 12q53 -3 77 -49q12 -22 12 -46t-11 -42q-9 -13 -19 -22t-17.5 -13t-15.5 -6.5t-11 -2.5h-6h-1l-152 1q16 7 25 16t9 16q0 10 -19 23zM569 556q-9 0 -17 1q0 2 -2 6q-8 16 -28 5q-3 4 -3 9q0 20 50 20q24 0 39 -6t15 -14q0 -9 -14.5 -15t-39.5 -6z" />
    <glyph glyph-name="uniE655" unicode="&#xe655;" 
d="M974 412l-122 113l-4 4l-2 1q-13 10 -29 10h-721q-20 0 -34 -14t-14 -34v-229q0 -20 14 -34t34 -14h721q16 0 29 10l2 2q3 2 4 4l122 113q14 14 14 34t-14 34z" />
    <glyph glyph-name="uniE656" unicode="&#xe656;" 
d="M743 587h198v206h-66v-85q-48 78 -139 116t-205 38q-94 0 -178.5 -38.5t-145 -103t-96 -153t-35.5 -186.5t37 -187t99.5 -153t148.5 -102.5t180 -38.5q112 0 210 52.5t163 142.5l-53 39q-56 -76 -138.5 -120.5t-178.5 -44.5q-107 0 -198.5 55t-144.5 150t-53 207
t53 207.5t144.5 151t199.5 54.5q32 0 60 -4t48.5 -8.5t42 -14.5t34.5 -17t31 -21.5t26 -22t26.5 -25.5t26.5 -25h-97v-69zM902 638v-2h-3z" />
    <glyph glyph-name="uniE657" unicode="&#xe657;" 
d="M911.5 602.5q61.5 -105.5 61.5 -230t-61.5 -229.5t-166.5 -166.5t-230 -61.5t-230 61t-166.5 166.5t-61.5 230t61.5 230t166.5 166.5t230 61t230 -61t166.5 -166.5zM795.5 209.5q43.5 74.5 43.5 163t-43.5 163t-118 118t-162.5 43.5t-162.5 -43.5t-118 -118t-43.5 -163
t43.5 -163t118 -118t162.5 -43.5t162.5 43.5t118 118zM591 582v-267q0 -8 -5 -13.5t-14 -5.5h-191q-8 0 -13.5 5.5t-5.5 13.5v38q0 9 5.5 14.5t13.5 5.5h134v209q0 9 5.5 14t13.5 5h38q9 0 14 -5t5 -14z" />
    <glyph glyph-name="uniE658" unicode="&#xe658;" 
d="M508.5 842q95.5 1 179.5 -34t147 -96.5t100.5 -144.5t38.5 -178q1 -90 -31.5 -169.5t-89 -141t-134 -100.5t-166.5 -49q-46 -6 -108 -9t-160 6q-55 5 -95 12.5t-66 14.5q-27 7 -38 12.5t-6 7.5q60 10 95 30q21 12 17.5 33.5t-20.5 39.5q-53 58 -86.5 136t-34.5 169
q-1 94 34.5 178t97.5 146.5t146 99t179.5 37.5zM361 300q33 0 55.5 23.5t22.5 55t-22.5 54.5t-55.5 23t-55.5 -23t-22.5 -54.5t22.5 -55t55.5 -23.5zM665 302q32 0 54.5 21.5t22.5 53t-22.5 54t-54.5 22.5t-54 -22t-22 -54t22 -53.5t54 -21.5z" />
    <glyph glyph-name="uniE659" unicode="&#xe659;" 
d="M930 410q-12 0 -20 -8.5t-8 -19.5q0 -107 -53 -198t-144 -144t-198 -53t-197.5 53t-143.5 144t-53 198t53 197.5t143.5 143.5t197.5 53q132 0 237 -79q9 -7 21 -5.5t19 11t5 21t-11 18.5q-120 90 -271 90q-91 0 -174.5 -35.5t-144 -96t-96 -144t-35.5 -175t35.5 -175
t96 -143.5t144 -96t175 -36t175 36t144 96t96 143.5t35.5 175.5q0 11 -8 19.5t-20 8.5zM246 430q-9 8 -20.5 8t-19.5 -8t-8 -20t8 -20l225 -225q8 -9 20 -9t20 9l479 479q8 8 8 19.5t-8 20t-20 8.5t-20 -9l-459 -459z" />
    <glyph glyph-name="uniE65A" unicode="&#xe65a;" 
d="M190 709q107 110 259 133q91 13 178.5 -10t161.5 -79.5t120 -136.5t59 -173q18 -127 -28 -243t-142 -194t-219 -96q-163 -24 -303 63q-12 8 -15 21.5t4 25.5t20 15t25 -4q120 -75 260 -54q105 15 187.5 81.5t121.5 166.5t24 208q-11 80 -50.5 148.5t-102.5 117t-138.5 68
t-153.5 8.5q-106 -16 -188 -82.5t-121.5 -166t-23.5 -208.5q12 -87 58 -160q7 -11 4 -25t-14.5 -21.5t-24.5 -4.5t-20 15q-54 85 -68 187q-13 93 9.5 183t77.5 166q20 27 43 51zM318 541q-29 0 -31 31q2 29 31 31h388q26 -2 30 -31q-2 -15 -9.5 -23t-20.5 -8h-144v-110h140
q26 -2 30 -33q-4 -31 -30 -31h-140v-135h154q29 -2 33 -29q0 -31 -29 -33h-412q-27 2 -29 33q2 27 29 29h40v222q0 31 30 35q31 -4 33 -35v-222h87v309h-180z" />
    <glyph glyph-name="uniE65B" unicode="&#xe65b;" 
d="M177 690q108 107 261 128q91 13 179.5 -9t163 -76.5t121 -132t59.5 -167.5q18 -122 -28 -234t-143 -187.5t-221 -92.5q-164 -23 -305 61q-12 7 -15.5 20t4 24.5t20.5 15t25 -3.5q121 -73 262 -53q106 15 189 79.5t122.5 160.5t24.5 201q-12 77 -51.5 143t-103.5 113
t-139.5 66t-154.5 8q-106 -15 -189 -79.5t-122.5 -160.5t-24.5 -201q12 -84 58 -154q8 -12 5 -25t-14.5 -20t-25 -4.5t-20.5 14.5q-54 82 -68 180q-14 90 9 177t78 160q20 26 44 49zM324 598q4 22 32 20q25 -6 25 -28q-12 -63 -20 -92v-325q-2 -24 -29 -28q-29 2 -29 26v211
q-36 -20 -44 18q0 14 12 40q32 62 53 158zM452 426q-29 -3 -42.5 7.5t-10.5 34.5v92q-2 42 51 42h212q49 2 47 -44v-90q2 -46 -42 -42h-86v-26h134q25 -2 27 -30q-4 -26 -29 -26h-118q49 -64 133 -124q18 -19 6 -35q-23 -24 -57 0q-39 23 -96 89v-99q-2 -26 -29 -30
q-30 0 -30 26v105q-49 -66 -94 -93q-27 -18 -49 2q-18 16 6 39q69 54 116 120h-94q-30 0 -32 28q2 26 32 28h115v26h-70zM458 492q-4 -16 15 -12h165q12 -2 12 10v46q0 12 -12 12h-165q-17 0 -15 -12v-44z" />
    <glyph glyph-name="uniE65C" unicode="&#xe65c;" 
d="M972 447q-13 93 -60.5 173t-122.5 136t-165 79t-183 10q-155 -22 -265 -132q-24 -24 -44 -51q-57 -76 -80 -165.5t-9 -182.5q14 -102 69 -187q8 -12 21.5 -15t25 4.5t14.5 21.5t-4 25q-47 73 -60 160q-15 108 25 207.5t124 166t192 82.5q80 11 157 -8.5t141.5 -68
t105 -117t52.5 -148.5q15 -108 -25 -207t-124 -166t-192 -82q-143 -21 -266 54q-12 7 -25.5 4t-20.5 -15t-4 -25.5t15 -20.5q144 -87 310 -63q126 18 224 95.5t145 193.5t29 242zM352 315q-15 -1 -23 -9.5t-10 -22.5q2 -13 10 -24t23 -12h105v-56q1 -23 14.5 -34.5
t37.5 -11.5q48 0 50 46v57l105 -1q14 1 22 10.5t9 23.5q-1 13 -9 23t-22 11h-105v32l104 1q15 1 23 10.5t9 23.5q-1 14 -9 22.5t-22 9.5h-80l84 135q11 14 11 29q-2 12 -5.5 19t-8.5 10.5t-12 5t-15 2.5q-13 -2 -23 -9t-17 -16l-91 -150l-83 149q-6 9 -16.5 17t-23.5 9
q-23 -3 -31 -12.5t-11 -24.5q0 -11 5 -21t10 -17l73 -126h-78q-15 -1 -23 -9.5t-10 -22.5q2 -14 10 -23t23 -10h105v-34h-105z" />
    <glyph glyph-name="uniE65D" unicode="&#xe65d;" 
d="M954 457q-13 90 -58.5 167t-118.5 131.5t-160 77t-177 9.5q-150 -22 -256 -128q-23 -23 -43 -50q-54 -72 -76.5 -159t-9.5 -177q14 -98 67 -181q8 -11 21 -14t24 4.5t14 20.5t-4 24q-46 71 -58 155q-15 104 24 200.5t120.5 161t185.5 79.5q78 11 152.5 -8t137 -66
t101.5 -113t50 -143q15 -105 -24 -201t-120 -160.5t-186 -79.5q-138 -20 -257 52q-12 7 -25 4t-20 -14.5t-3.5 -24.5t14.5 -20q139 -85 300 -61q122 17 217 92t140.5 187.5t27.5 234.5zM307 432q-13 0 -21.5 -8.5t-8.5 -19.5v-142q0 -12 9 -20.5t21 -8.5l1 1h1h157
q1 -1 2 -1q12 0 20.5 8.5t8.5 20.5v0q0 12 -8.5 20.5t-20.5 8.5h-132v84h132q12 0 20.5 8.5t8.5 20.5v141v0q0 12 -8.5 20.5t-20.5 8.5h-161q-12 0 -21 -8.5t-9 -20.5v0q0 -12 9 -20.5t21 -8.5h2h129v-84h-131zM563 565q-9 9 -21 9t-20.5 -8.5t-8.5 -20.5v-141
q0 -12 8.5 -20.5t20.5 -8.5h132v-113q0 -12 8.5 -20.5t20.5 -8.5t20.5 8.5t8.5 20.5v283v0q0 12 -8.5 20.5t-20.5 8.5t-20.5 -8.5t-8.5 -20.5v0v-113h-103v113q0 12 -8 20z" />
    <glyph glyph-name="uniE65E" unicode="&#xe65e;" 
d="M961 465q-35 47 -99 47h-11h-5v134q0 47 -33 79.5t-80 32.5h-456q-47 0 -80 -32.5t-33 -79.5v-134h-4q-57 -5 -87 -48q-34 -46 -14 -104q2 -7 38 -51q9 -11 10 -12q19 -26 29 -47q3 -7 7 -15q16 -40 27 -88q3 -14 6 -29q1 -6 1 -10q1 -9 7 -15l1 -1v-77q0 -11 8 -19
t19 -8t19 8t8 19v59h565v-59q0 -11 7.5 -19t19 -8t19 8t7.5 19v85v5v1v1v1q0 3 2 10q2 16 5 29q11 48 27 88q4 8 7 15q10 21 30 47q2 2 9 12q36 44 38 51q20 58 -14 105zM925 379v-1l-1 -1q-1 -1 -4 -5l-6 -7q-20 -24 -29 -37q-24 -30 -36 -56q-4 -9 -7 -17q-18 -44 -30 -96
q-3 -15 -6 -29v-3h-578v3q-3 14 -6 29q-11 52 -30 96q-3 9 -7 17q-12 26 -35 56q-10 14 -30 37l-6 7q-3 4 -4 5l-1 1v1q-10 32 8 55q18 25 55 25q17 0 36 -6h1l1 -1l90 -112q7 -10 21 -10q9 0 16 5q9 7 10 18t-5 19l-96 119q-4 6 -11 9q-7 2 -15 5l-3 1v140q0 25 18 42
t42 17h456q25 0 42.5 -17t17.5 -42v-150l-2 -1q-2 -2 -3 -4l-154 -191l-1 -2h-247q-11 0 -19 -7.5t-8 -18.5t8 -19t19 -8h260q13 0 21 10l157 197l1 1h1q19 6 36 6q37 0 55 -25q18 -23 8 -55z" />
    <glyph glyph-name="uniE65F" unicode="&#xe65f;" 
d="M897 504l-93 -287l-7 -22q-1 -4 -3 -8l-4 -9q-27 -50 -79 -50h-407q-30 0 -55 19t-31 48v1l-97 308q-34 3 -56 26t-22 56q0 35 24 60t59 25t60 -25t25 -60q0 -24 -17 -44l93 -98l35 178q-29 12 -45.5 36t-16.5 53q0 38 27.5 65.5t67.5 27.5t68 -27.5t28 -65.5
q0 -23 -11 -44t-29 -33l95 -176l97 176q-20 12 -30 34t-10 43q0 38 28 65.5t67 27.5t67.5 -27.5t28.5 -65.5q0 -30 -17.5 -54t-44.5 -35l33 -179l93 99q-11 21 -11 44q0 35 24 60t59 25t59.5 -25t24.5 -60q0 -33 -22 -56.5t-55 -25.5zM126 616q-11 0 -19.5 -8t-8.5 -20
t8.5 -20.5t19.5 -8.5q12 0 20.5 8.5t8.5 20.5t-8.5 20t-20.5 8zM355 742q-13 0 -23 -9t-10 -23t10 -24t23 -10q14 0 24 10t10 24t-10 23t-24 9zM658 742q-14 0 -23.5 -9t-9.5 -23t9.5 -24t23.5 -10t24 10t10 24t-9.5 23t-24.5 9zM811 444l-125 -122l-42 249h-3l-135 -244
l-135 244h-2l-42 -251l-121 123l-2 -4l61 -200q10 -26 28 -42t37 -16h345q18 0 36 12.5t29 31.5l73 216zM890 616q-11 0 -19.5 -8.5t-8.5 -19.5q0 -12 8 -20.5t20 -8.5t20.5 8.5t8.5 20.5q0 11 -9 19.5t-20 8.5zM251 102h522q31 0 53.5 -22.5t22.5 -54.5q0 -31 -22 -52
t-54 -21h-522q-32 0 -54.5 21t-22.5 52q0 32 22.5 54.5t54.5 22.5zM251 4h523q10 0 16.5 7t6.5 16t-6.5 16t-16.5 7h-523q-10 0 -16.5 -7t-6.5 -16t6.5 -16t16.5 -7z" />
    <glyph glyph-name="uniE660" unicode="&#xe660;" 
d="M981 439l-382 366q-21 20 -54 18.5t-56 -22.5l-84 -81v1t-1 1l-34 33q-7 7 -17.5 7t-17.5 -7l-124 -118q-7 -7 -7 -17t7 -17l238 -228l-10 -10l-12 11q-23 23 -58 23t-58 -23q-2 -2 -4 -5q-15 -21 -20 -39l-252 -204q-24 -23 -24 -55.5t24 -55.5l79 -76q24 -23 58 -23
t61 25l205 241q20 5 44 19l6 4q24 23 24 55.5t-24 55.5l-14 13l28 27q7 7 7 17t-7 17l-239 228l90 85l16 -16q1 0 1.5 -0.5t1.5 -0.5l-12 -12q-24 -22 -25 -53t20 -52l382 -366q21 -20 51 -20q34 0 59 24l130 124q23 22 25 52q2 32 -21 54zM443 254q-5 -2 -19 -9
q-17 3 -29 -11l-211 -249q-12 -11 -23 0l-79 76q-5 5 -5 11t3 9l259 210q12 10 11 23q1 6 10 19q11 8 20 -1l61 -58q5 -5 5 -11q0 -5 -3 -9zM931 378l-130 -125q-6 -5 -13 -5l-386 367q-7 7 4 17l130 124q4 4 11 4h6l382 -366q6 -6 -4 -16z" />
    <glyph glyph-name="uniE661" unicode="&#xe661;" 
d="M677 726h178v-117q0 -36 27.5 -36t27.5 36v133q0 1 0.5 2t0.5 1.5t1 0.5v1q0 11 -6 18l-2 3l-3 3q-8 7 -18 7q-1 0 -1.5 0.5t-1 0.5t-1.5 1h-1h-201q-36 0 -36 -27t36 -27zM823 345q-13 0 -20 -11q-3 -5 -3 -11v-332h-165v289q0 15 -11 26.5t-27 11.5h-171q-16 0 -27 -13
t-11 -36v-278h-165v332q0 9 -7.5 14.5t-13 6.5t-8.5 1t-8 -1t-11.5 -6.5t-6.5 -14.5v-354q0 -14 11.5 -23t28.5 -9h601q17 0 31.5 9t14.5 23v354q0 18 -32 22zM580 -9h-137v249q0 9 7 16t17 7h89q10 0 17 -7t7 -16v-249zM972 364l-437 433l-1 1q-11 11 -26 11t-25 -11
l-439 -434q-11 -10 -11 -25t11 -26q11 -10 26 -10t26 10l412 408l412 -408q11 -10 26.5 -10t25.5 10q11 11 11 26t-11 25z" />
    <glyph glyph-name="uniE662" unicode="&#xe662;" 
d="M344 499q0 13 7 21q7 7 18 7t18 -7t7 -21v-186q-1 -20 -3 -35q-2 -12 -5 -29q-6 -17 -12 -35q-7 -16 -13 -26q-8 -13 -16 -21q-10 -12 -20 -20q-11 -9 -14 -10q-13 -8 -25 -5q-11 2 -19 14q-6 11 -4 22q4 12 17 20q4 3 11 8q8 6 13 11q8 8 15 18q6 8 12 21q5 12 7 22
q3 11 5 24q1 10 1 21v186zM342 555q-7 -6 -7 -16v-241q0 -14 -7 -23q-9 -7 -21 -7q-13 0 -21 7q-9 9 -9 23v275q0 18 14 32q14 13 32 13h33h66q18 0 32 -14q11 -11 11 -29v-277q0 -13 -7 -23q-9 -7 -22 -7q-12 0 -21 7q-8 9 -8 23v239q0 13 -7 18q-6 5 -16 5h-28
q-9 0 -14 -5zM382.5 191.5q-1.5 11.5 6.5 21.5q8 11 20 11q12 1 23 -8q18 -13 37 -37q9 -11 8 -23t-11 -20q-11 -9 -22 -7q-12 2 -21 14q-16 19 -27 27q-12 10 -13.5 21.5zM525 486q-5 27 -7 40h-13q-14 0 -22 8q-8 9 -8 22t8 21q8 9 22 9h81l-3 9q-4 15 2 26q5 11 18 15
t23 -3q11 -5 15 -20q4 -12 6 -27h82q14 0 21 -8q9 -9 9 -22t-9 -21q-8 -9 -21 -9h-10q-2 -16 -6 -43q-3 -23 -6 -44h30q14 0 22 -8q8 -9 8 -22t-8 -21q-9 -9 -22 -9h-234q-14 0 -22 8q-8 9 -8 22t8 22q8 8 22 8h28q-3 23 -6 47zM521 138q-20 1 -30 14q-12 16 -12 35v127
q1 17 12 29q12 13 30 13h30h158q21 0 36 -14q12 -10 12 -28v-127q0 -19 -15 -34q-14 -14 -33 -15h-188zM686 295h-135q-5 0 -8 -3q-4 -4 -3 -8v-74q0 -4 3 -8t8 -4h135q5 1 8 4t3 8v74q0 4 -3 8q-4 3 -8 3zM646 439q5 24 10 53q2 20 3 34h-82q2 -12 6 -32q5 -29 7 -55h56z
M984 444q-13 95 -61.5 176.5t-125.5 139t-168.5 81t-186.5 9.5q-158 -22 -270 -134q-24 -25 -45 -53q-58 -77 -81.5 -168.5t-9.5 -186.5q15 -103 71 -190q7 -12 21 -15t26 4.5t15 21.5t-5 26q-48 74 -60 163q-16 110 25 211.5t126.5 169.5t196.5 84q81 11 159.5 -9
t144.5 -69.5t107.5 -119t53.5 -150.5q15 -111 -26 -212.5t-126.5 -169.5t-196.5 -83q-145 -21 -271 55q-12 7 -25.5 4t-21 -15.5t-4 -26t15.5 -20.5q146 -89 316 -65q129 18 229 97.5t148 198t29 246.5z" />
    <glyph glyph-name="uniE663" unicode="&#xe663;" 
d="M974 441q-14 92 -61 172t-122 136t-165 79t-183 10q-154 -22 -264 -132q-24 -24 -44 -51q-57 -75 -79.5 -165t-9.5 -183q15 -101 69 -186q8 -11 21.5 -14t25 4.5t14.5 21t-4 24.5q-47 73 -60 160q-15 108 25 207t124 165.5t192 81.5q79 12 156 -7.5t141.5 -68t105 -116.5
t51.5 -148q16 -108 -24.5 -207t-124 -165.5t-191.5 -82.5q-143 -20 -265 55q-12 7 -25.5 3.5t-21 -15.5t-4 -25.5t15.5 -20.5q143 -87 309 -63q126 18 224 95.5t145 193.5t29 242zM378 403h366l-210 205v-119l-156 -1v-85zM257 403h87v86h-87v-86zM464 140v123l157 1v85
h-369zM742 350h-86v-87h86v87z" />
    <glyph glyph-name="uniE664" unicode="&#xe664;" 
d="M591 561l-59 -130q-9 -21 -11 -31h-2l-4 14q-3 7 -7 15l-59 132h-64l89 -174h-70v-43h85v-49h-85v-43h85v-75h58v75h82v43h-82v49h82v43h-69l91 174h-60zM962 60l-1 1q-1 2 -2 2l-1 1q-2 1 -3 1l-1 1q-25 5 -41 25.5t-16 46.5t16.5 46.5t41.5 25.5q7 2 8 10v2v77v1
q-1 9 -8 10q-25 6 -41.5 26.5t-16.5 46.5t16.5 46t41.5 26q4 1 6.5 4.5t1.5 7.5v72v2v1v1q1 4 -2 7q-2 4 -6 5q-25 5 -41.5 25.5t-16.5 46.5t16.5 46.5t41.5 25.5q9 2 8 11v2v2v49q0 5 -3 8t-7 3h-896q-4 0 -7 -3t-3 -8v-52v-2l1 -4q2 -5 8 -6q25 -6 41 -26.5t16 -46.5
t-16 -46t-42 -26q-4 -1 -6 -4.5t-1 -7.5v-1l-1 -3v-70l1 -2q-1 -10 7 -12q26 -5 42 -25.5t16 -46.5t-16 -46.5t-42 -25.5q-7 -2 -7 -10l-1 -3v-77l1 -1v-2v-1q2 -6 8 -7q25 -5 41 -25.5t16 -46.5t-16 -46.5t-42 -25.5q-8 -2 -7 -11v-1l-1 -3l-1 -50q1 -3 4 -5.5t7 -2.5h896
q4 0 7 3t3 7v54q0 2 -1 2v2zM116 40l11 12q35 36 35 85q0 33 -17 62t-46 45l-3 2v27l3 2q29 16 46 45t17 62t-17 61.5t-46 45.5l-3 2v27l3 2q29 16 46 44.5t17 62.5q0 50 -37 87l-12 11h773v-9l-1 -2q-36 -36 -36 -87q0 -33 16.5 -61.5t45.5 -45.5l4 -2v-27l-4 -2
q-29 -16 -45.5 -44.5t-16.5 -62t16.5 -62t45.5 -44.5l4 -2v-28l-4 -1q-29 -17 -45.5 -45.5t-16.5 -61.5q0 -50 35 -86l12 -12h-780z" />
    <glyph glyph-name="uniE665" unicode="&#xe665;" 
d="M756 861h-488q-30 0 -52 -22.5t-22 -53.5v-837q0 -31 22 -53.5t52 -22.5h488q30 0 52 22.5t22 53.5v837q0 31 -22 53.5t-52 22.5zM780 -52q0 -10 -7 -17.5t-17 -7.5h-488q-10 0 -17 7.5t-7 17.5v155h536v-155zM780 158h-536v627q0 10 7 17.5t17 7.5h488q10 0 17 -7.5
t7 -17.5v-627zM512 -33q20 0 34.5 14.5t14.5 35.5t-14.5 36t-34.5 15t-34.5 -15t-14.5 -36t14.5 -35.5t34.5 -14.5z" />
    <glyph glyph-name="uniE666" unicode="&#xe666;" 
d="M955 102q-82 183 -267 260q-1 0 -2 1q-2 1 -3 1l3 2q1 2 2.5 3t2.5 2q83 76 93 187q9 99 -47.5 181t-152.5 109q-1 0 -46 9q-1 0 -6 1h-40q-40 -7 -43 -8q-167 -45 -203 -211q-32 -145 76 -257l18 -17q-35 -16 -38 -18q-170 -85 -242 -265l-3 -7v-123l1 -6q2 -5 2 -7
q18 -55 72 -66q1 0 4 -1h752q29 8 41 17q31 24 37 60l1 3v123q-10 24 -12 27zM300 581q-1 89 61.5 152t150.5 63t150 -63t62 -152t-62 -152.5t-150 -63.5t-150 63t-62 153zM871 -66h-157h-156h-46h-358q-12 0 -22 5q-14 7 -14 25q-1 40 0 94q0 4 2 9q83 196 285 253
q7 2 15 0q93 -33 186 0q6 2 11 1q204 -59 288 -256q1 -3 1 -9v-87q0 -35 -35 -35z" />
    <glyph glyph-name="uniE667" unicode="&#xe667;" 
d="M491.5 336q-35.5 0 -60.5 -24t-25 -58q0 -26 15.5 -47t41.5 -30v-100q0 -6 4 -10t10 -4h29q6 0 10 4t4 10v100q26 9 41.5 30t15.5 47q1 34 -24.5 58t-61 24zM807 527h-57v82q0 102 -76 174t-182.5 72t-182.5 -72t-76 -174v-82h-57q-47 0 -81 -32t-34 -77v-437
q0 -45 34 -77t81 -32h631q47 0 81 32t34 77v437q0 45 -34 77t-81 32zM291 637q0 67 58.5 115t142 48t142 -48t58.5 -115v-110h-401v110zM836 63q0 -45 -34 -77t-81 -32h-459q-47 0 -81 32t-34 77v273q0 45 34 77t81 32h459q47 0 81 -32t34 -77v-273z" />
    <glyph glyph-name="uniE668" unicode="&#xe668;" 
d="M859 -86h-578q-9 0 -15 6t-6 14.5t6 14.5t15 6h578q10 0 17 7t7 17v797q0 10 -7 17.5t-17 7.5h-578q-11 0 -18 -7.5t-7 -17.5v-717q0 -9 -6 -15t-14.5 -6t-14.5 6t-6 15v717q0 27 19.5 46.5t46.5 19.5h578q27 0 46 -19.5t19 -46.5v-797q0 -27 -19 -46t-46 -19zM527 466
h-177q-9 0 -15 6t-6 14.5t6 14.5t15 6h177q8 0 14 -6t6 -14.5t-6 -14.5t-14 -6zM527 361h-177q-9 0 -15 6t-6 14.5t6 14.5t15 6h177q8 0 14 -6t6 -14.5t-6 -14.5t-14 -6zM527 255h-177q-9 0 -15 6t-6 14.5t6 14.5t15 6h177q8 0 14 -6t6 -14.5t-6 -14.5t-14 -6zM527 150h-177
q-9 0 -15 6t-6 14.5t6 14.5t15 6h177q8 0 14 -6t6 -14.5t-6 -14.5t-14 -6zM527 44h-177q-9 0 -15 6t-6 14.5t6 14.5t15 6h177q8 0 14 -6t6 -14.5t-6 -14.5t-14 -6zM779 466h-177q-8 0 -14 6t-6 14.5t6 14.5t14 6h177q8 0 14 -6t6 -14.5t-6 -14.5t-14 -6zM779 361h-177
q-8 0 -14 6t-6 14.5t6 14.5t14 6h177q8 0 14 -6t6 -14.5t-6 -14.5t-14 -6zM779 255h-177q-8 0 -14 6t-6 14.5t6 14.5t14 6h177q8 0 14 -6t6 -14.5t-6 -14.5t-14 -6zM779 150h-177q-8 0 -14 6t-6 14.5t6 14.5t14 6h177q8 0 14 -6t6 -14.5t-6 -14.5t-14 -6zM779 44h-177
q-8 0 -14 6t-6 14.5t6 14.5t14 6h177q8 0 14 -6t6 -14.5t-6 -14.5t-14 -6zM512 -86h-344q-27 0 -46 19t-19 46v673q0 36 14 50q10 10 26 12.5t53 2.5h24q8 0 14 -6t6 -14.5t-6 -14.5t-14 -6h-24q-45 1 -50 -3q-2 -4 -2 -21v-673q0 -10 7 -17t17 -7h344q9 0 15 -6t6 -14.5
t-6 -14.5t-15 -6zM779 579h-427q-8 0 -14 6t-6 14v112q0 8 6 14t14 6h427q8 0 14 -6t6 -14v-112q0 -8 -6 -14t-14 -6zM373 620h386v70h-386v-70z" />
    <glyph glyph-name="uniE669" unicode="&#xe669;" 
d="M508 714q-104 0 -177 -72t-73 -173.5t73 -173.5t177 -72t177.5 72t73.5 173.5t-73.5 173.5t-177.5 72zM219 374v227h-9q39 85 119.5 137t179 52t179 -52t119.5 -137h-9v-227q48 0 81.5 33.5t33.5 80.5q0 31 -16 57.5t-43 41.5q-38 106 -132.5 173.5t-213 67.5
t-213.5 -67.5t-133 -173.5q-27 -15 -43 -41.5t-16 -57.5q0 -47 34 -80.5t82 -33.5zM758 245q-105 -97 -250 -97q-144 0 -249 96q-91 -46 -142.5 -124.5t-51.5 -182.5h890q0 105 -52.5 183.5t-144.5 124.5z" />
    <glyph glyph-name="uniE66A" unicode="&#xe66a;" 
d="M747 -90h-155q-76 0 -130.5 53.5t-54.5 129.5v275h187v-61q0 -25 17.5 -43t42.5 -18h31q26 0 44 18t18 43v61h187v-275q0 -76 -55 -129.5t-132 -53.5zM747 430q0 25 -18.5 43t-44.5 18l1 181l-7 1q9 1 67 1q79 0 133.5 -49t54.5 -134v-47q0 -21 0.5 -31.5t0.5 -11.5h-187
v29zM650 699q0 98 -92 98q-96 0 -148 -136l-7 -19q-60 -159 -176 -159q-46 0 -86.5 34.5t-40.5 74.5q0 20 19 20q13 0 26 -31q25 -59 83 -59q44 0 72 28t63 107l16 33q67 148 181 148q131 0 131 -139h-41zM716 414v-91q0 -19 -13.5 -32.5t-33 -13.5t-33 13.5t-13.5 32.5v91
q0 19 13.5 32.5t32.5 13.5t33 -13.5t14 -32.5zM594 674l67 -1l-5 -1l-1 -181q-25 0 -43 -18t-18 -43v-29h-187v90q0 85 54 134t133 49z" />
    <glyph glyph-name="uniE66B" unicode="&#xe66b;" 
d="M967 31h-906q-8 0 -13.5 6t-5.5 14v156v79q32 4 54.5 29t22.5 58.5t-22.5 58.5t-54.5 28v80v156q0 8 5.5 14t13.5 6h906q8 0 14 -6t6 -14v-236q-33 -3 -55 -28t-22 -58.5t22 -58.5t55 -29v-235q0 -8 -6 -14t-14 -6zM215 520h-19v-293h19v293zM649 403q12 0 20.5 8.5
t8.5 20.5t-8.5 20.5t-20.5 8.5h-29l51 97q5 9 2 18.5t-12.5 15t-20.5 2.5t-17 -12l-63 -121h-92l-63 121q-6 9 -16.5 12t-20.5 -2.5t-13 -15t3 -18.5l50 -97h-29q-12 0 -20.5 -8.5t-8.5 -20.5t8.5 -20.5t20.5 -8.5h106v-98h-106q-12 0 -20.5 -8.5t-8.5 -20.5t8.5 -21
t20.5 -9h106v-66q0 -13 8.5 -22t20.5 -9t20.5 9t8.5 22v66h106q12 0 20.5 9t8.5 21t-8.5 20.5t-20.5 8.5h-106v98h106zM832 520h-19v-293h19v293z" />
    <glyph glyph-name="uniE66C" unicode="&#xe66c;" 
d="M809 447q-63 -86 -140 -130t-148 -41q-98 3 -167.5 44t-123.5 120q-39 -29 -60.5 -73t-21.5 -93v-143q0 -89 62.5 -151.5t151.5 -62.5h357q84 0 128 60t44 154v143q0 50 -22.5 96.5t-59.5 76.5zM499 324q111 0 189.5 78t78.5 187.5t-78.5 187t-189.5 77.5t-189.5 -77.5
t-78.5 -187t78.5 -187.5t189.5 -78zM809 447q-63 -86 -140 -130t-148 -41q-98 3 -167.5 44t-123.5 120q-39 -29 -60.5 -73t-21.5 -93v-143q0 -89 62.5 -151.5t151.5 -62.5h357q84 0 128 60t44 154v143q0 50 -22.5 96.5t-59.5 76.5zM499 324q111 0 189.5 78t78.5 187.5
t-78.5 187t-189.5 77.5t-189.5 -77.5t-78.5 -187t78.5 -187.5t189.5 -78z" />
    <glyph glyph-name="uniE66D" unicode="&#xe66d;" 
d="M808 479h-149v-42h149q9 0 15 -6t6 -15v-445q0 -9 -6 -15t-15 -6h-595q-8 0 -14.5 6t-6.5 15v445q0 9 6.5 15t14.5 6h149v42h-149q-26 0 -44.5 -18.5t-18.5 -44.5v-445q0 -26 18.5 -45t44.5 -19h595q26 0 45 19t19 45v445q0 26 -19 44.5t-45 18.5zM490 776v-618h42v619
l198 -186l29 31l-218 205q-13 13 -30.5 13t-29.5 -12l-218 -206l29 -31z" />
    <glyph glyph-name="uniE66E" unicode="&#xe66e;" 
d="M900 496l-394 -403q-27 -27 -79 -27t-79 27l-207 196q-27 27 -27 65.5t27 65.5l391 398q11 11 28 21q20 15 49 24t54 9h158q38 0 71.5 -34.5t33.5 -73.5v-161q0 -8 -2 -17q13 -53 -24 -90zM847.5 684q17.5 18 17.5 53.5t-17.5 53.5t-52.5 18t-53 -18t-18 -53.5t18 -53.5
t53 -18t52.5 18zM327 610q-3 -37 -7 -89l69 -1l1 -5q0 -3 -0.5 -37.5t-0.5 -51.5q0 -6 -5 -8q-27 -9 -60 -21q-5 -1 -5 -4v-48q25 9 70 25v-91l61 -1v9q1 71 1 84q0 18 1.5 20t4 3t7 2t6.5 2q3 1 3 2q2 1 2 3q1 9 1 47q-20 -6 -24 -8v78h20v44h-21l1 69h-62v-68h-12
q4 43 4 45h-55zM484 484q166 -1 222 -1v39l-75 1v41h64l1 40h-65v28h-70v-28h-65v-40h65l-1 -42l-76 1v-39zM484 405q10 0 131 -1l-1 -92h-31q12 -26 12 -28q3 -7 10 -7h70h4q2 1 3 1l1 126h22l1 44h-23v28h-67l-1 -28l-130 1zM497 387q16 -48 22 -65q1 -3 4 -3h53
q3 11 7 25q-4 -3 -7.5 0t-4.5 4t-2 6q-6 16 -11 28q-1 5 -5 5h-56zM351 9q22 -24 48 -33.5t55.5 -1.5t56.5 37l320 326l-199 -388q-17 -33 -55.5 -50t-70.5 -1l-250 128q-16 9 -25.5 17t-15.5 20t-4.5 29t10.5 40z" />
    <glyph glyph-name="uniE66F" unicode="&#xe66f;" 
d="M508 175q-13 0 -18.5 -5.5t-5.5 -18.5v-100q0 -14 6 -22.5t18 -8.5q23 0 24 32v71q101 11 169.5 88t68.5 180q0 112 -75 187t-187 75t-187.5 -75.5t-75.5 -186.5q0 -32 24 -32t24 32q0 86 64.5 150.5t150.5 64.5t150.5 -64.5t64.5 -150.5t-64.5 -151t-150.5 -65zM467 -38
q0 -17 12 -29t29 -12t29.5 12t12.5 29t-12.5 29.5t-29.5 12.5t-29 -12.5t-12 -29.5zM507.5 852q-95.5 0 -181 -36t-147 -97.5t-97.5 -147.5t-36 -181q0 -156 91.5 -278t241.5 -165q6 -2 9 -2q32 0 32 24q0 4 -1 7t-2.5 5t-3 3.5t-4 3t-3.5 2.5l-5 1q-3 1 -4 1
q-131 37 -217 150t-86 248q0 83 33.5 159.5t89 132t132 89t159 33.5t159 -33.5t132.5 -89t89.5 -132t33.5 -159.5q0 -136 -87 -249t-219 -150q-1 0 -4.5 -1.5t-4.5 -2t-4 -2.5t-4 -3.5t-2 -5t-1 -7.5q0 -24 31 -24q4 0 9 2q151 42 242 164t91 279q0 95 -36 181t-97.5 147.5
t-147 97.5t-181 36z" />
    <glyph glyph-name="uniE670" unicode="&#xe670;" 
d="M518 480q21 0 32 4.5t11 20t-11 20t-32 4.5h-354q-21 0 -31.5 -4.5t-10.5 -20t10.5 -20t31.5 -4.5h354zM164 108h354q21 0 32 4.5t11 20.5t-11 20.5t-32 4.5h-354q-21 0 -31.5 -4.5t-10.5 -20.5t10.5 -20.5t31.5 -4.5zM164 294h354q21 0 32 4.5t11 20t-11 20.5t-32 5
h-354q-21 0 -31.5 -5t-10.5 -20.5t10.5 -20t31.5 -4.5zM841 836h-603h-5q-46 -4 -72.5 -29t-26.5 -66q0 -74 80 -92q6 -3 12 -3h10q9 -1 13 0h421q3 0 9.5 -6.5t6.5 -9.5v-637q0 -3 -6.5 -9.5t-9.5 -6.5h-515q-32 0 -32 -22t32 -22h515q30 0 46 15.5t16 44.5v637
q0 29 -16.5 44.5t-45.5 15.5h-435q-19 3 -37.5 19.5t-18.5 31.5q0 17 21 34t44 17l597 -9q4 0 10 -2t6 -5v-675q0 -31 22.5 -31t22.5 31v675q0 29 -16 44.5t-45 15.5z" />
    <glyph glyph-name="uniE671" unicode="&#xe671;" 
d="M678 293v0v0zM796.5 166q-10.5 0 -17.5 -7.5t-7 -17.5v-89q0 -30 -21 -50.5t-50 -20.5h-517q-29 0 -50 20.5t-21 50.5v643q0 29 21 50t50 21h517q29 0 50 -21t21 -50v-90q0 -10 7 -17.5t17.5 -7.5t18 7.5t7.5 17.5v100q0 45 -32.5 77.5t-78.5 32.5h-537
q-46 0 -78.5 -32.5t-32.5 -77.5v-663q0 -46 32.5 -78.5t78.5 -32.5h537q46 0 78.5 32.5t32.5 78.5v99q0 10 -7.5 17.5t-18 7.5zM712.5 421q-8.5 0 -15 -6t-6.5 -15t6 -15t15 -6t15 6t6 15t-6 15t-14.5 6zM794.5 421q-8.5 0 -15 -6t-6.5 -15t6.5 -15t15 -6t15 6t6.5 15
t-6.5 15t-15 6zM853 400q1 9 7 15t14.5 5.5t14.5 -6.5t6 -14.5t-6 -15t-14.5 -6.5t-14.5 6t-7 15v1zM964 514q-1 14 -10.5 23.5t-23.5 9.5h-276q-13 0 -22.5 -9.5t-10.5 -23.5v-231q0 -14 10 -24t23 -10h90l42 -36v0h1v-1h1h1v-1h1v0h1v0h2h1h1v0l1 1h1h1v1h1l42 36h89
q14 0 24 10t10 24v230v1zM921 305q0 -6 -4 -9.5t-9 -3.5q-82 -1 -84 -3l-32 -27l-31 27l-84 3q-6 0 -9.5 4t-3.5 9v186q0 5 3.5 8.5t9.5 3.5h231q5 0 9 -3.5t4 -8.5v-186zM652 612q0 10 -7.5 17.5t-17.5 7.5h-430q-10 0 -17.5 -7.5t-7.5 -17.5t7.5 -17.5t17.5 -7.5h430
q10 0 17.5 7.5t7.5 17.5zM197 484q-10 0 -17.5 -7.5t-7.5 -17.5t7.5 -17.5t17.5 -7.5h279q10 0 17 7.5t7 17.5t-7 17.5t-17 7.5h-279z" />
    <glyph glyph-name="uniE672" unicode="&#xe672;" 
d="M731 602q5 -3 8 -5l9 -6v-11q1 -46 -11 -75q-11 -28 -32 -40q-17 -60 -38 -96q-31 -51 -80 -69q-24 -9 -95 -8q-68 1 -90 11q-44 21 -72 71q-18 33 -34 90q-22 12 -34 39q-12 30 -11 77v11l9 6l6 4q-8 90 -0.5 135.5t39.5 82.5q43 35 116.5 47.5t146.5 0.5t116 -44
q44 -41 53.5 -94.5t-6.5 -126.5zM546 251l1 -28l-16 -28l23 -151l94 203l143 5q55 -51 87 -155.5t23 -187.5h-800q5 244 114 338l130 -1l121 -200l23 149l-17 28l2 28q36 2 72 0zM653 645q-133 -26 -209 17q-14 8 -48 -2.5t-46 -9.5q-15 -29 -21 -62l-4 -18l-18 2
q-5 0 -11 -2q-2 0 -5 -2q1 -30 9 -49q7 -17 19 -21l11 -3l3 -11q16 -59 33 -90q21 -39 53 -54q15 -6 74 -7q63 -1 80 5q36 13 59 52q19 33 36 95l3 10l10 3q12 5 19 22q7 18 8 48q-3 2 -5 2q-5 2 -10 2l-18 -1l-3 17q-6 30 -19 57z" />
    <glyph glyph-name="uniE673" unicode="&#xe673;" 
d="M947 371q19 -18 19.5 -39.5t-14.5 -36.5q-17 -15 -40 -14t-36 12q-5 4 -28 26q-54 51 -55 52q-34 32 -69 65q-39 37 -69 66q-32 30 -56 53t-30 28q-29 27 -57 26t-56 -26q-9 -8 -33 -31q-25 -23 -58 -54t-69 -64q-37 -35 -67 -63q-32 -29 -53 -49q-22 -21 -27 -24
q-13 -11 -35.5 -12t-39.5 14q-18 16 -17 39t15 37q6 5 34 32q31 29 67 62q39 36 84 78q48 45 83 78q44 42 66 62q28 26 32 30q35 34 74.5 34.5t68.5 -26.5l22 -22q20 -19 42 -40q27 -27 56 -54q30 -30 62.5 -61t62.5 -60q31 -30 55 -54q26 -24 43 -41zM456 503q23 21 55 22
t57 -22l16 -16l35 -31q19 -19 44 -43q25 -23 52 -47q58 -54 135 -126v-172q0 -20 -14.5 -35.5t-40.5 -16.5h-171v141q0 29 -28 29h-173q-15 0 -21 -9t-6 -20q0 -6 -1 -28v-48v-65h-166q-26 0 -41.5 12t-15.5 33v181q73 67 135 123q24 22 51 47q22 20 46 42q20 18 35 32
q14 13 17 17zM456 503z" />
    <glyph glyph-name="uniE674" unicode="&#xe674;" 
d="M10 382q0 -102 40 -195t107 -160t160 -107t195 -40t195 40t160 107t107 160t40 195t-40 195t-107 160t-160 107t-195 40t-195 -40t-160 -107t-107 -160t-40 -195zM52 382q0 94 36.5 179t98 146.5t146.5 98t179 36.5t179 -36.5t146.5 -98t98 -146.5t36.5 -179
q0 -154 -92 -276q-22 102 -93.5 178t-171.5 105q49 27 77.5 75.5t28.5 105.5q0 87 -61 148t-148 61t-148 -61t-61 -148q0 -57 28.5 -105.5t77.5 -75.5q-100 -29 -171.5 -105t-93.5 -178q-92 122 -92 276zM848 68q-64 -68 -151 -107t-185 -39t-185 39t-151 107h4
q16 125 110.5 209t221.5 84t221.5 -84t110.5 -209h4zM345 570q0 70 49 118.5t118 48.5t118 -48.5t49 -118t-49 -118.5t-118 -49t-118 49t-49 118z" />
    <glyph glyph-name="uniE675" unicode="&#xe675;" 
d="M838 -40q-18 0 -39 12l-139 87h-174q-36 0 -64.5 20t-39.5 53l-87 -54q-44 -27 -74 -9q-25 14 -25 46v84h-30q-60 0 -102 42t-42 102v305q0 59 42 101.5t102 42.5h35q10 0 16.5 -7t6.5 -16.5t-6.5 -16.5t-16.5 -7h-35q-41 0 -69.5 -28.5t-28.5 -68.5v-305
q0 -41 28.5 -69.5t69.5 -28.5h76v-130q0 -5 2 -6q6 -4 27 9l205 127h257q40 0 68.5 28.5t28.5 69.5v305q0 40 -28.5 68.5t-68.5 28.5h-395q-10 0 -17 7t-7 16.5t7 16.5t17 7h395q59 0 101.5 -42.5t42.5 -101.5v-147h19q46 0 78.5 -32.5t32.5 -78.5v-221q0 -45 -32.5 -77.5
t-78.5 -32.5h-15v-55q0 -27 -22 -39q-9 -5 -21 -5zM423 157q4 -22 21.5 -37t41.5 -15h188l150 -93q6 -4 10 -5l1 98h61q27 0 45.5 19t18.5 45v221q0 27 -18.5 45.5t-45.5 18.5h-19v-111q0 -60 -42.5 -102t-101.5 -42h-244zM691 406h-25q-9 0 -16 7t-7 16.5t7 16.5t16 7h25
q9 0 16 -7t7 -16.5t-7 -16.5t-16 -7zM691 553h-164q-10 0 -16.5 7t-6.5 16.5t6.5 16.5t16.5 7h164q9 0 16 -7t7 -16.5t-7 -16.5t-16 -7z" />
    <glyph glyph-name="uniE676" unicode="&#xe676;" 
d="M850 847h-676q-51 0 -86.5 -36t-35.5 -87v-675q0 -51 35.5 -87t86.5 -36h676q51 0 86.5 36t35.5 87v675q0 51 -36 87t-86 36zM819 618h-8q-34 0 -52 -8q-17 -9 -26 -32l-177 -468h-90l-2 5l-150 463q-12 28 -25 34q-14 6 -45 6h-8v45h226v-45h-8q-40 0 -53 -6
q-12 -7 -5 -27l134 -372l125 372q6 13 -6 21q-13 12 -54 12h-8v45h232v-45z" />
    <glyph glyph-name="uniE677" unicode="&#xe677;" 
d="M931 13l-120 154q60 59 93 137t33 165q0 116 -57 214.5t-155.5 155.5t-214.5 57t-214.5 -57t-155.5 -155.5t-57 -214.5q0 -89 35 -168.5t97 -139.5l-118 -149q-13 -13 -9 -21t22 -7l109 -3l24 -86q3 -19 17.5 -22.5t25.5 11.5l120 172q53 -14 104 -14q55 0 112 15
l120 -172q11 -15 25.5 -11.5t17.5 21.5l24 87l109 3q18 -2 22 6.5t-9 21.5zM382 469q0 53 37.5 90.5t90.5 37.5t90.5 -37.5t37.5 -90.5t-37.5 -90.5t-90.5 -37.5t-90.5 37.5t-37.5 90.5z" />
    <glyph glyph-name="uniE678" unicode="&#xe678;" 
d="M508 720h3h3h-6zM806 606q-6 29 -27 45t-60 32q-33 13 -95 25t-113 12t-113.5 -12t-94.5 -25q-26 -11 -40 -18.5t-28.5 -23t-18.5 -35.5l-20 -235v-325h53v-51q0 -29 21.5 -41t43.5 0t22 41v51h350v-51q0 -29 21.5 -41t43.5 0t22 41v51h53v325zM381 661h259q12 0 17 -9.5
t0 -19.5t-17 -10h-259q-12 0 -17 10t0 19.5t17 9.5zM251 378l24 171q3 18 11 26.5t26 8.5h397q19 0 27 -8.5t10 -26.5l24 -171q5 -32 -25 -32h-468q-30 0 -26 32zM348 176q0 -7 -5.5 -12.5t-12.5 -5.5h-72q-7 0 -12 5.5t-5 12.5v31q0 7 5 12t12 5h72q7 0 12.5 -5t5.5 -12
v-31zM781 176q0 -7 -5 -12.5t-13 -5.5h-71q-8 0 -13 5.5t-5 12.5v31q0 7 5 12t13 5h71q8 0 13 -5t5 -12v-31z" />
    <glyph glyph-name="uniE679" unicode="&#xe679;" 
d="M591 583q32 0 55.5 23t23.5 56q-1 33 -24 55.5t-55 22.5q-33 0 -56.5 -23t-23.5 -57q0 -31 23 -54t57 -23zM591 348h204v79h-141l-89 136q-22 36 -61 36q-11 0 -25 -4l-219 -74v-220h80v157l79 31l-159 -629h80l111 324l100 -134v-188h74v249l-112 188l38 121zM591 348z
" />
    <glyph glyph-name="uniE67A" unicode="&#xe67a;" 
d="M877 826l-58 51l-307 -359l-307 359l-58 -51l282 -327h-205v-77h250v-153h-250v-77h250v-320h76v320h250v77h-250v153h250v77h-205z" />
    <glyph glyph-name="uniE67B" unicode="&#xe67b;" 
d="M400 -48q-15 0 -25 11q-25 27 -58 46.5t-59.5 29t-55.5 14.5t-40 6t-17 1q-14 0 -23.5 9.5t-10 23t9.5 23t23 9.5q7 1 22 0t48.5 -7t67 -17.5t73 -36t69.5 -57.5q9 -10 8.5 -23.5t-10.5 -22.5q-9 -9 -22 -9zM623 -48q-13 0 -23 9t-10.5 22.5t8.5 23.5q31 34 71.5 58
t73 35.5t66.5 17.5t48 7t21 1q14 -1 23.5 -10.5t9.5 -23t-10 -23t-23 -9.5h-1q-6 0 -16.5 -0.5t-39 -6t-55.5 -14.5t-60.5 -29t-58.5 -47q-10 -11 -24 -11zM564 119h-105q-5 0 -10 2q-85 10 -154.5 57t-115.5 125q-54 90 -65 196.5t24 190.5q8 20 30 20h10q96 0 177 -35
q58 106 132 159q4 3 9 5q17 7 32 -2l4 -4q73 -53 132 -160q82 37 180 37h11q21 0 30 -20q35 -84 24 -190.5t-65 -196.5q-46 -78 -116 -125t-154 -58q-5 -1 -10 -1zM464 185h94h2q146 16 226 151q43 70 55 155t-10 153q-91 -3 -166 -43q-12 -7 -25.5 -3t-20.5 17
q-50 101 -110 152q-60 -51 -110 -150q-6 -13 -19.5 -17t-26.5 2q-72 39 -161 42q-22 -68 -10 -153t54 -155q81 -135 226 -151h2zM511 -77q-14 0 -23.5 10t-9.5 23v196q0 14 9.5 23.5t23.5 9.5t23.5 -9.5t9.5 -23.5v-196q0 -13 -9.5 -23t-23.5 -10z" />
    <glyph glyph-name="uniE67C" unicode="&#xe67c;" 
d="M923 295h-821q-19 0 -29.5 -2.5t-20 -13t-11.5 -29.5q-3 -68 10 -86q20 -13 34 -13q33 0 57 24q7 7 24 7v-117q0 -49 33 -82.5t81 -33.5h468q46 0 79.5 34t28.5 82v117q16 0 23 -7q24 -24 57 -24q25 0 34 13q10 11 10 83q0 48 -57 48zM946 243q0 -14 -1.5 -33.5
t-1.5 -21.5h-3q-14 0 -27 14q-24 21 -71 21h-20v-158q0 -31 -22 -53t-52 -22h-468q-30 0 -52 22t-22 53v158h-27q-44 0 -64 -24q-13 -14 -27 -14h-3q-4 10 -4 55v7q0 3 21 3h844v-7zM650 620q7 0 14 3q21 14 34.5 29t18.5 30.5t7 28t-2.5 29.5t-7.5 25.5t-10 25.5
q-11 29 -7 38q7 18 -6 27q-8 5 -16.5 3t-10.5 -10q-19 -26 3 -72q8 -18 11 -27t5.5 -23.5t-1.5 -23.5t-14 -21t-28 -24q-17 -12 -7 -28q6 -10 17 -10zM495 620q7 0 10 3q22 14 35.5 29t18.5 30.5t7 28t-2.5 29.5t-7.5 25.5t-10 25.5q-11 29 -7 38q6 18 -7 27q-5 5 -12.5 3.5
t-10.5 -6.5q-20 -28 3 -76q8 -18 11.5 -27.5t5.5 -24t-2 -24t-14 -21t-28 -22.5q-17 -12 -6 -28q5 -10 16 -10zM330.5 620q6.5 0 10.5 3q21 14 34.5 29t18.5 30.5t7 28t-2.5 29.5t-7.5 25.5t-10 25.5q-11 29 -7 38q6 18 -6 27q-6 5 -13.5 3.5t-10.5 -6.5q-18 -29 3 -79
q8 -19 11 -27.5t5.5 -23t-1.5 -24t-14 -21.5t-28 -24q-7 -2 -8.5 -10.5t2.5 -13.5q10 -10 16.5 -10zM324 62q9 0 14.5 6t5.5 14v127q0 10 -6 15.5t-14 5.5t-14 -6.5t-6 -14.5v-127q0 -9 6 -14.5t14 -5.5zM862 373q-7 69 -39 101.5t-75 32.5h-185l6 27q5 18 -6 35
q-10 20 -37 20h-37q-20 0 -37 -17q-12 -18 -7 -34l10 -31h-175q-43 0 -76.5 -32.5t-37.5 -101.5v-20h696v20zM209 394q5 36 24 55.5t47 19.5h225l-20 76q4 3 7 3h44l-20 -79h232q55 0 71 -75h-610z" />
    <glyph glyph-name="uniE67D" unicode="&#xe67d;" 
d="M882 172h-47v612q0 17 -13.5 32t-32.5 15h-417q-19 0 -32.5 -15t-13.5 -32v-612h-93v142q0 36 -19 61t-46 30t-54.5 -1t-46.5 -30.5t-19 -59.5v-330v47q0 -2 0.5 -5t3 -11t6.5 -14.5t13.5 -11.5t22.5 -5h788h10q6 0 22 4.5t28 13t22 28.5t10 48q0 74 -70 91zM604 784h139
h5q3 0 11 -2t14 -6.5t11 -14.5t5 -24v-565h-185v612zM372 737q0 2 0.5 5t3.5 11t7 14.5t13.5 11.5t22.5 5h138v-612h-185v565zM882 31h-741q-14 0 -23.5 5.5t-14 11t-6.5 14.5t-2.5 11t-0.5 5v236q0 30 23.5 42t46.5 -0.5t23 -41.5v-142q0 -2 0.5 -5t3 -11t6.5 -14
t13.5 -11.5t22.5 -5.5h649h5q3 0 11 -3t14 -7.5t11 -14t5 -22.5q0 -39 -41 -46zM488 549q-10 0 -16.5 -7t-6.5 -17t6.5 -16.5t16.5 -6.5t16.5 6.5t6.5 16.5t-6.5 17t-16.5 7zM673 549q-9 0 -16 -7t-7 -17t7 -16.5t16.5 -6.5t16 6.5t6.5 16.5t-6.5 17t-16.5 7z" />
    <glyph glyph-name="uniE67E" unicode="&#xe67e;" 
d="M567 775zM264 694l-2 -1zM944 396h-45v213q1 9 -3 16q-50 75 -123.5 127t-159.5 72q-88 20 -179 4.5t-167 -63.5q-85 -54 -141 -140q-5 -7 -4 -15v-214h-9h-34h-2q-11 0 -19.5 -8.5t-7.5 -19.5v-367q0 -11 8 -19.5t19 -8.5h24h8h9q2 0 7.5 1t9 2.5t6.5 4.5t7.5 8.5
t7.5 8.5q7 7 16 15q4 4 9 7l2 2q1 1 2 1l1 1q9 7 19 14q20 13 43 25q10 5 23 11q1 1 2.5 1.5t2.5 0.5l1 1q6 2 13 5q51 19 106 29q8 2 14 3q5 0 7 1h1h2h-1q13 2 29 3q30 3 60.5 2.5t59.5 -3.5q6 0 15 -1q2 -1 5 -1h2q1 0 2 -1l28 -4q55 -11 105 -32q1 0 4 -1q1 0 1 -1h1
q7 -3 13 -6l22 -11q23 -12 42 -26q4 -3 9 -6q1 -1 3 -2l1 -1l1 -1l18 -15q8 -7 16 -16l7 -7q9 -11 22 -12h53h6q11 0 19 8.5t8 19.5v367q0 11 -8 19.5t-19 8.5zM177 602q5 7 8 11q5 6 5 7l-2 -3q1 2 3 4.5t3 3.5q13 16 27 31q15 15 30 28q4 3 7 6q3 2 4 3l-1 -1l1 1q1 1 2 1
q3 2 8 6t7 6q33 23 70 39l1 1q2 1 3 1q7 3 10 4q9 4 19 7q20 7 41 11q9 3 18 4q6 1 11 2h2q2 0 3 1h1q20 2 42 3q22 0 43 -1l20 -2h2q2 -1 3 -1h-1h1q5 -1 12 -2q40 -7 78 -22q4 -2 10 -4q1 0 2.5 -0.5t1.5 -1.5q11 -4 19 -9q19 -9 35 -20q9 -6 19 -12q5 -4 9 -7l2 -2l2 -1
l1 -1h1q17 -14 33 -30t31 -34q4 -4 7 -8q2 -3 2 -4l-1 1l-1 2q2 -3 3 -4l10 -14v-120q-19 15 -42 26q-97 46 -216 30q-57 -7 -102 -29q-80 44 -184 30q-74 -11 -123 -51v114zM192 423q1 1 1 2l1 1h1q-1 0 -2 -1v-1l2 3q3 4 5 6q6 6 13 11q0 1 1 2q5 3 7 5q8 5 16 9q6 4 15 8
q1 0 2 0.5t2 0.5q5 2 11 4q18 6 39 10q1 0 3 1q2 -1 3.5 -0.5t4 1t3.5 0.5q11 1 23 1q11 0 22 -1h11q2 -1 6 -1h2q26 -5 49 -13l10 -4q-1 0 -2 1h-1l3 -1l6 -3q10 -5 20 -11q13 -9 28 0q8 4 19 9q1 1 3 1.5t3 1.5q7 2 11 4q23 8 49 12q4 1 10 2h2h1q3 1 8 1q13 1 27 2
q26 1 52 -2q1 0 3 -0.5t3 -0.5h4h-3q2 0 6 -0.5t6 -1.5q12 -2 23 -4q22 -6 43 -14q1 -1 2 -1.5t2 -0.5q5 -3 10 -5q9 -5 17 -10q4 -2 7 -5l4 -3h1q7 -6 12 -11q4 -4 6 -7l2 -2v-1q6 -8 9 -14q1 -1 1 -2v-1l2 -4h-663q1 4 3 8v1v1l3 6q3 5 8 12h-1v-1zM916 29h-19
q-46 51 -116 85q-78 39 -168 54q-200 31 -371 -46q-81 -36 -133 -93h-4v310h45h2h718h2h36h4h4v-310zM419 115z" />
    <glyph glyph-name="uniE67F" unicode="&#xe67f;" 
d="M919 592v54q0 50 -35 85t-84 35h-574q-49 0 -84 -35t-35 -85v-54q-32 -8 -52 -34t-20 -59v-457h956v457q0 33 -20 59t-52 34zM226 718h574q29 0 50 -21t21 -51v-54q-31 -8 -51 -34t-20 -59v-72h-574v72q0 33 -20 59t-52 34v54q0 30 21 51t51 21zM800 307h-263v72h263v-72
zM226 379h263v-72h-263v72zM944 88h-862v411q0 21 14.5 35.5t34.5 14.5t33.5 -14.5t13.5 -35.5v-241h45h3h574h6h42v241q0 21 14 35.5t34 14.5t34 -14.5t14 -35.5v-411z" />
    <glyph glyph-name="uniE680" unicode="&#xe680;" 
d="M216 404q0 -27 19 -46t45.5 -19t45.5 19t19 46t-19 46t-45.5 19t-45.5 -19t-19 -46zM443 404q0 -27 19 -46t46 -19t46 19t19 46t-19 46t-46 19t-46 -19t-19 -46zM674 404q0 -27 19 -46t45.5 -19t46 19t19.5 46t-19.5 46t-46 19t-45.5 -19t-19 -46zM508 875
q-96 0 -183 -37.5t-150 -100.5t-100.5 -150t-37.5 -183t37.5 -183t100.5 -150t150 -100.5t183 -37.5t183 37.5t150 100.5t100.5 150t37.5 183t-37.5 183t-100.5 150t-150 100.5t-183 37.5zM508 -35q-119 0 -219.5 58.5t-160 159.5t-59.5 221q0 88 35 169.5t94 140t140 93.5
t169.5 35t170 -35t140 -93.5t93.5 -140t35 -169.5q0 -120 -58 -221t-159 -159.5t-221 -58.5z" />
    <glyph glyph-name="uniE681" unicode="&#xe681;" 
d="M517.5 851q-94.5 0 -180.5 -37t-148 -99.5t-99 -148.5t-37 -180.5t37 -180.5t99 -148.5t148 -99.5t180.5 -37t181 37t148.5 99.5t99 148.5t37 180.5t-37 180.5t-99 148.5t-148.5 99.5t-181 37zM518 -30q-113 0 -208.5 55.5t-151 151.5t-55.5 208.5t55.5 208.5t151 151.5
t208.5 55.5t208.5 -55.5t151 -151.5t55.5 -208.5t-55.5 -208.5t-151 -151.5t-208.5 -55.5zM631 629l-74 -136q-30 -55 -36 -74h-2q-19 45 -110 210h-69l129 -222h-106v-49h124v-68h-124v-49h124v-99h62v99h120v49h-120v68h120v49h-103l130 222h-65z" />
    <glyph glyph-name="uniE682" unicode="&#xe682;" 
d="M958 281h-143q-16 0 -27 -11t-11 -27v-51h-528v51q0 16 -11 27t-27 11h-143q-16 0 -27 -11t-11 -27v-143q0 -16 11 -27t27 -11h143q16 0 27 11t11 27v35h528v-35q0 -16 11 -27t27 -11h143q16 0 27 11t11 27v143q0 16 -11 27t-27 11zM205 106h-131v132h131v-132zM953 106
h-132v132h132v-132zM323 540q0 55 25 84.5t63 29.5q53 0 53 -64v-238h57v210q0 43 25 67q24 25 56 25q60 0 60 -79v-223h57v237q0 56 -29.5 85.5t-76.5 29.5q-58 0 -101 -56q-29 56 -88 56q-61 0 -104 -61v51h-54v-342h57v188zM796 667q-39 -31 -39 -68h111v28h-62
q3 6 34 32q17 14 22 23.5t5 26.5q0 43 -53 43q-56 0 -56 -46v-5h38q0 28 16 28q14 0 14 -20q0 -7 -1 -11t-8 -11.5t-21 -19.5z" />
    <glyph glyph-name="uniE683" unicode="&#xe683;" 
d="M973 441l-116 136v7v179q0 12 -8 20t-20 8h-98q-11 0 -19.5 -8t-8.5 -20v-52l-171 153q-9 8 -20 7.5t-18 -7.5l-443 -421q-14 -13 -7 -31t26 -18h94v-432q0 -12 8 -20t20 -8h196q12 0 20 8t8 20v239h189v-239q0 -12 8.5 -20t19.5 -8h196q12 0 20 8t8 20v386q0 12 -8 20
t-19.5 8t-20 -8t-8.5 -20v-358h-140v239q0 12 -8 20t-20 8h-245q-12 0 -20 -8t-8 -20v-239h-140v433q0 11 -8.5 19.5t-19.5 8.5h-51l373 354l188 -169q3 -2 7 -4l10 -5q14 -7 27 1.5t13 23.5v83h42v-133q-8 -6 -11 -16q-3 -14 6 -25l135 -157q7 -9 18.5 -9.5t20.5 7t10 19
t-7 20.5z" />
    <glyph glyph-name="uniE684" unicode="&#xe684;" 
d="M913 397q0 22 -16 37.5t-38 15.5h-247q16 41 16 102v203q0 44 -32 75.5t-78 31.5h-19q-45 0 -77.5 -31.5t-32.5 -75.5v-203q0 -61 16 -102h-246q-23 0 -39 -15.5t-16 -37.5v-174h42v-306h126l68 147v-147h531v306h42v174zM420 552v203q0 32 23 54.5t56 22.5h19
q33 0 56.5 -22.5t23.5 -54.5v-203q0 -22 -6 -57.5t-13 -44.5h-141q-6 9 -12 44.5t-6 57.5zM841 -53h-47v200h-31v-200h-52v161h-31v-161h-52v101h-31v-101h-227v161h-44l-74 -161h-75v276h664v-276zM883 253h-12h-725h-12v144q0 10 7.5 16.5t17.5 6.5h276h147h277
q10 0 17 -6.5t7 -16.5v-144zM509 810q-32 0 -45 -25t0 -50.5t44.5 -25.5t44.5 25.5t0.5 50.5t-44.5 25zM509 739q-14 0 -19 10.5t0.5 21t18.5 10.5t18.5 -10.5t0 -21t-18.5 -10.5z" />
    <glyph glyph-name="uniE685" unicode="&#xe685;" 
d="M179 -71q-55 0 -94 39t-39 95v601q0 55 39 94t94 39h66v-66h-66q-28 0 -48 -19.5t-20 -47.5v-601q0 -28 20 -48t48 -20h668q28 0 47.5 20t19.5 48v601q0 28 -19.5 47.5t-47.5 19.5h-66v66h66q55 0 94 -39t39 -94v-601q0 -56 -39 -95t-94 -39h-668zM346 130
q-14 0 -23.5 9.5t-9.5 23t9.5 23.5t23.5 10h334q14 0 23.5 -10t9.5 -23.5t-9.5 -23t-23.5 -9.5h-334zM346 330q-14 0 -23.5 10t-9.5 23.5t9.5 23t23.5 9.5h334q14 0 23.5 -9.5t9.5 -23t-9.5 -23.5t-23.5 -10h-334zM212 531q-14 0 -23.5 9.5t-9.5 23t9.5 23.5t23.5 10h602
q13 0 23 -10t10 -23.5t-10 -23t-23 -9.5h-602zM680 664q-14 0 -23.5 10t-9.5 23v134q0 14 9.5 23.5t23.5 9.5t23.5 -9.5t9.5 -23.5v-134q0 -13 -9.5 -23t-23.5 -10zM345.5 664q-13.5 0 -23 10t-9.5 23v134q0 14 9.5 23.5t23 9.5t23.5 -9.5t10 -23.5v-134q0 -13 -10 -23
t-23.5 -10zM446 797h133v-66h-133v66zM680 864q13 0 22.5 -9.5t9.5 -23.5v-134q0 -13 -9.5 -22.5t-22.5 -9.5t-23 9.5t-10 22.5v134q0 14 10 23.5t23 9.5zM345.5 864q13.5 0 23 -9.5t9.5 -23.5v-134q0 -13 -9.5 -22.5t-23 -9.5t-23 9.5t-9.5 22.5v134q0 14 9.5 23.5t23 9.5z
M847 797q55 0 94 -39t39 -94v-601q0 -55 -39 -94t-94 -39h-668q-55 0 -94 39t-39 94v601q0 55 39 94t94 39h66v-65h-66q-28 0 -48 -20t-20 -48v-601q0 -29 20 -48.5t48 -19.5h668q28 0 48 19.5t20 48.5v601q0 28 -20 48t-48 20h-66v65h66zM579 732h-132v65h132v-65zM814 596
q13 0 22.5 -9.5t9.5 -23t-9.5 -23t-22.5 -9.5h-602q-13 0 -22.5 9.5t-9.5 23t9.5 23t22.5 9.5h602zM680 396q13 0 22.5 -9.5t9.5 -23t-9.5 -23t-22.5 -9.5h-334q-14 0 -23.5 9.5t-9.5 23t9.5 23t23.5 9.5h334zM680 195q13 0 22.5 -9.5t9.5 -23t-9.5 -23t-22.5 -9.5h-334
q-14 0 -23.5 9.5t-9.5 23t9.5 23t23.5 9.5h334zM680 864q-14 0 -23.5 -9.5t-9.5 -23.5v-134q0 -13 9.5 -23t23.5 -10t23.5 10t9.5 23v134q0 14 -9.5 23.5t-23.5 9.5zM346 864q-14 0 -24 -9.5t-10 -23.5v-134q0 -13 10 -23t24 -10t23.5 10t9.5 23v134q0 14 -9.5 23.5
t-23.5 9.5zM847 798h-67v-67h67q28 0 47.5 -19.5t19.5 -47.5v-601q0 -28 -19.5 -47.5t-47.5 -19.5h-668q-28 0 -47.5 19.5t-19.5 47.5v601q0 28 19.5 47.5t47.5 19.5h67v67h-67q-56 0 -95 -39.5t-39 -94.5v-601q0 -56 39 -95t95 -39h668q55 0 94.5 39t39.5 95v601
q0 55 -39.5 94.5t-94.5 39.5zM580 798h-134v-67h134v67zM814 597h-602q-14 0 -23.5 -9.5t-9.5 -23.5t9.5 -24t23.5 -10h602q13 0 23 10t10 24t-10 23.5t-23 9.5zM680 397h-334q-14 0 -24 -10t-10 -24t10 -23.5t24 -9.5h334q14 0 23.5 9.5t9.5 23.5t-9.5 24t-23.5 10z
M680 196h-334q-14 0 -24 -9.5t-10 -23.5t10 -24t24 -10h334q14 0 23.5 10t9.5 24t-9.5 23.5t-23.5 9.5z" />
    <glyph glyph-name="uniE686" unicode="&#xe686;" 
d="M805 53l13 -13l17 -17l51 -51q12 -13 7.5 -30t-21.5 -22q-18 -4 -31 10q-15 14 -42 41.5t-40 39.5l-2 4l-1 1q-233 -132 -464 0q0 -1 -1 -2l-3 -3q-80 -80 -83 -82q-13 -13 -29.5 -9t-21.5 21q-6 18 8 32l34 35l41 40l6 4q-159 143 -152 346q6 181 141 306q85 78 196 103
t220 -8t189 -117q84 -87 110 -203t-11 -230.5t-131 -195.5zM152 384q0 -101 49.5 -186.5t135 -135.5t185.5 -50q102 0 187.5 49.5t135.5 135t50 186.5t-49.5 186.5t-135.5 135.5t-186.5 50t-186.5 -50t-135.5 -135.5t-49.5 -185.5zM240 848q16 -3 17 -3q10 -3 15 -12.5
t4 -20.5q-2 -11 -10 -18.5t-20 -7.5q-43 -1 -75 -25q-48 -37 -50 -99q0 -20 -18 -28q-16 -8 -31 3q-13 10 -13 26q3 99 84 154q42 28 97 31zM988 665q1 -11 -6 -21q-13 -18 -34.5 -11.5t-21.5 29.5q-1 37 -19 65q-36 57 -104 59q-17 0 -26 13t-4 28q7 21 30 21
q104 -3 159 -92q24 -38 26 -91zM493 477v92q0 22 20.5 29t34.5 -9q7 -9 7 -23v-72q0 -59 -1 -91q0 -7 5 -11l109 -109q10 -11 10 -24.5t-10 -22.5q-9 -8 -21 -7.5t-21 8.5l-25 25l-96 96q-13 13 -12 31v88z" />
    <glyph glyph-name="uniE687" unicode="&#xe687;" 
d="M686 471q-27 0 -48 -20t-21 -48q0 -29 21 -49q20 -20 48 -20t48 20t20 48.5t-20 48.5t-48 20zM512 810q-94 0 -179 -31t-150 -87q-66 -56 -103 -131t-37 -159t37 -159t103 -132q64 -55 149.5 -86t179.5 -31q56 0 113 11q50 11 89 28l113 -61q18 -9 35 -7q17 1 33 13
q15 12 21 29q6 16 2 35l-27 119q42 49 64 105q27 65 27 136q0 84 -37 159t-103 131q-64 56 -149 87t-181 31zM230 638q55 48 128 74.5t154 26.5q82 0 155 -26.5t129 -74.5q54 -46 84 -107.5t30 -128.5q0 -57 -21 -109q-23 -56 -62 -96q-15 -15 -10 -34l26 -117l-110 60
q-16 8 -32 0q-43 -20 -90 -30q-48 -10 -98 -10q-81 0 -154 26.5t-128 73.5t-85 107.5t-30 128.5t30 129t84 107zM512 471q-27 0 -48 -20q-20 -20 -20 -48.5t20 -48.5q21 -20 48 -20q30 0 49 20q20 21 20 49t-20 48t-49 20zM340 471q-28 0 -49 -20q-19 -20 -19 -48.5
t19 -48.5q21 -20 49 -20t48 20t20 48.5t-20 48.5q-21 20 -48 20z" />
    <glyph glyph-name="uniE688" unicode="&#xe688;" 
d="M875 -77h-715v388h56v-332h603v332h56v-388zM88 322l-40 38l469 502l470 -502l-41 -38l-429 458zM511 86l-178 166q-35 40 -35 90q0 57 40 97t96 40q47 0 83 -28q37 28 83 28q56 0 96 -40t40 -97q0 -50 -32 -88l-143 -130l-37 41l140 128q16 20 16 49q0 34 -23.5 57.5
t-56.5 23.5q-38 0 -61 -29l-22 -25l-21 25q-24 29 -62 29q-33 0 -56.5 -23.5t-23.5 -57.5q0 -29 19 -52l176 -163z" />
    </font>
</defs>
</svg>
