<?xml version="1.0" standalone="no"?><!DOCTYPE svg PUBLIC "-//W3C//DTD SVG 1.1//EN" "http://www.w3.org/Graphics/SVG/1.1/DTD/svg11.dtd"><svg class="icon" width="64px" height="54.89px" viewBox="0 0 1194 1024" version="1.1" xmlns="http://www.w3.org/2000/svg"><path d="M748.213214 327.73995 445.037663 327.73995l0 368.52551 303.175551 0L748.213214 327.73995zM454.944583 646.979752l79.542123-178.102718 82.496344 0-80.0886 178.102718L454.944583 646.979752zM729.200152 443.436108l-14.992941 0 0 172.746164-80.077778 58.656973-42.051655 0 0-56.249229 42.051655 0L634.129433 443.436108 454.944583 443.436108 454.944583 385.055079l179.179439 0 0-32.940102 80.077778 0 0 32.940102 31.333136 0L729.200152 443.436108zM852.400896 80.050725 341.115103 80.050725c-97.37566 0-176.306379 78.930718-176.306379 176.306379l0 511.285793c0 97.37025 78.930718 176.306379 176.306379 176.306379l511.285793 0c97.37025 0 176.306379-78.936129 176.306379-176.306379L1028.707275 256.357104C1028.707275 158.981443 949.771146 80.050725 852.400896 80.050725zM832.846768 692.780995l-85.699455 63.207338L360.669231 755.988333l0-14.462696L360.669231 315.149343l0-47.137676 472.177537 0L832.846768 692.780995z" fill="#1296db" /></svg>