<?xml version="1.0" encoding="UTF-8" standalone="no"?>
<svg width="24px" height="24px" viewBox="0 0 24 24" version="1.1" xmlns="http://www.w3.org/2000/svg" xmlns:xlink="http://www.w3.org/1999/xlink">
    <!-- Generator: Sketch 44.1 (41455) - http://www.bohemiancoding.com/sketch -->
    <title>小图标/填色/支付宝图标</title>
    <desc>Created with Sketch.</desc>
    <defs></defs>
    <g id="Symbols" stroke="none" stroke-width="1" fill="none" fill-rule="evenodd">
        <g id="小图标/填色/支付宝图标" fill="#108EE9">
            <g id="支付宝支付">
                <path d="M11.4609694,19.1065774 C9.66685237,19.9639498 7.60683008,20.4974059 5.37603343,19.9707113 C3.14520334,19.443749 1.56207242,18.0152636 1.83409471,15.3779079 C2.10665181,12.7403515 4.92210585,11.8308285 7.23763788,11.8308285 C9.55400557,11.8308285 13.9479777,13.3336904 13.9479777,13.3336904 C13.9479777,13.3336904 14.3171699,12.5052385 14.6758997,11.5580921 C15.0343621,10.6110795 15.1361114,9.85004184 15.1361114,9.85004184 L5.77922006,9.85004184 L5.77922006,8.91102929 L10.3250474,8.91102929 L10.3250474,7.11454393 L4.65797214,7.15541423 L4.65797214,5.97134728 L10.3250474,5.97134728 L10.3250474,3.27665272 L13.301415,3.27665272 L13.301415,5.97131381 L19.3764903,5.97131381 L19.3764903,7.15538075 L13.3014485,7.1961841 L13.3014485,8.87012552 L18.3176156,8.91099582 C18.3176156,8.91099582 18.2269638,9.85004184 17.5910641,11.5580921 C16.9558329,13.2660753 16.359376,14.1371381 16.359376,14.1371381 L23.9665738,16.6367531 L23.9665738,4.79866109 C23.9665738,2.14845188 21.8211142,0 19.1745961,0 L4.79866295,0 C2.15214485,0 0.00668523677,2.14845188 0.00668523677,4.79866109 L0.00668523677,19.1946444 C0.00668523677,21.8448536 2.15214485,23.9933054 4.79866295,23.9933054 L19.1745961,23.9933054 C21.38039,23.9933054 23.2331365,22.4989121 23.7907187,20.4674812 L15.0139721,16.3010879 C15.0139721,16.3010879 13.2548858,18.2491715 11.4609694,19.1065774" id="Fill-1"></path>
                <path d="M6.26346518,13.2785607 C3.47023955,13.4566025 2.78784401,14.6872301 2.78784401,15.8195816 C2.78784401,16.9518996 3.47755989,18.5261255 6.76017827,18.5261255 C10.0419944,18.5261255 12.8279331,15.2117824 12.8279331,15.2117824 C12.8279331,15.2117824 9.05592201,13.1005188 6.26346518,13.2785607" id="Fill-2"></path>
            </g>
        </g>
    </g>
</svg>