<?xml version="1.0" encoding="utf-8"?>
<!-- Generator: Adobe Illustrator 19.2.1, SVG Export Plug-In . SVG Version: 6.00 Build 0)  -->
<svg version="1.1" id="图层_1" xmlns="http://www.w3.org/2000/svg" xmlns:xlink="http://www.w3.org/1999/xlink" x="0px" y="0px"
	 viewBox="0 0 172.9 53" style="enable-background:new 0 0 172.9 53;" xml:space="preserve">
<style type="text/css">
	.st0{fill:#1B2A51;}
</style>
<g>
	<path class="st0" d="M167.9,1.2c-2.3,0-4.2,1.8-4.2,4.1c0,2.4,1.9,4.2,4.2,4.2c2.3,0,4.2-1.8,4.2-4.2C172.1,3,170.1,1.2,167.9,1.2z
		 M167.9,8.9c-1.9,0-3.4-1.5-3.4-3.5c0-2,1.5-3.5,3.4-3.5c1.9,0,3.4,1.5,3.4,3.5C171.2,7.4,169.8,8.9,167.9,8.9z"/>
	<path class="st0" d="M168.5,5.7c0.7-0.1,1.2-0.5,1.2-1.3c0-0.9-0.6-1.4-1.7-1.4h-1.8v4.8h0.7V5.7h0.8l1.3,2.1h0.8L168.5,5.7z
		 M167,5.1V3.6h1c0.5,0,1,0.1,1,0.7c0,0.7-0.5,0.8-1.2,0.8H167z"/>
</g>
<g>
	<path class="st0" d="M9.7,9.7h9.3c0.3,0,0.7,0,1.1,0c0.4,0,0.9,0.1,1.3,0.1c0.5,0.1,0.9,0.2,1.4,0.4c0.5,0.2,0.9,0.4,1.2,0.7
		c0.4,0.3,0.7,0.7,0.9,1.2c0.2,0.5,0.3,1.1,0.3,1.8c0,0.6-0.1,1-0.2,1.4c-0.2,0.4-0.4,0.7-0.6,0.9c-0.2,0.3-0.5,0.5-0.8,0.6
		c-0.3,0.2-0.6,0.3-0.8,0.4c0.2,0.1,0.5,0.2,0.9,0.4c0.4,0.2,0.7,0.4,1,0.7c0.3,0.3,0.6,0.7,0.8,1.2c0.2,0.5,0.3,1,0.3,1.7
		c0,0.7-0.1,1.3-0.4,1.8c-0.2,0.5-0.6,0.9-1,1.3c-0.4,0.3-0.9,0.6-1.4,0.8c-0.5,0.2-1.1,0.3-1.7,0.4c-0.6,0.1-1.2,0.2-1.8,0.2
		c-0.6,0-1.2,0-1.8,0H9.7V9.7z M11.7,16.5h6.9c0.6,0,1.1,0,1.7-0.1c0.6-0.1,1.1-0.2,1.6-0.4c0.5-0.2,0.8-0.5,1.1-0.8
		c0.3-0.3,0.4-0.8,0.4-1.4c0-0.6-0.2-1.1-0.5-1.5c-0.3-0.4-0.7-0.6-1.2-0.8c-0.5-0.2-1.1-0.3-1.8-0.3c-0.7,0-1.4,0-2.1,0h-6.2V16.5z
		 M11.7,24.1h7.6c0.6,0,1.2,0,1.7-0.1c0.6-0.1,1-0.2,1.5-0.4c0.4-0.2,0.8-0.5,1-0.9c0.3-0.4,0.4-0.9,0.4-1.5c0-0.6-0.1-1-0.3-1.4
		c-0.2-0.4-0.5-0.7-0.9-0.9c-0.4-0.2-0.8-0.4-1.4-0.5c-0.5-0.1-1.1-0.2-1.8-0.2h-7.8V24.1z"/>
	<path class="st0" d="M29.5,9.7h14.4v1.7H31.4v5.2h10.4v1.7H31.4v5.8h12.7v1.7H29.5V9.7z"/>
	<path class="st0" d="M47.6,9.7H62v1.7H49.6v5.2H60v1.7H49.6v5.8h12.7v1.7H47.6V9.7z"/>
	<path class="st0" d="M65.8,9.7h9.3c0.3,0,0.7,0,1.1,0c0.4,0,0.9,0.1,1.3,0.1C78,9.9,78.5,10,79,10.2c0.5,0.2,0.9,0.4,1.2,0.7
		c0.4,0.3,0.7,0.7,0.9,1.2c0.2,0.5,0.3,1.1,0.3,1.8c0,0.6-0.1,1-0.2,1.4c-0.2,0.4-0.4,0.7-0.6,0.9c-0.2,0.3-0.5,0.5-0.8,0.6
		c-0.3,0.2-0.6,0.3-0.8,0.4c0.2,0.1,0.5,0.2,0.9,0.4c0.3,0.2,0.7,0.4,1,0.7c0.3,0.3,0.6,0.7,0.8,1.2c0.2,0.5,0.3,1,0.3,1.7
		c0,0.7-0.1,1.3-0.4,1.8c-0.2,0.5-0.6,0.9-1,1.3c-0.4,0.3-0.9,0.6-1.4,0.8c-0.5,0.2-1.1,0.3-1.7,0.4s-1.2,0.2-1.8,0.2
		c-0.6,0-1.2,0-1.8,0h-8.3V9.7z M67.8,16.5h6.9c0.6,0,1.1,0,1.7-0.1c0.6-0.1,1.1-0.2,1.6-0.4c0.5-0.2,0.8-0.5,1.1-0.8
		c0.3-0.3,0.4-0.8,0.4-1.4c0-0.6-0.2-1.1-0.5-1.5c-0.3-0.4-0.7-0.6-1.2-0.8c-0.5-0.2-1.1-0.3-1.8-0.3c-0.7,0-1.4,0-2.1,0h-6.2V16.5z
		 M67.8,24.1h7.6c0.6,0,1.2,0,1.7-0.1c0.6-0.1,1-0.2,1.5-0.4c0.4-0.2,0.8-0.5,1-0.9c0.3-0.4,0.4-0.9,0.4-1.5c0-0.6-0.1-1-0.3-1.4
		c-0.2-0.4-0.5-0.7-0.9-0.9c-0.4-0.2-0.8-0.4-1.4-0.5c-0.5-0.1-1.1-0.2-1.8-0.2h-7.8V24.1z"/>
	<path class="st0" d="M84.4,17.8c0-1.3,0.2-2.5,0.7-3.6c0.5-1.1,1.1-2,2-2.7c0.8-0.7,1.8-1.3,3-1.7c1.2-0.4,2.4-0.6,3.8-0.6
		c1.4,0,2.6,0.2,3.8,0.6c1.2,0.4,2.1,1,3,1.7c0.8,0.7,1.5,1.6,2,2.7c0.5,1.1,0.7,2.3,0.7,3.6c0,1.4-0.3,2.7-0.8,3.7
		c-0.5,1.1-1.3,1.9-2.2,2.6c-0.9,0.7-1.9,1.2-3,1.5c-1.1,0.3-2.3,0.5-3.5,0.5c-1.2,0-2.3-0.2-3.5-0.5c-1.1-0.3-2.1-0.8-3-1.5
		c-0.9-0.7-1.6-1.6-2.2-2.6C84.7,20.5,84.4,19.3,84.4,17.8z M86.4,17.5c0,1.2,0.2,2.3,0.6,3.2c0.4,0.9,1,1.6,1.6,2.2
		c0.7,0.6,1.5,1,2.4,1.3c0.9,0.3,1.9,0.4,2.8,0.4c1,0,1.9-0.1,2.8-0.4c0.9-0.3,1.7-0.7,2.4-1.3c0.7-0.6,1.2-1.3,1.6-2.2
		c0.4-0.9,0.6-1.9,0.6-3.2c0-0.9-0.2-1.7-0.5-2.5c-0.3-0.8-0.8-1.5-1.5-2.1c-0.6-0.6-1.4-1.1-2.3-1.4c-0.9-0.3-2-0.5-3.1-0.5
		c-1.2,0-2.2,0.2-3.1,0.5c-0.9,0.3-1.7,0.8-2.3,1.4c-0.6,0.6-1.1,1.3-1.5,2.1C86.6,15.7,86.4,16.6,86.4,17.5z"/>
	<path class="st0" d="M105.4,17.8c0-1.3,0.2-2.5,0.7-3.6c0.5-1.1,1.1-2,2-2.7c0.8-0.7,1.8-1.3,3-1.7c1.2-0.4,2.4-0.6,3.8-0.6
		c1.4,0,2.6,0.2,3.8,0.6c1.2,0.4,2.1,1,3,1.7c0.8,0.7,1.5,1.6,2,2.7c0.5,1.1,0.7,2.3,0.7,3.6c0,1.4-0.3,2.7-0.8,3.7
		c-0.5,1.1-1.3,1.9-2.2,2.6c-0.9,0.7-1.9,1.2-3,1.5c-1.1,0.3-2.3,0.5-3.5,0.5c-1.2,0-2.3-0.2-3.5-0.5c-1.1-0.3-2.1-0.8-3-1.5
		c-0.9-0.7-1.6-1.6-2.2-2.6C105.7,20.5,105.4,19.3,105.4,17.8z M107.4,17.5c0,1.2,0.2,2.3,0.6,3.2c0.4,0.9,1,1.6,1.6,2.2
		c0.7,0.6,1.5,1,2.4,1.3c0.9,0.3,1.8,0.4,2.8,0.4c1,0,1.9-0.1,2.8-0.4c0.9-0.3,1.7-0.7,2.4-1.3c0.7-0.6,1.2-1.3,1.6-2.2
		c0.4-0.9,0.6-1.9,0.6-3.2c0-0.9-0.2-1.7-0.5-2.5c-0.3-0.8-0.8-1.5-1.5-2.1c-0.6-0.6-1.4-1.1-2.3-1.4c-0.9-0.3-2-0.5-3.1-0.5
		c-1.2,0-2.2,0.2-3.1,0.5c-0.9,0.3-1.7,0.8-2.3,1.4c-0.6,0.6-1.1,1.3-1.5,2.1C107.6,15.7,107.4,16.6,107.4,17.5z"/>
	<path class="st0" d="M127.5,9.7h2.8l12,13.3V9.7h2v16.1h-2l-12.9-14.4v14.4h-1.9V9.7z"/>
	<path class="st0" d="M147.9,9.7h14.4v1.7h-12.4v5.2h10.4v1.7h-10.4v5.8h12.7v1.7h-14.7V9.7z"/>
</g>
<g>
	<path class="st0" d="M66.5,36.3C66.5,36.4,66.4,36.4,66.5,36.3c-0.2,0.3-0.3,0.7-0.4,1.1c0,0.1,0,0.1,0,0.1c0,0.1,0,0.3,0,0.4
		c0,1.5-0.2,2.9-0.5,4.2c-0.6,2.3-1.6,4.1-3,5.6c-1.8,2-4.3,3.2-7.4,3.7c3-1,5.2-2.6,6.6-5c1.3-2.1,1.9-4.6,1.9-7.4
		c0-1.2-0.1-2.4-0.3-3.6c0.2,0,0.4,0,0.6,0C65,35.7,65.8,36,66.5,36.3z M72,34l-0.5,0.9l0.3,10.5c-0.1,0-0.2,0.1-0.2,0.1
		c-0.4,0.2-0.8,0.3-1.2,0.3c-0.2,0-0.5,0-0.7-0.1c-0.2,0-0.4-0.1-0.6-0.3v-11h-8.4l-0.1,11.3c-0.2,0.1-0.3,0.2-0.4,0.3
		c-0.4,0.2-0.7,0.3-1.1,0.3c-0.2,0-0.4,0-0.5-0.1c-0.1,0-0.3-0.1-0.5-0.2l0.3-13c0.3,0,0.6,0.1,0.8,0.1c0.6,0.2,1.2,0.4,1.6,0.7h7.9
		l0.9-1.1L72,34z M72.7,48.6c0.3,0.2,0.5,0.4,0.6,0.7c0.1,0.3,0.2,0.5,0.2,0.8c0,0.4-0.1,0.8-0.4,1.2c-0.3,0.3-0.6,0.5-1,0.5
		c-0.2,0-0.4,0-0.6-0.1c-0.6-0.7-1.2-1.5-1.8-2.2c-0.7-0.8-1.3-1.5-1.9-2c-0.8-0.7-1.6-1.2-2.4-1.6c0.1,0,0.5,0.1,1.2,0.2
		c1,0.2,1.9,0.5,2.8,0.8C70.5,47.3,71.7,47.9,72.7,48.6z"/>
	<path class="st0" d="M86.9,45.4h-4.7c-0.2,0.4-0.4,0.8-0.6,1.2c-0.6,1-1.3,1.8-2.1,2.6c-1.1,1.1-2.4,1.8-3.7,2.2
		c0.1,0,0.4-0.2,0.9-0.7c0.7-0.6,1.3-1.3,1.8-2.1c0.8-1.1,1.3-2.1,1.6-3.3h-3.4l-0.4,0.3L75.5,45h4.7c0.1-0.5,0.1-0.9,0.1-1.3
		c0.1-1,0.1-2,0.1-2.9H78L77.5,41l-0.6-0.6h3.5v-4.2h-2.9l-0.4,0.3l-0.8-0.8h4v-3.5c0.3,0,0.6,0.1,0.8,0.1c0.7,0.1,1.3,0.4,1.8,0.8
		l-0.5,1v1.6h0.9l1.4-1.5l2,1.5v0.5h-4.3v4.2h0.8l1.3-1.5l2,1.5v0.5h-4c0,0.5,0,1.1,0,1.8c0,0.7-0.1,1.4-0.2,2.4h1l1.6-1.5l1.9,1.5
		V45.4z M95.4,45.3c-0.1,0.8-0.2,1.4-0.4,1.8c-0.5,1.2-1.5,1.8-2.9,1.8c-0.2-0.4-0.4-0.7-0.6-0.9c-0.5-0.7-1.1-1.2-1.7-1.5
		c0.4,0.1,0.8,0.1,1.1,0.1c0.7,0,1.1-0.2,1.4-0.5c0.3-0.3,0.5-0.8,0.5-1.4c0-0.8-0.2-1.8-0.7-2.8c-0.5-1-1-1.6-1.4-1.9l0.9-5.4h-2.4
		l0.3,16.8c-0.2,0.1-0.3,0.1-0.4,0.1c-0.4,0.1-0.7,0.2-1,0.2c-0.2,0-0.4,0-0.5,0c-0.1,0-0.2-0.1-0.4-0.2V33.1l2.1,0.9v0.3h2.1
		l0.8-1.1c0.4,0.1,0.7,0.3,0.9,0.4c0.7,0.4,1.3,0.8,1.8,1.3c-0.1,0.1-0.2,0.2-0.3,0.2c-0.2,0.2-0.4,0.3-0.6,0.4l-2.6,4.8
		c1.3,1.1,2.2,1.8,2.6,2.2C94.8,43.3,95.3,44.2,95.4,45.3z"/>
	<path class="st0" d="M113.8,35.1l0.3,3.3c-0.2,0.1-0.3,0.2-0.4,0.3c-0.4,0.2-0.7,0.3-1.1,0.3c-0.2,0-0.4,0-0.5-0.1
		c-0.1,0-0.3-0.1-0.5-0.2v-0.4h-9.2c0,1.9-0.1,3.6-0.4,5c-0.3,2-0.9,3.6-1.7,4.9c-1,1.6-2.3,2.6-3.9,3.2c1.5-1.3,2.5-3,3.1-4.9
		c0.5-1.5,0.7-3.4,0.7-5.7c0-0.8,0-1.8-0.1-2.9c-0.1-2.6-0.2-4.2-0.2-4.8l2.5,0.9h8.7l0.9-0.9l2.4,1.4L113.8,35.1z M111.5,37.7v-3.5
		h-9.2v3.5H111.5z M116.4,49.2c-0.1,0.4-0.3,0.8-0.4,1c-0.5,0.7-1.4,1-2.7,1h-4.8c-0.3,0-0.6-0.1-0.8-0.1c-1.1-0.4-1.9-1-2.4-1.9
		V38.6c0.4,0,0.7,0.1,1,0.1c0.8,0.1,1.4,0.3,1.9,0.5l-0.6,0.9v4.3c0,0,0.3-0.2,0.8-0.6c0.6-0.5,1.2-1.1,1.8-1.6
		c0.8-0.8,1.6-1.5,2.2-2.2c0.4,0.2,0.7,0.4,0.9,0.6c0.7,0.5,1.2,1,1.6,1.6c-0.1,0-0.4,0.1-1.1,0.3c-0.9,0.3-1.8,0.6-2.7,0.9
		c-1.3,0.5-2.4,1-3.5,1.5v2.6c0.1,0.3,0.3,0.5,0.4,0.7c0.4,0.5,1,0.7,1.7,0.7h2.6c0.7-0.2,1.2-0.4,1.6-0.6c1.1-0.7,1.9-1.6,2.2-3
		c-0.1,0.8-0.2,1.5-0.4,2.3c0,0.3,0,0.6,0.1,0.8C116,48.8,116.2,49,116.4,49.2z"/>
</g>
</svg>
