<?xml version="1.0" encoding="UTF-8" standalone="no"?>
<svg width="344px" height="116px" viewBox="0 0 344 116" version="1.1" xmlns="http://www.w3.org/2000/svg" xmlns:xlink="http://www.w3.org/1999/xlink">
    <!-- Generator: Sketch 45.2 (43514) - http://www.bohemiancoding.com/sketch -->
    <title>Cell Copy</title>
    <desc>Created with Sketch.</desc>
    <defs>
        <path d="M1.99791312,0.873500219 C0.894496173,0.873500219 0,1.77452605 0,2.87630651 L0,112.870694 C0,113.976813 0.898260623,114.8735 1.99791312,114.8735 L6,114.8735 L6,0.873500219 L1.99791312,0.873500219 Z" id="path-1"></path>
    </defs>
    <g id="订单流程" stroke="none" stroke-width="1" fill="none" fill-rule="evenodd">
        <g id="优惠券---选择后的状态-copy" transform="translate(-15.000000, -147.000000)">
            <g id="Group-3" transform="translate(16.000000, 147.000000)">
                <g id="优惠券">
                    <rect id="Combined-Shape" stroke="#E5E5E5" stroke-width="0.5" fill="#FFFFFF" x="0" y="1" width="342" height="114" rx="2"></rect>
                    <mask id="mask-2" fill="white">
                        <use xlink:href="#path-1"></use>
                    </mask>
                    <use id="Cell-Copy" fill="#FFADBF" xlink:href="#path-1"></use>
                </g>
                <path d="M251.00714,1 C249.898627,1 249,1.90102583 249,3.00280629 L249,112.997194 C249,114.103313 249.890631,115 251.00714,115 L342,115 L342,1 L251.00714,1 Z" id="Cell-Copy-2" fill="#FFADBF" transform="translate(295.500000, 58.000000) scale(-1, 1) translate(-295.500000, -58.000000) "></path>
                <path d="M249,1 L254,4.35183062 L249,7 L249,1 Z M249,7 L254,10.3518306 L249,13 L249,7 Z M249,13 L254,16.3518306 L249,19 L249,13 Z M249,19 L254,22.3518306 L249,25 L249,19 Z M249,25 L254,28.3518306 L249,31 L249,25 Z M249,31 L254,34.3518306 L249,37 L249,31 Z M249,37 L254,40.3518306 L249,43 L249,37 Z M249,43 L254,46.3518306 L249,49 L249,43 Z M249,49 L254,52.3518306 L249,55 L249,49 Z M249,55 L254,58.3518306 L249,61 L249,55 Z M249,61 L254,64.3518306 L249,67 L249,61 Z M249,67 L254,70.3518306 L249,73 L249,67 Z M249,73 L254,76.3518306 L249,79 L249,73 Z M249,79 L254,82.3518306 L249,85 L249,79 Z M249,85 L254,88.3518306 L249,91 L249,85 Z M249,91 L254,94.3518306 L249,97 L249,91 Z M249,97 L254,100.351831 L249,103 L249,97 Z M249,103 L254,106.351831 L249,109 L249,103 Z M249,109 L254,112.351831 L249,115 L249,109 Z" id="Combined-Shape" fill="#FFFFFF"></path>
            </g>
        </g>
    </g>
</svg>