<?xml version="1.0" encoding="UTF-8" standalone="no"?>
<svg width="16px" height="16px" viewBox="0 0 16 16" version="1.1" xmlns="http://www.w3.org/2000/svg" xmlns:xlink="http://www.w3.org/1999/xlink">
    <!-- Generator: Sketch 45.2 (43514) - http://www.bohemiancoding.com/sketch -->
    <title>Fill 3</title>
    <desc>Created with Sketch.</desc>
    <defs></defs>
    <g id="Symbols" stroke="none" stroke-width="1" fill="none" fill-rule="evenodd">
        <g id="小图标/线型/微信-白色" fill="#FFFFFF">
            <g id="微信">
                <path d="M7.78064738,5.12953938 C8.18888222,5.12953938 8.46169756,4.82778094 8.46169756,4.37818097 C8.46169756,3.92363941 8.18936662,3.62953938 7.78064738,3.62953938 C7.37190876,3.62953938 6.96169756,3.92363941 6.96169756,4.37818097 C6.96220134,4.82778094 7.37241254,5.12953938 7.78064738,5.12953938" id="Fill-1"></path>
                <path d="M3.94486764,3.62953938 C3.53665218,3.62953938 3.12394146,3.92363941 3.12394146,4.37818097 C3.12394146,4.82778094 3.53665218,5.12953938 3.94486764,5.12953938 C4.35161052,5.12953938 4.62394146,4.82778094 4.62394146,4.37818097 C4.62343769,3.92363941 4.35161052,3.62953938 3.94486764,3.62953938" id="Fill-2"></path>
                <path d="M15.9843902,9.47330362 C15.9843902,7.27213472 13.9733463,5.39657256 11.504761,5.20130758 C11.5082537,5.17390788 11.5097561,5.14551758 11.5037659,5.11710748 C11.0087415,2.77392769 8.52718049,1.00740961 5.73090732,1.00740961 C2.57098537,1.00740961 0,3.24459633 0,5.99453195 C0,7.46993561 0.74177561,8.79924715 2.14739512,9.84758791 L1.65738537,11.3432789 C1.6259122,11.4406538 1.65438049,11.5476771 1.73080976,11.6151164 C1.77726829,11.6556909 1.83570732,11.6770084 1.89465366,11.6770084 C1.93260488,11.6770084 1.97108293,11.6678752 2.00653659,11.6501238 L3.8462439,10.7153839 L4.07301463,10.7620406 C4.63947317,10.8802179 5.1284878,10.9826647 5.73090732,10.9826647 C5.90823415,10.9826647 6.08805854,10.9745617 6.26439024,10.9593462 C6.33580488,10.9532442 6.39625366,10.9167311 6.43720976,10.8639921 C7.10056585,12.5493611 8.92878049,13.7660822 11.0801756,13.7660822 C11.6311415,13.7660822 12.1890927,13.6311639 12.6896,13.5038732 L14.1077268,14.2910154 C14.1451902,14.3118177 14.1866537,14.3224567 14.2276098,14.3224567 C14.2835512,14.3224567 14.3394927,14.3031798 14.3844488,14.2661714 C14.4633756,14.2012481 14.4958439,14.0942249 14.4663805,13.9963348 L14.1042341,12.7735315 C15.3185366,11.7992273 15.9843902,10.6337197 15.9843902,9.47330362 Z M6.22193171,10.4536701 C6.05959024,10.4678752 5.89475122,10.4749876 5.73139512,10.4749876 C5.17994146,10.4749876 4.71340488,10.378108 4.17393171,10.2650025 L3.86023415,10.2005944 C3.80628293,10.1889252 3.74934634,10.1965329 3.69988293,10.2224071 L2.32173659,10.9228133 L2.67988293,9.83035166 C2.71484878,9.72332838 2.67639024,9.60667657 2.58597073,9.54226845 C1.20132683,8.56239723 0.499512195,7.36849926 0.499512195,5.99453195 C0.499512195,3.52455671 2.84622439,1.51459138 5.73090732,1.51459138 C8.28091707,1.51459138 10.5387122,3.08990589 11.004761,5.18508172 C8.33086829,5.22058445 6.16747317,7.12909361 6.16747317,9.47330362 C6.16747317,9.8141258 6.21841951,10.1442893 6.30435122,10.4628034 C6.27836098,10.456206 6.2508878,10.4511342 6.22193171,10.4536701 Z M13.6656585,12.4758197 C13.5822439,12.5397127 13.5467707,12.6497672 13.5767415,12.7512036 L13.8130146,13.5490045 L12.8434537,13.0103814 C12.8064976,12.989579 12.7650341,12.9789401 12.7235707,12.9789401 C12.7031024,12.9789401 12.6826146,12.981476 12.6626341,12.9870431 C12.1426341,13.1204359 11.6046634,13.25789 11.0806829,13.25789 C8.64706341,13.25789 6.66749268,11.5598415 6.66749268,9.47278851 C6.66749268,7.38573551 8.64706341,5.68820208 11.0806829,5.68820208 C13.4678439,5.68820208 15.484878,7.42123824 15.484878,9.47278851 C15.484878,10.5135215 14.8390049,11.5801288 13.6656585,12.4758197 L13.6656585,12.4758197 Z" id="Fill-3"></path>
                <path d="M9.68753974,7.66417038 C9.35385556,7.66417038 9.02019512,8.04156291 9.02019512,8.41554325 C9.02019512,8.79224268 9.35385556,9.16417038 9.68753974,9.16417038 C10.1889563,9.16417038 10.5201951,8.79224268 10.5201951,8.41554325 C10.5201951,8.04089647 10.1889563,7.66417038 9.68753974,7.66417038" id="Fill-4"></path>
                <path d="M12.6999992,7.66417038 C12.3710466,7.66417038 12.0372488,8.04156291 12.0372488,8.41554325 C12.0372488,8.79224268 12.3710466,9.16417038 12.6999992,9.16417038 C13.1997933,9.16417038 13.5372488,8.79224268 13.5372488,8.41554325 C13.5372488,8.04089647 13.2004108,7.66417038 12.6999992,7.66417038" id="Fill-5"></path>
            </g>
        </g>
    </g>
</svg>