<?xml version="1.0" encoding="UTF-8" standalone="no"?>
<svg width="24px" height="24px" viewBox="0 0 24 24" version="1.1" xmlns="http://www.w3.org/2000/svg" xmlns:xlink="http://www.w3.org/1999/xlink">
    <!-- Generator: Sketch 44.1 (41455) - http://www.bohemiancoding.com/sketch -->
    <title>小图标/填色/支付宝图标 copy</title>
    <desc>Created with Sketch.</desc>
    <defs></defs>
    <g id="Symbols" stroke="none" stroke-width="1" fill="none" fill-rule="evenodd">
        <g id="小图标/填色/支付宝图标-copy" fill="#A61F23">
            <g id="招商银行">
                <path d="M23.957881,11.5177904 L19.6175184,11.5177904 L19.8099943,12.0135977 L23.9684533,12.0135977 L23.9684533,11.5177904 L23.957881,11.5177904 Z M4.1903796,16.8616657 L10.8291331,16.8616657 L7.44142776,8.65346176 L4.1903796,16.8616657 Z M18.8455751,9.69977337 L23.7488159,9.69977337 L23.700102,9.4812238 L23.6532918,9.27436827 L23.6377904,9.20396601 L18.624,9.20396601 L18.8455751,9.69977337 Z M10.9944476,16.8616657 L17.633949,16.8616657 L14.2454958,8.65346176 L10.9944476,16.8616657 L10.9944476,16.8616657 Z" id="Fill-1"></path>
                <path d="M21.8199433,16.6963173 L19.230221,20.4694164 L5.07171671,20.4694164 L2.28911048,16.9997847 L8.40431728,1.21672521 L11.8754448,9.47986402 L15.1815977,1.13347309 L18.3488499,8.5428102 L23.4581643,8.5428102 C21.9694504,3.61771105 17.3969065,0.0315127479 11.9864023,0.0315127479 C5.36920113,0.0315127479 0.00435127479,5.39612465 0.00435127479,12.0135637 C0.00435127479,18.6311728 5.36916714,23.9956487 11.9864023,23.9956487 C17.1621416,23.9956487 21.5708669,20.7140057 23.2471615,16.1180737 L21.5723626,16.1180737 L21.8199433,16.6963173" id="Fill-2"></path>
                <path d="M20.0851445,12.6741416 L20.3059717,13.1704929 L23.9133484,13.1704929 L23.9684533,12.6741416 L20.0851445,12.6741416 Z M20.8008272,14.3274221 L23.7488159,14.3274221 L23.7790028,14.1462323 L23.8310482,13.8321926 L20.5807819,13.8321926 L20.8008272,14.3274221 Z M19.3136431,10.8566686 L23.9133484,10.8566686 L23.909949,10.8283853 L23.8820057,10.5679207 L23.8593654,10.3608952 L19.1203853,10.3608952 L19.3136431,10.8566686 Z M21.0767592,14.987966 L21.2968045,15.4571218 L23.4736317,15.4571218 L23.6117847,14.987966 L21.0767592,14.987966 L21.0767592,14.987966 Z" id="Fill-3"></path>
            </g>
        </g>
    </g>
</svg>