<?xml version="1.0" encoding="UTF-8" standalone="no"?>
<svg width="16px" height="16px" viewBox="0 0 16 16" version="1.1" xmlns="http://www.w3.org/2000/svg" xmlns:xlink="http://www.w3.org/1999/xlink">
    <!-- Generator: Sketch 45.1 (43504) - http://www.bohemiancoding.com/sketch -->
    <title>钻石</title>
    <desc>Created with Sketch.</desc>
    <defs></defs>
    <g id="夏季保鲜计划" stroke="none" stroke-width="1" fill="none" fill-rule="evenodd">
        <g id="微信-会员中心首页-默认" transform="translate(-259.000000, -112.000000)">
            <g id="top-个人信息" transform="translate(0.000000, 63.000000)"></g>
            <path d="M266.979221,112 C262.574691,112 259,115.574691 259,119.979221 C259,124.383751 262.574691,127.958442 266.979221,127.958442 C271.383751,127.958442 274.958442,124.383751 274.958442,119.979221 C274.958442,115.574691 271.383751,112 266.979221,112 Z M272.014109,118.734462 C272.022088,118.750421 272.030068,118.766379 272.038047,118.782338 L269.508634,118.782338 L270.609766,116.380592 L272.014109,118.734462 Z M270.067179,116.013548 C270.146971,116.013548 270.242722,116.037486 270.322514,116.077382 L269.181486,118.590836 L267.354244,116.013548 L270.067179,116.013548 Z M268.838379,118.782338 L265.088145,118.782338 L266.963262,116.125257 L268.838379,118.782338 Z M263.931158,116.005569 L266.58026,116.005569 L264.753018,118.582857 L263.619969,116.101319 C263.715719,116.045465 263.827429,116.005569 263.931158,116.005569 Z M261.992208,118.726483 L263.356655,116.436447 L264.42587,118.774358 L261.960291,118.774358 C261.96827,118.7584 261.984229,118.742442 261.992208,118.726483 Z M262.040083,119.293008 C262.000187,119.245132 261.96827,119.213216 261.944332,119.181299 L261.920395,119.181299 L261.912416,119.16534 L264.585455,119.16534 L266.380779,124.702919 L262.040083,119.293008 Z M266.963262,125.285403 L264.984416,119.16534 L268.950088,119.16534 L266.979221,125.285403 C266.971242,125.285403 266.971242,125.285403 266.963262,125.285403 Z M271.966234,119.300987 L267.513829,124.854525 L269.349049,119.16534 L272.046026,119.16534 C272.030068,119.213216 272.00613,119.253112 271.966234,119.300987 L271.966234,119.300987 Z" id="钻石" fill="#F2A4AC"></path>
        </g>
    </g>
</svg>