<?xml version="1.0" encoding="UTF-8" standalone="no"?>
<svg width="48px" height="48px" viewBox="0 0 48 48" version="1.1" xmlns="http://www.w3.org/2000/svg" xmlns:xlink="http://www.w3.org/1999/xlink">
    <!-- Generator: Sketch 44.1 (41455) - http://www.bohemiancoding.com/sketch -->
    <title>弹出/取消</title>
    <desc>Created with Sketch.</desc>
    <defs></defs>
    <g id="Symbols" stroke="none" stroke-width="1" fill="none" fill-rule="evenodd">
        <g id="弹出/取消" stroke="#FFFFFF" stroke-width="0.5">
            <path d="M24.8990079,24.5454545 L32.9040494,16.5404131 C33.0016805,16.442782 33.0016805,16.2844907 32.9040494,16.1868597 C32.8064183,16.0892286 32.6481271,16.0892286 32.550496,16.1868597 L24.5454545,24.1919012 L16.5404131,16.1868597 C16.442782,16.0892286 16.2844907,16.0892286 16.1868597,16.1868597 C16.0892286,16.2844907 16.0892286,16.442782 16.1868597,16.5404131 L24.1919012,24.5454545 L16.1868597,32.550496 C16.0892286,32.6481271 16.0892286,32.8064183 16.1868597,32.9040494 C16.2844907,33.0016805 16.442782,33.0016805 16.5404131,32.9040494 L24.5454545,24.8990079 L32.550496,32.9040494 C32.6481271,33.0016805 32.8064183,33.0016805 32.9040494,32.9040494 C33.0016805,32.8064183 33.0016805,32.6481271 32.9040494,32.550496 L24.8990079,24.5454545 Z" id="Combined-Shape" stroke-linecap="round"></path>
            <circle id="Oval-2" cx="24" cy="24" r="23.75"></circle>
        </g>
    </g>
</svg>