<?xml version="1.0" encoding="utf-8"?>
<!-- Generator: Adobe Illustrator 19.2.1, SVG Export Plug-In . SVG Version: 6.00 Build 0)  -->
<svg version="1.1" id="图层_1" xmlns="http://www.w3.org/2000/svg" xmlns:xlink="http://www.w3.org/1999/xlink" x="0px" y="0px"
	 viewBox="0 0 375 12" style="enable-background:new 0 0 375 12;" xml:space="preserve">
<style type="text/css">
	.st0{fill:#FFFFFF;}
	.st1{fill:#CCCCCC;}
	.st2{fill:none;stroke:#E5E5E5;stroke-width:0.5;stroke-linecap:square;}
</style>
<title>品牌/灰色Flowerplus</title>
<desc>Created with Sketch.</desc>
<g id="主页">
	<g id="主页-微信" transform="translate(0.000000, -1407.000000)">
		<rect id="Rectangle-6" y="72" class="st0" width="375" height="2928"/>
		<g id="产品系列" transform="translate(0.000000, 558.000000)">
			<rect id="Rectangle-5" y="0" class="st0" width="375" height="854"/>
		</g>
		<g id="分割线" transform="translate(0.000000, 1407.000000)">
			<g id="品牌_x2F_灰色Flowerplus" transform="translate(152.000000, 0.000000)">
				<g id="logo-ddd">
					<path class="st1" d="M-3.9,2h5c0.2,0,0.4,0,0.6,0c0.2,0,0.5,0,0.7,0.1c0.2,0,0.5,0.1,0.7,0.2c0.2,0.1,0.5,0.2,0.7,0.4
						C4,2.8,4.1,3,4.2,3.3c0.1,0.3,0.2,0.6,0.2,0.9c0,0.3,0,0.5-0.1,0.7C4.2,5.2,4.1,5.3,4,5.5C3.8,5.6,3.7,5.7,3.5,5.8
						C3.4,5.9,3.2,6,3.1,6c0.1,0.1,0.3,0.1,0.5,0.2c0.2,0.1,0.4,0.2,0.5,0.4C4.3,6.8,4.4,7,4.5,7.2c0.1,0.2,0.2,0.5,0.2,0.9
						c0,0.4-0.1,0.7-0.2,1C4.4,9.4,4.2,9.6,4,9.8c-0.2,0.2-0.5,0.3-0.7,0.4c-0.3,0.1-0.6,0.2-0.9,0.2c-0.3,0.1-0.6,0.1-0.9,0.1
						c-0.3,0-0.6,0-0.9,0h-4.4V2z M-2.8,5.6h3.6c0.3,0,0.6,0,0.9,0c0.3,0,0.6-0.1,0.8-0.2C2.8,5.3,3,5.1,3.2,5
						c0.2-0.2,0.2-0.4,0.2-0.7c0-0.3-0.1-0.6-0.2-0.8C3,3.2,2.8,3.1,2.5,3C2.2,2.9,1.9,2.9,1.6,2.9c-0.4,0-0.7,0-1.1,0h-3.3V5.6z
						 M-2.8,9.6h4c0.3,0,0.6,0,0.9-0.1c0.3,0,0.6-0.1,0.8-0.2c0.2-0.1,0.4-0.3,0.6-0.5c0.1-0.2,0.2-0.5,0.2-0.8
						c0-0.3-0.1-0.6-0.2-0.8C3.4,7.2,3.2,7,3,6.9C2.8,6.7,2.6,6.6,2.3,6.6C2,6.5,1.7,6.5,1.3,6.5h-4.1V9.6z"/>
					<path class="st1" d="M6.6,2h7.6v0.9H7.7v2.7h5.5v0.9H7.7v3.1h6.8v0.9H6.6V2z"/>
					<path class="st1" d="M16.3,2h7.6v0.9h-6.6v2.7h5.5v0.9h-5.5v3.1h6.8v0.9h-7.8V2z"/>
					<path class="st1" d="M25.9,2h5c0.2,0,0.4,0,0.6,0c0.2,0,0.5,0,0.7,0.1c0.2,0,0.5,0.1,0.7,0.2c0.2,0.1,0.5,0.2,0.7,0.4
						C33.8,2.8,33.9,3,34,3.3c0.1,0.3,0.2,0.6,0.2,0.9c0,0.3,0,0.5-0.1,0.7c-0.1,0.2-0.2,0.4-0.3,0.5c-0.1,0.1-0.3,0.2-0.4,0.3
						C33.2,5.9,33,6,32.9,6c0.1,0.1,0.3,0.1,0.5,0.2c0.2,0.1,0.4,0.2,0.5,0.4c0.2,0.2,0.3,0.4,0.4,0.6c0.1,0.2,0.2,0.5,0.2,0.9
						c0,0.4-0.1,0.7-0.2,1c-0.1,0.3-0.3,0.5-0.5,0.7c-0.2,0.2-0.5,0.3-0.7,0.4c-0.3,0.1-0.6,0.2-0.9,0.2c-0.3,0.1-0.6,0.1-0.9,0.1
						c-0.3,0-0.6,0-0.9,0h-4.4V2z M27,5.6h3.6c0.3,0,0.6,0,0.9,0c0.3,0,0.6-0.1,0.8-0.2C32.6,5.3,32.8,5.1,33,5
						c0.2-0.2,0.2-0.4,0.2-0.7c0-0.3-0.1-0.6-0.2-0.8c-0.2-0.2-0.4-0.3-0.6-0.4c-0.3-0.1-0.6-0.1-0.9-0.2c-0.4,0-0.7,0-1.1,0H27V5.6
						z M27,9.6h4c0.3,0,0.6,0,0.9-0.1c0.3,0,0.6-0.1,0.8-0.2c0.2-0.1,0.4-0.3,0.6-0.5c0.1-0.2,0.2-0.5,0.2-0.8
						c0-0.3-0.1-0.6-0.2-0.8C33.2,7.2,33,7,32.8,6.9c-0.2-0.1-0.5-0.2-0.7-0.3c-0.3-0.1-0.6-0.1-1-0.1H27V9.6z"/>
					<path class="st1" d="M35.8,6.3c0-0.7,0.1-1.4,0.4-1.9c0.3-0.6,0.6-1,1-1.4c0.4-0.4,1-0.7,1.6-0.9c0.6-0.2,1.3-0.3,2-0.3
						c0.7,0,1.4,0.1,2,0.3C43.5,2.3,44,2.6,44.5,3c0.4,0.4,0.8,0.9,1,1.4c0.3,0.6,0.4,1.2,0.4,1.9c0,0.8-0.1,1.4-0.4,2
						c-0.3,0.6-0.7,1-1.1,1.4c-0.5,0.4-1,0.6-1.6,0.8c-0.6,0.2-1.2,0.3-1.8,0.3c-0.6,0-1.2-0.1-1.8-0.3c-0.6-0.2-1.1-0.4-1.6-0.8
						c-0.5-0.4-0.9-0.8-1.1-1.4C36,7.7,35.8,7.1,35.8,6.3z M36.9,6.1c0,0.7,0.1,1.2,0.3,1.7c0.2,0.5,0.5,0.9,0.9,1.2
						c0.4,0.3,0.8,0.5,1.3,0.7c0.5,0.1,1,0.2,1.5,0.2c0.5,0,1-0.1,1.5-0.2c0.5-0.1,0.9-0.4,1.3-0.7c0.4-0.3,0.7-0.7,0.9-1.2
						c0.2-0.5,0.3-1,0.3-1.7c0-0.5-0.1-0.9-0.3-1.4c-0.2-0.4-0.4-0.8-0.8-1.1c-0.3-0.3-0.8-0.6-1.2-0.8c-0.5-0.2-1-0.3-1.7-0.3
						c-0.6,0-1.2,0.1-1.7,0.3c-0.5,0.2-0.9,0.4-1.2,0.8c-0.3,0.3-0.6,0.7-0.8,1.1C37,5.2,36.9,5.6,36.9,6.1z"/>
					<path class="st1" d="M47,6.3c0-0.7,0.1-1.4,0.4-1.9c0.3-0.6,0.6-1,1-1.4c0.4-0.4,1-0.7,1.6-0.9c0.6-0.2,1.3-0.3,2-0.3
						c0.7,0,1.4,0.1,2,0.3c0.6,0.2,1.1,0.5,1.6,0.9c0.4,0.4,0.8,0.9,1,1.4C56.9,5,57,5.6,57,6.3c0,0.8-0.1,1.4-0.4,2
						c-0.3,0.6-0.7,1-1.1,1.4c-0.5,0.4-1,0.6-1.6,0.8c-0.6,0.2-1.2,0.3-1.8,0.3c-0.6,0-1.2-0.1-1.8-0.3c-0.6-0.2-1.1-0.4-1.6-0.8
						c-0.5-0.4-0.9-0.8-1.1-1.4C47.1,7.7,47,7.1,47,6.3z M48,6.1c0,0.7,0.1,1.2,0.3,1.7c0.2,0.5,0.5,0.9,0.9,1.2
						c0.4,0.3,0.8,0.5,1.3,0.7c0.5,0.1,1,0.2,1.5,0.2c0.5,0,1-0.1,1.5-0.2C54,9.5,54.4,9.3,54.8,9c0.4-0.3,0.7-0.7,0.9-1.2
						c0.2-0.5,0.3-1,0.3-1.7c0-0.5-0.1-0.9-0.3-1.4c-0.2-0.4-0.4-0.8-0.8-1.1c-0.3-0.3-0.8-0.6-1.2-0.8c-0.5-0.2-1-0.3-1.7-0.3
						c-0.6,0-1.2,0.1-1.7,0.3c-0.5,0.2-0.9,0.4-1.2,0.8c-0.3,0.3-0.6,0.7-0.8,1.1C48.1,5.2,48,5.6,48,6.1z"/>
					<path class="st1" d="M58.7,2h1.5L66.6,9V2h1v8.6h-1l-6.9-7.7v7.7h-1V2z"/>
					<path class="st1" d="M69.6,2h7.7v0.9h-6.6v2.7h5.5v0.9h-5.5v3.1h6.8v0.9h-7.8V2z"/>
				</g>
			</g>
			<g id="表单_x2F_分隔线" transform="translate(0.000000, 6.000000)">
				<path id="Line" class="st2" d="M0.1,0.7h135.8"/>
			</g>
			<g id="表单_x2F_分隔线_1_" transform="translate(240.000000, 6.000000)">
				<path id="Line_1_" class="st2" d="M0.1,0.7h134.8"/>
			</g>
		</g>
	</g>
</g>
</svg>
